<svg width="32" height="24" viewBox="0 0 32 24" fill="none" xmlns="http://www.w3.org/2000/svg">
<g clip-path="url(#clip0_8001_4800)">
<path d="M0 0H32V24H0V0Z" fill="white"/>
<path d="M15.39 19.93L15.38 19.92H15.375L15.31 19.85L15.12 19.625L14.875 19.31L14.845 19.265L14.535 19.17L14.305 19.065L14.425 18.93L14.845 19.105L15.155 19.17L15.73 19.595L15.565 19.74L15.4 19.915L15.435 19.89L15.475 19.92L15.39 19.93ZM13.26 19.29C12.9782 19.2868 12.7022 19.2092 12.46 19.065C12.46 19.065 12.495 19 12.575 18.945C12.655 18.885 12.795 18.82 13.025 18.815C13.2983 18.815 13.6233 18.905 14 19.085C13.7757 19.2168 13.5201 19.2859 13.26 19.285V19.29ZM12.085 19.03C12.0317 19.03 11.9883 19.0133 11.955 18.98C11.9262 18.9457 11.9073 18.9042 11.9 18.86C11.8869 18.8043 11.8819 18.7471 11.885 18.69L11.95 18.68C12.05 18.68 12.13 18.765 12.165 18.85C12.185 18.9 12.1883 18.9417 12.175 18.975C12.1617 19.0083 12.1317 19.025 12.085 19.025V19.03ZM14.15 18.79C13.455 18.69 13.16 18.44 13.035 18.245C12.905 18.04 12.935 17.845 12.935 17.845C12.935 17.845 12.975 17.835 13.035 17.835C13.225 17.835 13.695 17.93 14.15 18.785V18.79ZM12.725 18.65C12.4283 18.65 12.205 18.6 12.055 18.5C11.9904 18.4603 11.9384 18.4031 11.905 18.335L11.885 18.255C11.9989 18.2072 12.1215 18.1834 12.245 18.185C12.4235 18.1914 12.5989 18.2332 12.7611 18.3078C12.9233 18.3825 13.0691 18.4886 13.19 18.62C13.02 18.64 12.865 18.65 12.725 18.65ZM11.29 18.6C10.98 18.6 10.55 18.5 10.28 18.235C10.28 18.235 10.575 18.16 10.9 18.15H10.96C11.2567 18.15 11.48 18.2067 11.63 18.32C11.68 18.36 11.7083 18.3967 11.715 18.43C11.7217 18.4633 11.7083 18.4917 11.675 18.515C11.605 18.565 11.485 18.5917 11.315 18.595H11.29V18.6ZM10.275 18.075C10.2365 18.0718 10.2006 18.0539 10.175 18.025C10.1546 17.995 10.1409 17.9608 10.135 17.925C10.12 17.855 10.125 17.785 10.125 17.78L10.175 17.77C10.2217 17.7733 10.255 17.79 10.275 17.82C10.3049 17.8482 10.3288 17.8822 10.345 17.92C10.3583 17.9633 10.3583 18 10.345 18.03C10.345 18.05 10.315 18.08 10.28 18.08L10.275 18.075ZM12.62 18.025C12.5667 18.025 12.5233 18.0083 12.49 17.975C12.4612 17.9407 12.4423 17.8992 12.435 17.855C12.4219 17.7993 12.4169 17.7421 12.42 17.685L12.485 17.675C12.585 17.675 12.67 17.76 12.7 17.845C12.72 17.895 12.725 17.9367 12.715 17.97C12.6983 18.0033 12.665 18.02 12.615 18.02L12.62 18.025ZM11.48 17.975C10.85 17.955 10.52 17.775 10.36 17.625C10.2906 17.5644 10.233 17.4915 10.19 17.41C10.1667 17.3567 10.155 17.3233 10.155 17.31C10.1617 17.2933 10.2117 17.2867 10.305 17.29H10.325C10.535 17.29 10.97 17.38 11.475 17.975H11.48ZM12.16 17.915C11.8004 17.8751 11.4661 17.7106 11.215 17.45C11.1223 17.3495 11.0523 17.2301 11.01 17.1C11.01 17.1 11.07 17.085 11.16 17.08H11.21C11.46 17.085 11.925 17.2 12.16 17.915ZM9.56 17.665C9.40028 17.6665 9.24092 17.6497 9.085 17.615C8.82 17.545 8.705 17.445 8.655 17.37C8.63456 17.34 8.62091 17.3058 8.615 17.27V17.23C8.615 17.23 8.79 17.18 9.035 17.175C9.15905 17.1719 9.28308 17.1819 9.405 17.205C9.65955 17.26 9.88633 17.4035 10.045 17.61C10.045 17.61 9.845 17.67 9.56 17.67V17.665ZM10.735 17.245C10.7117 17.247 10.6883 17.2435 10.6666 17.2348C10.6449 17.2261 10.6255 17.2125 10.61 17.195C10.5812 17.1607 10.5623 17.1192 10.555 17.075C10.535 16.995 10.54 16.915 10.54 16.905L10.6 16.89H10.605C10.705 16.89 10.785 16.98 10.82 17.065C10.84 17.115 10.8433 17.155 10.83 17.185C10.8133 17.2183 10.7817 17.2367 10.735 17.24V17.245ZM9.855 17.12C9.68628 17.0719 9.52483 17.0013 9.375 16.91C9.155 16.775 8.88 16.535 8.85 16.16L8.9 16.155H8.915C8.98 16.155 9.115 16.17 9.28 16.295C9.49 16.4583 9.68167 16.7333 9.855 17.12ZM10.43 17.1C10.292 17.0374 10.164 16.9548 10.05 16.855C9.75809 16.6018 9.53022 16.2831 9.385 15.925C9.385 15.925 9.43 15.9 9.5 15.895H9.53C9.63 15.895 9.775 15.94 9.935 16.115C10.125 16.315 10.2917 16.6433 10.435 17.1H10.43ZM8.935 17.055C8.74 17.055 8.675 16.955 8.655 16.905C8.63563 16.8575 8.62874 16.8059 8.635 16.755L8.735 16.745C8.7971 16.743 8.8588 16.7556 8.91522 16.7816C8.97163 16.8077 9.0212 16.8465 9.06 16.895C9.07 16.915 9.1 16.965 9.075 17.01C9.055 17.0433 9.00833 17.06 8.935 17.06V17.055ZM8.51 16.515C8.35926 16.5167 8.20867 16.505 8.06 16.48C7.89 16.45 7.795 16.305 7.74 16.185C7.69 16.06 7.67 15.935 7.67 15.935C8.2 15.95 8.455 16.105 8.57 16.235C8.64394 16.3088 8.6899 16.406 8.7 16.51C8.7 16.51 8.62 16.52 8.51 16.52V16.515ZM9.06 15.965L8.94 15.795C8.875 15.695 8.82 15.595 8.82 15.515C8.82 15.43 8.8 15.265 8.79 15.165L8.76 14.94C8.775 14.94 9.09 15.06 9.09 15.36C9.09 15.66 9.06 15.96 9.06 15.96V15.965ZM8.65 15.935H8.64C8.29725 15.8317 7.98488 15.6464 7.73 15.395C7.64333 15.295 7.59167 15.1383 7.575 14.925C7.565 14.775 7.575 14.65 7.575 14.635L7.63 14.63C7.69667 14.63 7.78 14.6633 7.88 14.73C7.97277 14.7958 8.05975 14.8694 8.14 14.95C8.3 15.11 8.425 15.27 8.425 15.27C8.44 15.29 8.525 15.455 8.6 15.615C8.6351 15.6885 8.66193 15.7656 8.68 15.845C8.68667 15.875 8.68667 15.8983 8.68 15.915L8.665 15.935H8.645H8.65Z" fill="#435125"/>
<path d="M14.2951 19.93L14.3051 19.92H14.3101L14.3751 19.85L14.5651 19.625L14.8101 19.31L14.8401 19.265L15.1501 19.17L15.3801 19.065L15.2601 18.93L14.8401 19.105L14.5301 19.17L13.9551 19.595L14.1201 19.74L14.2851 19.915L14.2501 19.89L14.2101 19.92L14.2951 19.93ZM16.4251 19.29C16.7069 19.2868 16.9829 19.2092 17.2251 19.065C17.2251 19.065 17.1901 19 17.1101 18.945C17.0301 18.885 16.8901 18.82 16.6601 18.815C16.3867 18.815 16.0617 18.905 15.6851 19.085C15.9093 19.2168 16.1649 19.2859 16.4251 19.285V19.29ZM17.6001 19.03C17.6534 19.03 17.6967 19.0133 17.7301 18.98C17.7588 18.9457 17.7778 18.9042 17.7851 18.86C17.7981 18.8043 17.8032 18.7471 17.8001 18.69L17.7351 18.68C17.6351 18.68 17.5551 18.765 17.5201 18.85C17.5001 18.9 17.4967 18.9417 17.5101 18.975C17.5234 19.0083 17.5534 19.025 17.6001 19.025V19.03ZM15.5351 18.79C16.2301 18.69 16.5251 18.44 16.6501 18.245C16.7801 18.04 16.7501 17.845 16.7501 17.845C16.7501 17.845 16.7101 17.835 16.6501 17.835C16.4601 17.835 15.9901 17.93 15.5351 18.785V18.79ZM16.9601 18.65C17.2567 18.65 17.4801 18.6 17.6301 18.5C17.6947 18.4603 17.7467 18.4031 17.7801 18.335L17.8001 18.255C17.6861 18.2072 17.5636 18.1834 17.4401 18.185C17.2616 18.1914 17.0862 18.2332 16.924 18.3078C16.7618 18.3825 16.616 18.4886 16.4951 18.62C16.6651 18.64 16.8201 18.65 16.9601 18.65ZM18.3951 18.6C18.7051 18.6 19.1351 18.5 19.4051 18.235C19.4051 18.235 19.1101 18.16 18.7851 18.15H18.7251C18.4284 18.15 18.2051 18.2067 18.0551 18.32C18.0051 18.36 17.9767 18.3967 17.9701 18.43C17.9634 18.4633 17.9767 18.4917 18.0101 18.515C18.0801 18.565 18.2001 18.5917 18.3701 18.595H18.3951V18.6ZM19.4101 18.075C19.4486 18.0718 19.4844 18.0539 19.5101 18.025C19.5305 17.995 19.5441 17.9608 19.5501 17.925C19.5651 17.855 19.5601 17.785 19.5601 17.78L19.5101 17.77C19.4634 17.7733 19.4301 17.79 19.4101 17.82C19.3801 17.8482 19.3563 17.8822 19.3401 17.92C19.3267 17.9633 19.3267 18 19.3401 18.03C19.3401 18.05 19.3701 18.08 19.4051 18.08L19.4101 18.075ZM17.0651 18.025C17.1184 18.025 17.1617 18.0083 17.1951 17.975C17.2238 17.9407 17.2428 17.8992 17.2501 17.855C17.2631 17.7993 17.2682 17.7421 17.2651 17.685L17.2001 17.675C17.1001 17.675 17.0151 17.76 16.9851 17.845C16.9651 17.895 16.9601 17.9367 16.9701 17.97C16.9867 18.0033 17.0201 18.02 17.0701 18.02L17.0651 18.025ZM18.2051 17.975C18.8351 17.955 19.1651 17.775 19.3251 17.625C19.3944 17.5644 19.4521 17.4915 19.4951 17.41C19.5184 17.3567 19.5301 17.3233 19.5301 17.31C19.5234 17.2933 19.4734 17.2867 19.3801 17.29H19.3601C19.1501 17.29 18.7151 17.38 18.2101 17.975H18.2051ZM17.5251 17.915C17.8847 17.8751 18.219 17.7106 18.4701 17.45C18.5628 17.3495 18.6327 17.2301 18.6751 17.1C18.6751 17.1 18.6151 17.085 18.5251 17.08H18.4751C18.2251 17.085 17.7601 17.2 17.5251 17.915ZM20.1251 17.665C20.2848 17.6665 20.4441 17.6497 20.6001 17.615C20.8651 17.545 20.9801 17.445 21.0301 17.37C21.0505 17.34 21.0641 17.3058 21.0701 17.27V17.23C21.0701 17.23 20.8951 17.18 20.6501 17.175C20.526 17.1719 20.402 17.1819 20.2801 17.205C20.0255 17.26 19.7987 17.4035 19.6401 17.61C19.6401 17.61 19.8401 17.67 20.1251 17.67V17.665ZM18.9501 17.245C18.9733 17.247 18.9968 17.2435 19.0185 17.2348C19.0402 17.2261 19.0596 17.2125 19.0751 17.195C19.1038 17.1607 19.1228 17.1192 19.1301 17.075C19.1501 16.995 19.1451 16.915 19.1451 16.905L19.0851 16.89H19.0801C18.9801 16.89 18.9001 16.98 18.8651 17.065C18.8451 17.115 18.8417 17.155 18.8551 17.185C18.8717 17.2183 18.9034 17.2367 18.9501 17.24V17.245ZM19.8301 17.12C19.9988 17.0719 20.1602 17.0013 20.3101 16.91C20.5301 16.775 20.8051 16.535 20.8351 16.16L20.7851 16.155H20.7701C20.7051 16.155 20.5701 16.17 20.4051 16.295C20.1951 16.4583 20.0034 16.7333 19.8301 17.12ZM19.2551 17.1C19.393 17.0374 19.521 16.9548 19.6351 16.855C19.927 16.6018 20.1548 16.2831 20.3001 15.925C20.3001 15.925 20.2551 15.9 20.1851 15.895H20.1551C20.0551 15.895 19.9101 15.94 19.7501 16.115C19.5601 16.315 19.3934 16.6433 19.2501 17.1H19.2551ZM20.7501 17.055C20.9451 17.055 21.0101 16.955 21.0301 16.905C21.0494 16.8575 21.0563 16.8059 21.0501 16.755L20.9501 16.745C20.888 16.743 20.8263 16.7556 20.7698 16.7816C20.7134 16.8077 20.6639 16.8465 20.6251 16.895C20.6151 16.915 20.5851 16.965 20.6101 17.01C20.6301 17.0433 20.6767 17.06 20.7501 17.06V17.055ZM21.1751 16.515C21.3258 16.5167 21.4764 16.505 21.6251 16.48C21.7951 16.45 21.8901 16.305 21.9451 16.185C21.9951 16.06 22.0151 15.935 22.0151 15.935C21.4851 15.95 21.2301 16.105 21.1151 16.235C21.0411 16.3088 20.9952 16.406 20.9851 16.51C20.9851 16.51 21.0651 16.52 21.1751 16.52V16.515ZM20.6251 15.965L20.7451 15.795C20.8101 15.695 20.8651 15.595 20.8651 15.515C20.8651 15.43 20.8851 15.265 20.8951 15.165L20.9251 14.94C20.9101 14.94 20.5951 15.06 20.5951 15.36C20.5951 15.66 20.6251 15.96 20.6251 15.96V15.965ZM21.0351 15.935H21.0451C21.3878 15.8317 21.7002 15.6464 21.9551 15.395C22.0417 15.295 22.0934 15.1383 22.1101 14.925C22.1201 14.775 22.1101 14.65 22.1101 14.635L22.0551 14.63C21.9884 14.63 21.9051 14.6633 21.8051 14.73C21.7123 14.7958 21.6253 14.8694 21.5451 14.95C21.3851 15.11 21.2601 15.27 21.2601 15.27C21.2451 15.29 21.1601 15.455 21.0851 15.615C21.05 15.6885 21.0231 15.7656 21.0051 15.845C20.9984 15.875 20.9984 15.8983 21.0051 15.915L21.0201 15.935H21.0401H21.0351Z" fill="#435125"/>
<path d="M25.95 3.82007L25.86 3.85507L25.82 3.87007L25.71 3.86507L25.6 3.91507L25.41 4.04507L25.405 4.05007L25.33 4.07007L25.265 4.04007L25.23 4.06007L25.215 4.13507L25.18 4.19007L25.135 4.22007L24.985 4.23507L24.86 4.30507L24.69 4.25507L24.615 4.29007L24.45 4.44007L24.365 4.47507H24.34L24.225 4.47007L24.18 4.48507L24.11 4.55007L23.98 4.56007L23.935 4.59007L23.87 4.72007L23.8 4.80007L23.76 4.80507L23.72 4.79007L23.685 4.79507L23.67 4.88007L23.64 4.91507L23.55 4.94507L23.48 5.00507L23.415 5.03507H23.315L23.23 5.08507L23.075 5.09507L23.01 5.15507L22.995 5.17007L22.965 5.18507L22.915 5.21507L22.905 5.22507L22.845 5.21507L22.775 5.24007L22.745 5.20007L22.695 5.22507L22.635 5.23007L22.555 5.19507L22.49 5.16507L22.445 5.17507L22.43 5.25007V5.26007L22.38 5.32007L22.295 5.37507L22.285 5.39007L22.185 5.52007L21.995 5.72007L21.835 5.80007L21.67 5.85007L21.555 5.94507L21.255 6.09507L20.77 6.33507L20.67 6.36507L20.53 6.38507L20.28 6.48007L20.06 6.54507L20.045 6.55007L20.005 6.56507L19.69 6.66007L19.545 6.64007L19.46 6.67507L19.235 6.65007H19.08L18.98 6.67007L18.795 6.76007L18.48 6.91007L18.38 7.01007L18.22 7.09007L18.03 7.15007V7.07007L17.965 7.09007L17.915 7.10507L17.765 7.12507H17.68L17.625 7.11007H17.615L17.305 7.21507L16.955 7.25007L16.78 7.30507H16.65L16.57 7.33007L16.41 7.35007L16.35 7.33507L16.34 7.33007L15.87 7.35007L15.655 7.32507L15.555 7.35007L15.38 7.29007L15.13 7.26007L15.07 7.24507L14.94 7.20507L14.88 7.24007L14.83 7.24507L14.73 7.20507H14.69L14.6 7.23507L14.55 7.22507L14.5 7.18507L14.395 7.17007L14.325 7.11507L13.95 7.16507L13.85 7.13507L13.505 7.03507H13.455L13.385 7.08507L13.285 7.12507L13.19 7.14507L13.07 7.15007L12.93 7.11507L12.79 7.04507L12.735 7.03007L12.615 7.04507H12.58L12.36 6.93007L12.08 6.75507L11.89 6.66007L11.815 6.65007L11.805 6.68507L11.84 6.79507L11.855 6.91007V7.01007L11.85 7.07507L11.865 7.13007L11.935 7.21007L11.965 7.28507L11.985 7.49507V7.71007L11.95 8.05007L11.94 8.10007L11.9 8.28007L11.865 8.44507L11.72 8.88007L11.685 8.93007L11.585 8.99507L11.37 9.14507L11.21 9.23507L11.16 9.25507L11.03 9.26507H10.95L10.85 9.21007L10.75 9.18507L10.62 9.09007L10.48 9.06007L10.32 8.97007L10.28 8.92007L10.195 8.91007L10.075 8.87507L10.03 8.86007L10 8.85507L9.85004 8.85007L9.70504 8.78507L9.63004 8.76507H9.53004L9.42504 8.81507L9.37004 8.83507L9.30004 8.81007H9.25004L9.20004 8.89507L9.19004 8.91007L9.15004 8.93007H9.06504L9.02504 8.94507L8.97004 8.97007L8.92004 8.99007L8.89504 9.00007H8.88004L8.85504 9.01007H8.82504L8.76504 8.98007L8.73504 8.96507L8.68504 8.95507L8.66004 8.97007L8.65504 9.06507L8.63004 9.12007L8.55004 9.19007L8.47004 9.26007L8.42004 9.34007L8.27004 9.67507L8.17504 9.81007L8.15004 9.84507L8.05004 9.95007L7.96504 10.0151L7.77004 10.1651L7.58504 10.2401L7.42504 10.2701H7.34504L7.19504 10.2501L7.06504 10.2101L6.91504 10.1201L6.76004 9.99007L6.52504 9.76507L6.49504 9.74507L6.48504 9.74007L6.41504 9.69007H6.36004L6.34004 9.73007L6.32504 9.78007L6.31504 9.82507L6.29004 10.0751V10.0901L6.30504 10.1951L6.48504 10.4451L6.53504 10.5751L6.54504 10.5901L6.58004 10.6501L6.61004 10.7001L6.67504 10.8801L6.63004 10.9801L6.65004 11.0501L6.60004 11.0901L6.59004 11.1501L6.74504 11.3501L6.78004 11.4351L6.74504 11.5551L6.68004 11.6251L6.66504 11.6401L6.67504 11.6901L6.74504 11.7601L6.87004 11.8701L6.93504 12.0301L6.98504 12.0801L7.04504 12.0651L7.07504 12.0901H7.12504L7.17504 12.1401L7.20504 12.1501L7.25504 12.1751L7.29504 12.2251L7.30004 12.3851L7.37504 12.5751V12.7001L7.42504 12.7751L7.43504 12.8351L7.41004 13.0001L7.47004 13.0501L7.53004 13.0401L7.57004 13.0451L7.63504 13.1001L7.71504 13.2201L7.79504 13.2101L7.84504 13.2301L8.08004 13.4451L8.13004 13.4751L8.17504 13.4951L8.22504 13.5451L8.29504 13.4951H8.30504L8.38504 13.4851L8.42004 13.5101L8.49004 13.5551H8.57504L8.77504 13.6151L8.85504 13.6351L9.02504 13.7401L9.10004 13.7851L9.14004 13.8201L9.20004 13.8701L9.31004 13.9201L9.41004 13.9401L9.46004 13.9501L9.50504 13.9651L9.71504 14.0501L9.83004 14.0751L9.93004 14.1151L10.01 14.1401H10.07L10.15 14.0751H10.225L10.29 14.0851L10.355 14.0751L10.455 14.0151L10.47 13.9851L10.54 13.9551L10.78 13.9251L10.85 13.9451L11.03 13.8701L11.15 13.9001L11.25 13.8651L11.485 13.9151L11.545 13.9601L11.615 14.0351H11.7L11.665 14.0901L11.765 14.2001L11.86 14.3351L11.865 14.3551L11.93 14.5501L11.98 14.6201L12.015 14.7151V14.7751L11.965 14.8201L11.955 14.8401V14.8501L11.965 14.8751L11.985 14.8651L12.02 14.8451L12.07 14.8351L12.15 14.8451L12.205 14.8501L12.29 14.8101L12.35 14.7801L12.44 14.8201H12.54L12.585 14.8351L12.705 14.8901L12.765 14.8951L12.785 14.8801L12.8 14.8501L12.795 14.8101L12.745 14.7551L12.645 14.6351L12.605 14.5751L12.575 14.4901L12.565 14.3801L12.555 14.3051L12.57 14.2051L12.595 14.1701L12.615 14.0901L12.62 14.0701L12.68 13.9951L12.83 13.8951L12.99 13.7551L13.115 13.6701L13.245 13.6151V13.6001L13.265 13.6051L13.595 13.4901L13.745 13.4651L14.745 13.5351L14.78 13.5251L14.815 13.4301L14.83 13.4151L14.845 13.4051L14.955 13.3551L15.005 13.3451L15.145 13.3801L15.205 13.3951L15.3 13.3451H15.365L15.5 13.2701H15.585L15.62 13.2601L15.785 13.1401L15.94 13.0951L15.98 13.0751L15.995 13.0651L16.16 12.9801L16.26 12.9001L16.35 12.8501L16.45 12.8301L16.7 12.8101L16.755 12.7251L16.865 12.7101L16.93 12.6351L17.005 12.6051L17.06 12.5251L17.11 12.4601L17.17 12.4251L17.375 12.4101L17.615 12.4401L17.65 12.4201L17.7 12.2251L17.76 12.1901L17.91 11.9651V11.8851L17.915 11.8151L17.94 11.7151L17.925 11.5451L17.945 11.3651L18.04 11.1401L18.125 11.0501L18.26 10.9551L18.33 10.9251L18.43 10.9101H18.44L18.465 10.9001H18.925L19.04 10.8951L19.325 10.9451H19.345L19.44 10.9801L19.55 11.0651L19.67 11.1801L19.69 11.2001L19.765 11.2351L19.79 11.2451L19.85 11.2351L19.94 11.1851L20.01 11.1351L20.1 11.0851V11.0751L20.155 11.0001L20.175 10.9651L20.355 10.8951L20.565 10.8851L20.59 10.8701H20.6L20.655 10.8001H20.705L20.835 10.8501L20.92 10.8301L20.99 10.8551L21.045 10.8501L21.145 10.8351L21.26 10.9151L21.325 10.9251L21.55 11.0551H21.57L21.58 11.0601L21.605 11.0501L21.645 11.0401H21.65L21.655 11.0451L21.685 11.0801L21.72 11.0851L21.76 11.0351L21.745 11.0051L21.74 10.9951L21.655 10.9801L21.585 10.8551L21.655 10.7801L21.545 10.6501L21.525 10.6251V10.6201L21.485 10.5601L21.295 10.2701L21.045 10.0701L20.96 10.0051L20.93 9.98007L20.795 9.84507L20.7 9.72007L20.69 9.69507L20.67 9.65007L20.615 9.53007L20.515 9.45507L20.435 9.36507L20.265 9.13507L20.24 9.10007L20.2 9.07507H20.115L20.11 9.06507H20.105V9.06007L20.145 9.02007L20.195 9.01007L20.21 8.96507L20.125 8.72007V8.71007L20.12 8.63507L20.185 8.28007L20.195 8.23507L20.315 8.00007L20.385 7.94007L20.465 7.78507L20.535 7.68507L20.6 7.62007L20.61 7.61507L20.725 7.54507L20.825 7.53007L20.92 7.51507L21.085 7.56507H21.235L21.27 7.56007L21.34 7.55007L21.455 7.51507L21.51 7.48007L21.54 7.44007L21.6 7.24007L21.62 7.17507L21.655 7.10507L21.87 6.86007L22.03 6.71007L22.39 6.45007L22.565 6.34507L22.655 6.29007L23.46 5.93007L23.67 5.72007L23.78 5.61007L23.97 5.48007L24.195 5.38507L24.395 5.23507L24.435 5.18007L24.485 5.00507L24.535 4.99507L24.57 4.91007L24.585 4.88507L24.74 4.77507L24.76 4.76507L25.375 4.45507L25.465 4.47007L25.515 4.39507L25.69 4.36507H25.725L25.77 4.34007L25.805 4.27507V4.26007L25.81 4.09007L25.85 4.04507L25.87 3.93507L25.89 3.90507L25.91 3.88007L25.96 3.84507L25.95 3.82007Z" fill="#D47600"/>
</g>
<defs>
<clipPath id="clip0_8001_4800">
<rect width="32" height="24" fill="white"/>
</clipPath>
</defs>
</svg>
