<svg width="32" height="24" viewBox="0 0 32 24" fill="none" xmlns="http://www.w3.org/2000/svg">
<g clip-path="url(#clip0_8001_4815)">
<path d="M0 0H32V24H0V0Z" fill="white"/>
<path d="M16 0H32V24H16V0Z" fill="#CF142B"/>
<path d="M6.58473 2.76147H9.59529V5.62121C9.70955 5.6131 9.82749 5.63189 9.93996 5.6761C10.0524 5.72032 10.1564 5.78879 10.2438 5.87618C10.3312 5.96357 10.3996 6.06754 10.4439 6.18001C10.4881 6.29248 10.5069 6.41042 10.4988 6.52467H13.3585V9.53523H10.4988C10.5069 9.64949 10.4881 9.76743 10.4439 9.8799C10.3996 9.99237 10.3312 10.0963 10.2438 10.1837C10.1564 10.2711 10.0524 10.3396 9.93996 10.3838C9.82749 10.428 9.70955 10.4468 9.59529 10.4387V13.2984H6.58473V10.4387C6.47048 10.4468 6.35254 10.428 6.24007 10.3838C6.1276 10.3396 6.02363 10.2711 5.93624 10.1837C5.84885 10.0963 5.78038 9.99237 5.73616 9.8799C5.69194 9.76743 5.67316 9.64949 5.68127 9.53523H2.82153V6.52467H5.68127C5.67316 6.41042 5.69194 6.29248 5.73616 6.18001C5.78038 6.06754 5.84885 5.96357 5.93624 5.87618C6.02363 5.78879 6.1276 5.72032 6.24007 5.6761C6.35254 5.63189 6.47048 5.6131 6.58473 5.62121V2.76147Z" stroke="#CF142B" stroke-width="0.37632"/>
<path d="M9.57766 5.62269C9.69432 5.61154 9.81548 5.62869 9.93125 5.67274C10.047 5.7168 10.1541 5.78652 10.2438 5.87619C10.3335 5.96587 10.4032 6.07297 10.4472 6.18874C10.4913 6.30451 10.5085 6.42567 10.4973 6.54233V9.51761C10.5085 9.63426 10.4913 9.75542 10.4472 9.87119C10.4032 9.98696 10.3335 10.0941 10.2438 10.1837C10.1541 10.2734 10.047 10.3431 9.93125 10.3872C9.81548 10.4312 9.69432 10.4484 9.57766 10.4372H6.60238C6.48573 10.4484 6.36457 10.4312 6.2488 10.3872C6.13303 10.3431 6.02593 10.2734 5.93625 10.1837C5.84657 10.0941 5.77686 9.98696 5.7328 9.87119C5.68875 9.75542 5.6716 9.63426 5.68275 9.51761V6.54233C5.6716 6.42567 5.68875 6.30451 5.7328 6.18874C5.77686 6.07297 5.84657 5.96587 5.93625 5.87619C6.02593 5.78652 6.13303 5.7168 6.2488 5.67274C6.36457 5.62869 6.48573 5.61154 6.60238 5.62269H9.57766Z" fill="white"/>
<path d="M6.60231 2.77917H9.57759V13.2809H6.60231V2.77917ZM2.83911 6.54237H13.3408V9.51765H2.83911V6.54237Z" fill="white" stroke="black" stroke-width="0.03528"/>
<path d="M6.77297 2.94971H9.40721V13.1103H6.77297V2.94971ZM3.00977 6.71291H13.1704V9.34715H3.00977V6.71291Z" fill="white" stroke="black" stroke-width="0.07056"/>
<path d="M8.09004 10.382C9.38901 10.382 10.442 9.32895 10.442 8.02998C10.442 6.731 9.38901 5.67798 8.09004 5.67798C6.79106 5.67798 5.73804 6.731 5.73804 8.02998C5.73804 9.32895 6.79106 10.382 8.09004 10.382Z" fill="white" stroke="black" stroke-width="0.07056"/>
<path d="M8.08997 9.77051C9.05121 9.77051 9.83045 8.99127 9.83045 8.03003C9.83045 7.06879 9.05121 6.28955 8.08997 6.28955C7.12873 6.28955 6.34949 7.06879 6.34949 8.03003C6.34949 8.99127 7.12873 9.77051 8.08997 9.77051Z" fill="white" stroke="black" stroke-width="0.07056"/>
<path d="M10.3568 6.14469C10.2752 6.20717 10.1201 6.36666 10.026 6.48353L9.93856 6.42914C10.0584 6.3255 10.2245 6.17189 10.3164 6.06237L10.3568 6.14469ZM10.2825 6.00872C10.1348 6.05208 9.85257 6.13514 9.73203 6.21158L9.70557 6.17336C9.75628 6.10059 9.81361 5.80145 9.81141 5.71619L9.90328 5.73677C9.87315 5.81027 9.84375 5.96756 9.83566 6.06972C9.93048 6.05282 10.1554 5.97932 10.2193 5.93301L10.2825 6.00872Z" fill="white" stroke="black" stroke-width="0.03528" stroke-linejoin="round"/>
<path d="M10.4719 6.34544H10.3554C10.3658 6.28389 10.3491 6.20679 10.3079 6.12664C10.2667 6.0465 10.2036 5.968 10.1286 5.90386C10.0536 5.83972 9.97125 5.79371 9.89483 5.77327C9.81841 5.75284 9.75243 5.75918 9.70756 5.79127C9.6627 5.82336 9.64158 5.87931 9.64764 5.95007C9.65369 6.02083 9.68657 6.10225 9.74093 6.18112C9.79529 6.26 9.86796 6.33172 9.94716 6.38467C10.0264 6.43761 10.1074 6.46867 10.1773 6.47282L10.2597 6.37455L10.3612 6.47605L10.2476 6.58953C10.1417 6.57379 10.0375 6.53575 9.94201 6.47798C9.84652 6.4202 9.76199 6.34405 9.69412 6.25466C9.62625 6.16526 9.57662 6.06471 9.5486 5.9598C9.52057 5.85489 9.51479 5.74806 9.53166 5.64653C9.63181 5.62989 9.73714 5.63528 9.84071 5.66235C9.94428 5.68941 10.0437 5.73754 10.1326 5.80356C10.2214 5.86958 10.2976 5.95199 10.356 6.04539C10.4145 6.13879 10.454 6.24105 10.4719 6.34544Z" fill="white" stroke="black" stroke-width="0.03528" stroke-linejoin="round"/>
<path d="M9.9753 10.2967C9.91283 10.2151 9.75333 10.06 9.63647 9.96597L9.69086 9.8785C9.79449 9.99831 9.94811 10.1644 10.0576 10.2563L9.9753 10.2967ZM10.1113 10.2225C10.0679 10.0747 9.98486 9.79251 9.90842 9.67197L9.94664 9.64551C10.0194 9.69622 10.3185 9.75355 10.4038 9.75135L10.3832 9.84322C10.3097 9.81309 10.1524 9.78369 10.0503 9.7756C10.0672 9.87042 10.1407 10.0953 10.187 10.1593L10.1113 10.2225Z" fill="white" stroke="black" stroke-width="0.03528" stroke-linejoin="round"/>
<path d="M9.77455 10.412V10.2954C9.83611 10.3059 9.9132 10.2891 9.99335 10.248C10.0735 10.2068 10.152 10.1436 10.2161 10.0687C10.2803 9.99368 10.3263 9.91131 10.3467 9.83489C10.3672 9.75848 10.3608 9.69249 10.3287 9.64762C10.2966 9.60276 10.2407 9.58164 10.1699 9.5877C10.0992 9.59376 10.0177 9.62663 9.93887 9.68099C9.85999 9.73535 9.78827 9.80802 9.73533 9.88722C9.68239 9.96642 9.65133 10.0475 9.64718 10.1173L9.74545 10.1997L9.64394 10.3012L9.53046 10.1877C9.5462 10.0818 9.58425 9.97756 9.64202 9.88207C9.69979 9.78659 9.77595 9.70205 9.86534 9.63418C9.95473 9.56631 10.0553 9.51669 10.1602 9.48866C10.2651 9.46063 10.3719 9.45486 10.4735 9.47172C10.4901 9.57188 10.4847 9.6772 10.4576 9.78077C10.4306 9.88434 10.3825 9.98381 10.3164 10.0726C10.2504 10.1615 10.168 10.2376 10.0746 10.2961C9.98121 10.3546 9.87895 10.3941 9.77455 10.412Z" fill="white" stroke="black" stroke-width="0.03528" stroke-linejoin="round"/>
<path d="M5.82328 9.91524C5.90486 9.85277 6.05995 9.69327 6.15403 9.57641L6.24149 9.6308C6.12169 9.73444 5.95558 9.88805 5.8637 9.99757L5.82328 9.91524ZM5.89751 10.0512C6.04525 10.0079 6.32749 9.9248 6.44803 9.84836L6.47449 9.88658C6.42377 9.95934 6.36644 10.2585 6.36865 10.3438L6.27677 10.3232C6.30691 10.2497 6.33631 10.0924 6.34439 9.99022C6.24958 10.0071 6.02467 10.0806 5.96072 10.1269L5.89751 10.0512Z" fill="white" stroke="black" stroke-width="0.03528" stroke-linejoin="round"/>
<path d="M5.70799 9.7145H5.82456C5.81414 9.77605 5.83086 9.85315 5.87202 9.93329C5.91318 10.0134 5.97637 10.0919 6.05134 10.1561C6.12632 10.2202 6.20869 10.2662 6.2851 10.2867C6.36152 10.3071 6.42751 10.3008 6.47237 10.2687C6.51724 10.2366 6.53835 10.1806 6.5323 10.1099C6.52624 10.0391 6.49337 9.95769 6.439 9.87881C6.38464 9.79993 6.31197 9.72821 6.23277 9.67527C6.15358 9.62233 6.07249 9.59127 6.00265 9.58712L5.92025 9.68539L5.81875 9.58389L5.93231 9.4704C6.03821 9.48615 6.14243 9.52419 6.23792 9.58196C6.33341 9.63973 6.41794 9.71589 6.48581 9.80528C6.55368 9.89467 6.60331 9.99522 6.63134 10.1001C6.65936 10.205 6.66514 10.3119 6.64827 10.4134C6.54812 10.43 6.44279 10.4247 6.33922 10.3976C6.23565 10.3705 6.13618 10.3224 6.04736 10.2564C5.95854 10.1904 5.88238 10.1079 5.82389 10.0145C5.76539 9.92115 5.72589 9.81889 5.70799 9.7145Z" fill="white" stroke="black" stroke-width="0.03528" stroke-linejoin="round"/>
<path d="M6.20487 5.76334C6.26735 5.84493 6.42684 6.00001 6.54371 6.09409L6.48932 6.18156C6.38568 6.06175 6.23207 5.89564 6.12255 5.80377L6.20487 5.76334ZM6.0689 5.83758C6.11226 5.98531 6.19532 6.26755 6.27176 6.38809L6.23354 6.41455C6.16077 6.36384 5.86163 6.30651 5.77637 6.30871L5.79695 6.21684C5.87045 6.24697 6.02774 6.27637 6.1299 6.28446C6.113 6.18964 6.0395 5.96473 5.99319 5.90079L6.0689 5.83758Z" fill="white" stroke="black" stroke-width="0.03528" stroke-linejoin="round"/>
<path d="M6.4055 5.64805V5.76462C6.34395 5.7542 6.26685 5.77092 6.1867 5.81208C6.10656 5.85325 6.02805 5.91643 5.96392 5.99141C5.89978 6.06638 5.85377 6.14875 5.83333 6.22517C5.8129 6.30158 5.81924 6.36757 5.85133 6.41243C5.88341 6.4573 5.93937 6.47842 6.01013 6.47236C6.08089 6.4663 6.1623 6.43343 6.24118 6.37907C6.32006 6.3247 6.39178 6.25204 6.44472 6.17284C6.49767 6.09364 6.52873 6.01255 6.53287 5.94271L6.43461 5.86032L6.53611 5.75881L6.64959 5.87237C6.63385 5.97828 6.59581 6.0825 6.53803 6.17798C6.48026 6.27347 6.40411 6.35801 6.31471 6.42588C6.22532 6.49375 6.12477 6.54337 6.01986 6.5714C5.91495 6.59943 5.80812 6.6052 5.70659 6.58834C5.68995 6.48818 5.69534 6.38285 5.7224 6.27929C5.74947 6.17572 5.79759 6.07625 5.86361 5.98743C5.92963 5.89861 6.01205 5.82244 6.10545 5.76395C6.19885 5.70546 6.30111 5.66596 6.4055 5.64805Z" fill="white" stroke="black" stroke-width="0.03528" stroke-linejoin="round"/>
<path d="M6.22236 9.34562C6.16944 9.25301 6.09962 9.13468 6.0614 9.10381C6.08492 9.08764 6.11652 9.06412 6.13269 9.05971C6.13196 9.11851 6.22089 9.24052 6.22089 9.24052L6.35172 9.15452C6.31497 9.09793 6.28263 9.05456 6.25617 9.03766C6.28851 9.01414 6.32306 8.99429 6.33261 8.99209C6.33335 9.02075 6.35025 9.06853 6.40023 9.12733C6.40023 9.12733 6.52224 9.06265 6.56193 9.01267L6.61338 9.09646C6.55605 9.10748 6.2988 9.26771 6.22236 9.34562ZM6.04082 8.23063C5.90337 8.25562 5.83355 8.37248 5.85707 8.50405C5.88059 8.63708 5.99966 8.72822 6.13049 8.70617C6.26132 8.68339 6.33555 8.56285 6.31056 8.4232C6.28557 8.28355 6.17826 8.20564 6.04082 8.23063ZM6.06066 8.31001C6.17091 8.29016 6.26352 8.34382 6.27896 8.42908C6.29439 8.51434 6.22604 8.59886 6.11505 8.61871C6.00407 8.63855 5.91587 8.56799 5.90337 8.4967C5.89014 8.42393 5.94968 8.32985 6.06066 8.31001ZM6.32967 7.50151C6.2841 7.57354 6.18341 7.63969 6.09447 7.70069C6.08198 7.63748 6.03494 7.59706 5.98055 7.59338C5.92248 7.59044 5.86295 7.63675 5.85266 7.66762C5.83796 7.71025 5.81958 7.89326 5.81958 7.89326C5.93424 7.88444 6.18488 7.90429 6.27087 7.93589L6.28116 7.83887C6.22457 7.85357 6.09668 7.82711 6.09668 7.82711L6.09962 7.78448L6.23192 7.68011C6.24882 7.66688 6.34805 7.57427 6.35099 7.50812C6.35172 7.48754 6.33408 7.49269 6.32967 7.50151ZM6.06434 7.82564C6.01215 7.82711 5.90337 7.82123 5.87324 7.808C5.885 7.7029 5.91734 7.66541 5.9732 7.67056C6.02465 7.6757 6.07904 7.7051 6.06434 7.82564ZM6.56561 6.52322C6.46565 6.53131 6.3407 6.62539 6.34364 6.70624C6.34437 6.74887 6.35907 6.80767 6.41567 6.8503C6.47153 6.89293 6.52959 6.90542 6.5759 6.8966C6.62073 6.88852 6.69497 6.82604 6.69423 6.7915C6.69423 6.75769 6.61485 6.66361 6.56487 6.66361L6.64793 6.57467C6.66924 6.62612 6.7545 6.70109 6.78611 6.71065C6.75009 6.79664 6.70526 6.88631 6.61118 6.92968C6.5171 6.97378 6.41934 6.97157 6.33041 6.88778C6.24662 6.8084 6.27896 6.65552 6.33188 6.59599C6.38994 6.53057 6.49799 6.50264 6.50019 6.45193L6.56561 6.52322ZM7.03454 6.02857L7.05218 6.36226C7.05218 6.36226 7.05879 6.48059 7.03159 6.55409L7.13523 6.48133C7.09481 6.44899 7.10289 6.34976 7.10289 6.34976L7.27047 6.26009C7.27047 6.26009 7.34985 6.31081 7.34176 6.37255L7.48435 6.31448C7.4013 6.28288 7.2984 6.21011 7.2984 6.21011L7.03454 6.02857ZM7.08819 6.1322L7.24107 6.23363L7.09186 6.31375L7.08819 6.1322ZM7.83642 5.78381C7.81731 5.8654 7.83789 6.02636 7.86802 6.16013C7.97166 6.15058 8.05104 6.14029 8.08632 6.09619L8.09588 6.20644C7.99371 6.20644 7.88125 6.2182 7.77836 6.23437C7.77982 6.08369 7.76439 5.88598 7.72176 5.80072L7.83642 5.78381ZM8.61478 5.83306C8.56701 5.90215 8.52732 6.05944 8.50674 6.19468C8.6067 6.22408 8.68461 6.24319 8.73385 6.21452L8.70225 6.3211C8.60743 6.28435 8.49792 6.25348 8.39649 6.23069C8.45235 6.09178 8.51041 5.90141 8.50233 5.80733L8.61478 5.83306ZM9.40197 6.18953L9.11091 6.35491C9.11091 6.35491 9.00801 6.41444 8.9301 6.42326L9.04108 6.48206C9.05211 6.43208 9.14472 6.3946 9.14472 6.3946L9.30054 6.50411C9.30054 6.50411 9.29025 6.59893 9.23145 6.61877L9.34684 6.7202C9.33876 6.632 9.35713 6.50632 9.35713 6.50632L9.40197 6.18953ZM9.33288 6.28361L9.31009 6.46663L9.17118 6.36887L9.33288 6.28361ZM9.55632 6.96863L9.51075 6.88264C9.58572 6.87676 9.81136 6.74446 9.915 6.67684L9.93117 6.70624L9.83415 7.14944C9.92088 7.1149 10.0583 7.04287 10.0958 7.00318L10.1473 7.10093C10.051 7.08697 9.87237 7.17517 9.73713 7.25749L9.7239 7.23397L9.80695 6.80252C9.80695 6.80252 9.58278 6.90395 9.55632 6.96863ZM10.2399 7.60955C10.2311 7.54414 10.2296 7.4993 10.198 7.4846L10.1943 7.45741L10.2744 7.44418C10.3075 7.53017 10.345 7.76978 10.3398 7.83152L10.2575 7.84475L10.2538 7.82197C10.281 7.7911 10.2538 7.67791 10.2538 7.67791C10.1318 7.6904 9.91941 7.72495 9.88927 7.76684L9.87016 7.65365C9.91353 7.66835 10.1274 7.64557 10.2399 7.60955ZM9.84517 8.58269C9.89074 8.51066 9.99291 8.44525 10.0818 8.38498C10.0943 8.44819 10.1406 8.48935 10.1958 8.49229C10.2538 8.49596 10.3134 8.45113 10.3237 8.41952C10.3391 8.37689 10.3582 8.19461 10.3582 8.19461C10.2435 8.20196 9.99364 8.18065 9.90765 8.14831L9.89663 8.24533C9.95322 8.23136 10.0811 8.25782 10.0811 8.25782L10.0782 8.30045L9.94513 8.40409C9.9275 8.41732 9.82753 8.50919 9.82386 8.57534C9.82312 8.59592 9.84076 8.59004 9.84517 8.58269ZM10.1134 8.26003C10.1656 8.25929 10.2744 8.26591 10.3045 8.27914C10.2921 8.38424 10.259 8.42173 10.2031 8.41585C10.1517 8.40997 10.098 8.38057 10.1134 8.26003ZM9.69744 8.87449L9.62908 8.99209C9.682 8.984 9.7555 9.0259 9.81504 9.06485C9.83488 9.11777 9.91279 9.25301 9.90691 9.38531L9.99511 9.2339C9.95616 9.21626 9.91059 9.19715 9.88119 9.0553C9.99732 9.01193 10.084 8.99797 10.1208 9.01855L10.1987 8.88625C10.1083 8.94064 9.89589 8.9965 9.86061 8.98474C9.82386 8.96342 9.71949 8.93108 9.69744 8.87449Z" fill="black"/>
<path d="M9.17415 9.85721C9.22489 9.85721 9.26603 9.81608 9.26603 9.76534C9.26603 9.7146 9.22489 9.67346 9.17415 9.67346C9.12341 9.67346 9.08228 9.7146 9.08228 9.76534C9.08228 9.81608 9.12341 9.85721 9.17415 9.85721Z" fill="black"/>
<path d="M7.00594 9.85721C7.05668 9.85721 7.09781 9.81608 7.09781 9.76534C7.09781 9.7146 7.05668 9.67346 7.00594 9.67346C6.9552 9.67346 6.91406 9.7146 6.91406 9.76534C6.91406 9.81608 6.9552 9.85721 7.00594 9.85721Z" fill="black"/>
<path d="M8.23336 10.2721C8.22381 10.2787 8.19808 10.2654 8.1922 10.2449C8.1922 10.2515 8.19073 10.2721 8.17824 10.2838C8.1481 10.3125 8.11576 10.2985 8.09004 10.2985C8.06431 10.2985 8.03197 10.3125 8.00184 10.2838C7.98934 10.2721 7.98787 10.2515 7.98787 10.2449C7.98199 10.2654 7.95627 10.2787 7.94671 10.2721C7.93789 10.2654 7.9423 10.2368 7.95994 10.225C7.95406 10.2265 7.93348 10.2316 7.91878 10.2235C7.88203 10.2037 7.88571 10.1684 7.87762 10.1442C7.86954 10.1199 7.84602 10.0934 7.86439 10.056C7.87174 10.0405 7.89085 10.0324 7.89673 10.0302C7.87542 10.031 7.85557 10.0104 7.85851 10.0001C7.86219 9.98908 7.89085 9.98467 7.90776 9.9979C7.90335 9.99275 7.89306 9.97511 7.896 9.95821C7.90335 9.91705 7.93789 9.9097 7.95847 9.89426C7.97979 9.87883 7.99743 9.84869 8.03859 9.85457C8.05549 9.85678 8.06872 9.87221 8.07313 9.87736C8.06578 9.85751 8.07901 9.83179 8.09004 9.83179C8.10106 9.83179 8.11429 9.85751 8.10694 9.87736C8.11135 9.87221 8.12458 9.85678 8.14149 9.85457C8.18265 9.84869 8.20029 9.87883 8.2216 9.89426C8.24218 9.9097 8.27673 9.91705 8.28408 9.95821C8.28702 9.97511 8.27673 9.99275 8.27232 9.9979C8.28922 9.98467 8.31789 9.98908 8.32156 10.0001C8.3245 10.0104 8.30466 10.031 8.28334 10.0302C8.28922 10.0324 8.30833 10.0405 8.31568 10.056C8.33406 10.0934 8.31054 10.1199 8.30245 10.1442C8.29437 10.1684 8.29804 10.2037 8.26129 10.2235C8.24659 10.2316 8.22601 10.2265 8.22013 10.225C8.23777 10.2368 8.24218 10.2654 8.23336 10.2721ZM8.02168 10.1692C8.03344 10.178 8.00184 10.2044 8.01433 10.2375C8.0283 10.2765 8.06725 10.2647 8.09004 10.2647C8.11282 10.2647 8.15178 10.2765 8.16574 10.2375C8.17824 10.2044 8.14663 10.178 8.15839 10.1692C8.17015 10.1603 8.18632 10.1986 8.22087 10.1978C8.26276 10.1956 8.2635 10.1559 8.27011 10.1339C8.27746 10.1118 8.30098 10.0787 8.26791 10.053C8.24071 10.031 8.2047 10.053 8.20029 10.0391C8.19588 10.0251 8.23704 10.0222 8.24733 9.98834C8.25835 9.94792 8.22013 9.93542 8.20176 9.92146C8.18265 9.90823 8.15839 9.87589 8.12385 9.89867C8.09518 9.91852 8.10474 9.95894 8.09004 9.95894C8.07534 9.95894 8.08489 9.91852 8.05623 9.89867C8.02168 9.87589 7.99743 9.90823 7.97832 9.92146C7.95994 9.93542 7.92172 9.94792 7.93275 9.98834C7.94304 10.0222 7.9842 10.0251 7.97979 10.0391C7.97538 10.053 7.93936 10.031 7.91217 10.053C7.87909 10.0787 7.90261 10.1118 7.90996 10.1339C7.91658 10.1559 7.91731 10.1956 7.95921 10.1978C7.99375 10.1986 8.00992 10.1603 8.02168 10.1692Z" fill="black"/>
<path d="M8.09018 10.2213C8.08356 10.2213 8.07548 10.2059 8.07989 10.1934C8.07768 10.1971 8.0696 10.2059 8.05931 10.2074C8.03432 10.211 8.02403 10.1927 8.01153 10.1838C7.99904 10.1743 7.97846 10.1699 7.97405 10.1456C7.97184 10.1353 7.97846 10.1243 7.98066 10.1214C7.97037 10.1295 7.95347 10.1265 7.95126 10.1199C7.94906 10.114 7.96155 10.1015 7.97405 10.1015C7.97037 10.1008 7.95935 10.0956 7.95494 10.0868C7.94391 10.064 7.95788 10.0486 7.96302 10.0339C7.96743 10.0192 7.96523 9.99789 7.98728 9.98613C7.9961 9.98098 8.00859 9.98392 8.01227 9.98539C8.00124 9.97804 7.99904 9.96114 8.00418 9.95673C8.01006 9.95305 8.0255 9.96114 8.02917 9.9729C8.02917 9.96922 8.02991 9.95673 8.03726 9.95011C8.05563 9.93247 8.07474 9.94129 8.09018 9.94129C8.10561 9.94129 8.12472 9.93247 8.1431 9.95011C8.15045 9.95673 8.15118 9.96922 8.15118 9.9729C8.15486 9.96114 8.17029 9.95305 8.17617 9.95673C8.18132 9.96114 8.17911 9.97804 8.16809 9.98539C8.17176 9.98392 8.18426 9.98098 8.19308 9.98613C8.21513 9.99789 8.21292 10.0192 8.21733 10.0339C8.22248 10.0486 8.23644 10.064 8.22542 10.0868C8.22101 10.0956 8.20998 10.1008 8.20631 10.1015C8.2188 10.1015 8.2313 10.114 8.22909 10.1199C8.22689 10.1265 8.20998 10.1295 8.19969 10.1214C8.2019 10.1243 8.20851 10.1353 8.20631 10.1456C8.2019 10.1699 8.18132 10.1743 8.16882 10.1838C8.15633 10.1927 8.14604 10.211 8.12105 10.2074C8.11076 10.2059 8.10267 10.1971 8.10047 10.1934C8.10488 10.2059 8.09679 10.2213 8.09018 10.2213ZM8.09018 10.1375C8.09826 10.1375 8.09312 10.1596 8.10855 10.1699C8.12693 10.1824 8.14016 10.1655 8.15045 10.1581C8.16074 10.1508 8.18132 10.1434 8.1747 10.1221C8.16956 10.1037 8.14751 10.1023 8.14971 10.0942C8.15192 10.0868 8.17103 10.0986 8.18646 10.0868C8.2041 10.0729 8.19161 10.0552 8.18793 10.0435C8.18352 10.0317 8.18352 10.0096 8.16074 10.0089C8.14163 10.0082 8.13354 10.0288 8.12693 10.0243C8.12031 10.0199 8.13795 10.0052 8.13134 9.9876C8.12325 9.96628 8.10267 9.9729 8.09018 9.9729C8.07768 9.9729 8.0571 9.96628 8.04902 9.9876C8.0424 10.0052 8.06004 10.0199 8.05343 10.0243C8.04681 10.0288 8.03873 10.0082 8.01962 10.0089C7.99683 10.0096 7.99683 10.0317 7.99242 10.0435C7.98875 10.0552 7.97625 10.0729 7.99389 10.0868C8.00933 10.0986 8.02844 10.0868 8.03064 10.0942C8.03285 10.1023 8.0108 10.1037 8.00565 10.1221C7.99904 10.1434 8.01962 10.1508 8.02991 10.1581C8.0402 10.1655 8.05343 10.1824 8.0718 10.1699C8.08724 10.1596 8.08209 10.1375 8.09018 10.1375Z" fill="black"/>
<path d="M8.09009 10.1104C8.10957 10.1104 8.12537 10.0946 8.12537 10.0751C8.12537 10.0556 8.10957 10.0398 8.09009 10.0398C8.0706 10.0398 8.05481 10.0556 8.05481 10.0751C8.05481 10.0946 8.0706 10.1104 8.09009 10.1104Z" fill="black"/>
<path d="M6.8949 9.29C7.69456 9.25734 8.49523 9.25734 9.2949 9.29" stroke="black" stroke-width="0.035" stroke-linecap="round" stroke-linejoin="round"/>
<path d="M7.99988 7.16504L8.06488 7.24004M8.16488 8.20004C8.16154 8.26671 8.16488 8.32004 8.17488 8.36004M8.01488 8.21004C8.03488 8.23504 8.06488 8.32504 8.06488 8.36004" stroke="black" stroke-width="0.02" stroke-linecap="round" stroke-linejoin="round"/>
<path d="M8.50986 9.28006C8.47986 9.29006 8.42986 9.32006 8.42986 9.34506C8.42986 9.37006 8.48986 9.37506 8.50986 9.38006C8.47486 9.39006 8.37486 9.41006 8.32986 9.39006C8.29986 9.40506 8.06986 9.35506 8.01986 9.35506C7.98986 9.35506 7.94986 9.32506 7.95486 9.27006C7.95486 9.26006 7.96486 9.23006 7.98986 9.22006C7.97486 9.19006 8.04486 9.14506 8.11486 9.10006C8.01486 9.11506 7.87986 9.07506 7.84486 9.03506C7.76486 9.00506 7.72986 9.03506 7.69486 9.10506C7.69486 9.22506 7.62986 9.28506 7.54486 9.27506C7.49486 9.26506 7.47986 9.29006 7.46486 9.30006L7.62986 9.35006C7.73986 9.45006 7.67986 9.53006 7.65486 9.55006C7.62986 9.57006 7.56986 9.55506 7.53486 9.55506C7.49486 9.55506 7.49486 9.57006 7.48486 9.57506C7.45152 9.59173 7.42986 9.59506 7.41986 9.58506C7.41986 9.57006 7.43486 9.50006 7.47986 9.49006C7.50486 9.49006 7.55486 9.47506 7.55486 9.45006C7.55486 9.42506 7.46486 9.43006 7.39486 9.40506C7.33986 9.38506 7.31986 9.35506 7.33986 9.26006C7.35486 9.16006 7.47486 9.14506 7.53486 9.14506C7.52486 9.10506 7.53486 9.03006 7.58486 8.98006C7.66486 8.90506 7.78486 8.93006 7.88986 8.94006C7.94986 8.90506 8.05986 8.85506 8.16986 8.85006C8.26986 8.85006 8.69986 8.73506 8.89486 8.76006C8.84486 8.69506 8.85986 8.54006 8.93986 8.49506C9.03986 8.43506 9.14986 8.59506 9.17986 8.56506C9.20986 8.53506 9.14485 8.49506 9.06985 8.41506C9.04985 8.38506 9.05486 8.38506 9.05486 8.37506C9.05486 8.34839 9.05985 8.32839 9.06985 8.31506C9.07985 8.31006 9.13986 8.33006 9.15486 8.35506C9.17819 8.38839 9.19985 8.39673 9.21985 8.38006C9.24485 8.36006 9.20985 8.37006 9.19485 8.33006C9.18985 8.30506 9.16986 8.28506 9.17486 8.26506C9.20741 8.23091 9.24652 8.2037 9.28986 8.18506C9.30652 8.20839 9.32152 8.23006 9.33486 8.25006C9.36986 8.30506 9.40486 8.29006 9.42986 8.33006C9.42986 8.35006 9.43819 8.37839 9.45486 8.41506C9.49693 8.48897 9.55716 8.55092 9.62986 8.59506C9.64652 8.60506 9.65652 8.61673 9.65986 8.63006C9.65986 8.65339 9.65319 8.67006 9.63986 8.68006C9.62986 8.69006 9.58986 8.69006 9.55986 8.67506C9.51319 8.64839 9.47819 8.63673 9.45486 8.64006C9.38486 8.65006 9.33986 8.76006 9.23986 8.76006C9.14986 8.75006 9.08986 8.61506 9.03486 8.65506C8.97986 8.69506 9.15986 8.80506 9.13486 8.85506C9.15486 8.86506 9.17985 8.90506 9.16985 8.94006C9.20983 8.93199 9.24773 8.91586 9.28126 8.89265C9.31479 8.86944 9.34323 8.83963 9.36486 8.80506C9.41486 8.73839 9.45152 8.70173 9.47486 8.69506C9.50486 8.68006 9.53986 8.69506 9.53986 8.72006L9.58486 8.73506C9.60486 8.75173 9.60819 8.76839 9.59486 8.78506L9.56486 8.76506C9.54819 8.76506 9.52819 8.77506 9.50486 8.79506C9.48819 8.82173 9.46819 8.85006 9.44485 8.88006L9.34486 8.99006C9.35486 9.01673 9.35819 9.04173 9.35486 9.06506C9.36486 9.06506 9.37652 9.06839 9.38986 9.07506C9.39652 9.07839 9.39652 9.09006 9.38986 9.11006C9.38986 9.13506 9.28986 9.24506 9.26985 9.24006C9.22985 9.24006 9.19986 9.19006 9.20486 9.17506C9.15986 9.19506 9.13986 9.14506 9.13986 9.12506C9.10833 9.15687 9.07098 9.18233 9.02986 9.20006C9.00986 9.21006 8.99652 9.20339 8.98986 9.18006C8.98486 9.20006 8.92486 9.22006 8.90986 9.22506C8.83486 9.24006 8.75486 9.27506 8.67986 9.27506L8.48986 9.27006L8.50986 9.28006Z" fill="white" stroke="black" stroke-width="0.025" stroke-linecap="round" stroke-linejoin="round"/>
<path d="M8.77491 8.57001C8.77491 8.60001 8.72991 8.67001 8.79491 8.73001C8.83491 8.76001 8.89991 8.78501 8.91991 8.83001C8.93991 8.86501 8.91491 8.89501 8.90491 8.89501C8.86491 8.88501 8.80991 8.95501 8.78991 9.00501C8.76991 8.93501 8.72491 8.95501 8.66491 8.96501C8.67491 8.88835 8.63158 8.84501 8.53491 8.83501C8.54991 8.82001 8.52491 8.80001 8.50491 8.78001C8.48491 8.76001 8.41491 8.77501 8.40491 8.76001C8.40491 8.74501 8.43991 8.71001 8.41991 8.68501C8.39991 8.65001 8.31991 8.67001 8.28991 8.66001C8.29991 8.62668 8.29658 8.59334 8.27991 8.56001C8.25491 8.51001 8.16991 8.53501 8.12491 8.52501C8.16158 8.49834 8.17158 8.46334 8.15491 8.42001C8.13491 8.37001 8.03491 8.42501 8.03491 8.37001C8.03991 8.34501 8.15491 8.33001 8.19991 8.32501C8.24491 8.32001 8.38491 8.36001 8.52491 8.39001C8.55491 8.42001 8.77491 8.48501 8.77491 8.57001Z" fill="white" stroke="black" stroke-width="0.015" stroke-linecap="round" stroke-linejoin="round"/>
<path d="M9.13982 9.12994C9.2137 9.09197 9.28257 9.04494 9.34482 8.98994M8.06482 8.93994C8.12482 8.93994 8.25982 8.95994 8.29982 9.00994C8.33482 9.05994 8.35982 9.14494 8.09482 9.20994C8.17482 9.20994 8.29482 9.19494 8.33482 9.20494C8.37482 9.19494 8.45982 9.16994 8.49482 9.17994C8.47982 9.18494 8.43482 9.19994 8.43482 9.22994C8.43482 9.24661 8.45315 9.25994 8.48982 9.26994M8.74482 9.08994C8.83982 9.10994 8.97482 9.07994 8.99482 9.17994" stroke="black" stroke-width="0.025" stroke-linecap="round" stroke-linejoin="round"/>
<path d="M9.05994 8.33997C9.08494 8.36997 9.15994 8.41497 9.19494 8.43997C9.24494 8.47997 9.26494 8.43497 9.22994 8.36997" stroke="black" stroke-width="0.02" stroke-linecap="round" stroke-linejoin="round"/>
<path d="M8.40488 8.75997C8.50508 8.7379 8.60728 8.72617 8.70988 8.72497M8.28988 8.65997C8.43988 8.61997 8.59988 8.63497 8.69988 8.63497M8.67488 8.95497L8.80488 8.82997M8.53488 8.82997C8.58488 8.81497 8.66488 8.77997 8.73488 8.76997M8.52488 8.38997C8.60488 8.31497 8.69488 8.32497 8.78488 8.27997C8.83488 8.24997 8.88488 8.17997 8.93488 8.12497C8.95488 8.10163 8.98821 8.08997 9.03488 8.08997C9.10821 8.09997 9.10654 8.11163 9.02988 8.12497C8.96988 8.13497 8.96488 8.15997 8.94488 8.20497C8.92488 8.24497 8.94488 8.28997 8.95488 8.31997L8.91488 8.42997C8.91488 8.4433 8.92321 8.46163 8.93988 8.48497M8.12488 8.52497C8.32488 8.47997 8.62488 8.55997 8.67988 8.55997" stroke="black" stroke-width="0.015" stroke-linecap="round" stroke-linejoin="round"/>
<path d="M9.38483 8.84997C9.44983 8.81497 9.44983 8.74997 9.53483 8.71997M9.20483 9.17497C9.28983 9.13497 9.30483 9.09997 9.35483 9.06497M9.41483 8.52997C9.37483 8.53997 9.36483 8.50497 9.32983 8.49997C9.28483 8.48997 9.25983 8.51997 9.25983 8.54497C9.25983 8.56997 9.28483 8.59497 9.30983 8.59497C9.33483 8.59497 9.35983 8.57997 9.41483 8.58497M9.22483 8.22497C9.25817 8.23163 9.2865 8.2283 9.30983 8.21497M9.39983 8.37997C9.3865 8.37997 9.37317 8.37497 9.35983 8.36497C9.3465 8.34497 9.34483 8.33163 9.35483 8.32497C9.35817 8.31497 9.36983 8.3183 9.38983 8.33497C9.41983 8.35997 9.40483 8.36997 9.39983 8.37997Z" stroke="black" stroke-width="0.01" stroke-linecap="round" stroke-linejoin="round"/>
<path d="M8.13489 7.53493C8.1328 7.53396 8.13069 7.53198 8.12882 7.52921C8.12694 7.52644 8.12539 7.52301 8.12433 7.51932C8.12328 7.51563 8.12277 7.51184 8.12287 7.5084C8.12297 7.50496 8.12367 7.50202 8.12489 7.49993C8.12282 7.49906 8.12072 7.49716 8.11886 7.49444C8.11699 7.49173 8.11544 7.48832 8.11439 7.48462C8.11333 7.48093 8.11282 7.4771 8.11291 7.47361C8.113 7.47012 8.11369 7.4671 8.11489 7.46493C8.11283 7.46417 8.11075 7.46235 8.10889 7.45969C8.10703 7.45703 8.10547 7.45364 8.10442 7.44994C8.10336 7.44624 8.10284 7.44237 8.10292 7.43882C8.10301 7.43527 8.10369 7.43218 8.10489 7.42993C8.10301 7.42825 8.10127 7.42573 8.09986 7.42264C8.09846 7.41955 8.09744 7.41601 8.09693 7.4124C8.09641 7.40879 8.09642 7.40525 8.09694 7.40217C8.09746 7.39909 8.09848 7.39658 8.09989 7.39493C8.09785 7.39455 8.09576 7.39301 8.09388 7.39053C8.09201 7.38804 8.09044 7.38471 8.08936 7.38097C8.08829 7.37722 8.08777 7.37322 8.08787 7.36947C8.08796 7.36572 8.08867 7.3624 8.08989 7.35993C8.08806 7.35848 8.08637 7.35616 8.08501 7.35322C8.08364 7.35027 8.08264 7.34682 8.08213 7.34322C8.08161 7.33962 8.0816 7.33601 8.08209 7.33279C8.08257 7.32957 8.08354 7.32685 8.08489 7.32493C8.08358 7.3251 8.08222 7.32475 8.08088 7.32391C8.07954 7.32306 8.07826 7.32174 8.0771 7.32C8.07475 7.3165 8.07306 7.31155 8.0724 7.30624C8.07174 7.30094 8.07216 7.29571 8.07356 7.29172C8.07497 7.28772 8.07724 7.28528 8.07989 7.28493C8.07808 7.28376 8.07639 7.28166 8.07503 7.27886C8.07366 7.27607 8.07267 7.27268 8.07215 7.26906C8.07163 7.26545 8.07162 7.26176 8.0721 7.25838C8.07258 7.25501 8.07355 7.25208 8.07489 7.24993C8.07306 7.24897 8.07136 7.24704 8.06997 7.24435C8.06859 7.24165 8.06758 7.2383 8.06706 7.23466C8.06654 7.23103 8.06653 7.22726 8.06703 7.22377C8.06753 7.22029 8.06852 7.21722 8.06989 7.21493C8.06724 7.21479 8.06469 7.21255 8.06282 7.2087C8.06094 7.20485 8.05988 7.19971 8.05988 7.1944C8.05988 7.1891 8.06094 7.18407 8.06282 7.18042C8.06469 7.17676 8.06724 7.17479 8.06989 7.17493C8.06796 7.1745 8.06615 7.17296 8.06468 7.17049C8.06321 7.16801 8.06215 7.16472 8.06161 7.161C8.06108 7.15729 8.06111 7.15331 8.06169 7.14957C8.06228 7.14583 8.06339 7.14248 8.06489 7.13993C8.06356 7.1402 8.06224 7.13996 8.06101 7.1392C8.05978 7.13845 8.05866 7.13721 8.05772 7.13555C8.05582 7.13219 8.05475 7.12732 8.05475 7.12202C8.05475 7.11671 8.05582 7.1114 8.05772 7.10726C8.05962 7.10312 8.0622 7.10048 8.06489 7.09993C8.06215 7.10075 8.05953 7.09944 8.05759 7.09627C8.05565 7.09311 8.05457 7.08835 8.05457 7.08305C8.05457 7.07774 8.05565 7.07233 8.05759 7.06799C8.05953 7.06366 8.06215 7.06075 8.06489 7.05993C8.06353 7.05809 8.06255 7.05544 8.06205 7.05227C8.06156 7.04909 8.06157 7.04551 8.06208 7.04191C8.0626 7.03831 8.0636 7.03483 8.06497 7.03184C8.06635 7.02884 8.06805 7.02645 8.06989 7.02493C8.0673 7.02398 8.06534 7.02096 8.06445 7.01654C8.06355 7.01212 8.0638 7.00666 8.06512 7.00135C8.06645 6.99605 8.06875 6.99134 8.07152 6.98826C8.07429 6.98518 8.0773 6.98398 8.07989 6.98493C8.07831 6.98369 8.07714 6.9815 8.07651 6.97861C8.07588 6.97571 8.07583 6.97223 8.07635 6.96857C8.07688 6.96491 8.07796 6.96122 8.07947 6.95792C8.08098 6.95462 8.08286 6.95185 8.08489 6.94993C8.08201 6.94994 8.07977 6.94784 8.07867 6.94409C8.07757 6.94035 8.0777 6.93526 8.07902 6.92996C8.08035 6.92465 8.08277 6.91956 8.08574 6.91581C8.08872 6.91205 8.09201 6.90994 8.09489 6.90993C8.09356 6.90792 8.09295 6.90488 8.09316 6.90123C8.09337 6.89758 8.09438 6.89352 8.09604 6.88963C8.09771 6.88574 8.09995 6.88222 8.10244 6.87957C8.10493 6.87693 8.10754 6.87531 8.10989 6.87493C8.10831 6.87336 8.10748 6.87066 8.10754 6.86723C8.1076 6.8638 8.10855 6.85982 8.11023 6.85589C8.11192 6.85196 8.11425 6.84828 8.1169 6.84541C8.11954 6.84253 8.12234 6.84061 8.12489 6.83993C8.1228 6.83897 8.12154 6.83668 8.12132 6.83343C8.1211 6.83019 8.12194 6.82618 8.1237 6.82208C8.12546 6.81799 8.12802 6.81405 8.13097 6.81092C8.13392 6.8078 8.13707 6.80569 8.13989 6.80493C8.13762 6.8032 8.13675 6.79971 8.13749 6.79521C8.13823 6.79071 8.1405 6.78557 8.14382 6.78093C8.14713 6.77629 8.15121 6.77252 8.15517 6.77046C8.15912 6.7684 8.16262 6.7682 8.16489 6.76993C8.16214 6.76878 8.16083 6.76584 8.16123 6.76174C8.16163 6.75765 8.16371 6.75274 8.16703 6.7481C8.17034 6.74346 8.17462 6.73946 8.1789 6.73699C8.18319 6.73452 8.18714 6.73378 8.18989 6.73493C8.18812 6.73333 8.18759 6.73056 8.18841 6.72712C8.18923 6.72368 8.19134 6.7198 8.19436 6.71618C8.19738 6.71256 8.20111 6.70943 8.20487 6.70737C8.20864 6.7053 8.21219 6.70444 8.21489 6.70493C8.21156 6.70382 8.20995 6.70091 8.2104 6.69684C8.21086 6.69277 8.21335 6.68788 8.21733 6.68324C8.22131 6.6786 8.22645 6.67459 8.23162 6.67209C8.23679 6.6696 8.24156 6.66882 8.24489 6.66993" fill="white"/>
<path d="M8.13489 7.53493C8.1328 7.53396 8.13069 7.53198 8.12882 7.52921C8.12694 7.52644 8.12539 7.52301 8.12433 7.51932C8.12328 7.51563 8.12277 7.51184 8.12287 7.5084C8.12297 7.50496 8.12367 7.50202 8.12489 7.49993C8.12282 7.49906 8.12072 7.49716 8.11886 7.49444C8.11699 7.49173 8.11544 7.48832 8.11439 7.48462C8.11333 7.48093 8.11282 7.4771 8.11291 7.47361C8.113 7.47012 8.11369 7.4671 8.11489 7.46493C8.11283 7.46417 8.11075 7.46235 8.10889 7.45969C8.10703 7.45703 8.10547 7.45364 8.10442 7.44994C8.10336 7.44624 8.10284 7.44237 8.10292 7.43882C8.10301 7.43527 8.10369 7.43218 8.10489 7.42993C8.10301 7.42825 8.10127 7.42573 8.09986 7.42264C8.09846 7.41955 8.09744 7.41601 8.09693 7.4124C8.09641 7.40879 8.09642 7.40525 8.09694 7.40217C8.09746 7.39909 8.09848 7.39658 8.09989 7.39493C8.09785 7.39455 8.09576 7.39301 8.09388 7.39053C8.09201 7.38804 8.09044 7.38471 8.08936 7.38097C8.08829 7.37722 8.08777 7.37322 8.08787 7.36947C8.08796 7.36572 8.08867 7.3624 8.08989 7.35993C8.08806 7.35848 8.08637 7.35616 8.08501 7.35322C8.08364 7.35027 8.08264 7.34682 8.08213 7.34322C8.08161 7.33962 8.0816 7.33601 8.08209 7.33279C8.08257 7.32957 8.08354 7.32685 8.08489 7.32493C8.08358 7.3251 8.08222 7.32475 8.08088 7.32391C8.07954 7.32306 8.07826 7.32174 8.0771 7.32C8.07475 7.3165 8.07306 7.31155 8.0724 7.30624C8.07174 7.30094 8.07216 7.29571 8.07356 7.29172C8.07497 7.28772 8.07724 7.28528 8.07989 7.28493C8.07808 7.28376 8.07639 7.28166 8.07503 7.27886C8.07366 7.27607 8.07267 7.27268 8.07215 7.26906C8.07163 7.26545 8.07162 7.26176 8.0721 7.25838C8.07258 7.25501 8.07355 7.25208 8.07489 7.24993C8.07306 7.24897 8.07136 7.24704 8.06997 7.24435C8.06859 7.24165 8.06758 7.2383 8.06706 7.23466C8.06654 7.23103 8.06653 7.22726 8.06703 7.22377C8.06753 7.22029 8.06852 7.21722 8.06989 7.21493C8.06724 7.21479 8.06469 7.21255 8.06282 7.2087C8.06094 7.20485 8.05988 7.19971 8.05988 7.1944C8.05988 7.1891 8.06094 7.18407 8.06282 7.18042C8.06469 7.17676 8.06724 7.17479 8.06989 7.17493C8.06796 7.1745 8.06615 7.17296 8.06468 7.17049C8.06321 7.16801 8.06215 7.16472 8.06161 7.161C8.06108 7.15729 8.06111 7.15331 8.06169 7.14957C8.06228 7.14583 8.06339 7.14248 8.06489 7.13993C8.06356 7.1402 8.06224 7.13996 8.06101 7.1392C8.05978 7.13845 8.05866 7.13721 8.05772 7.13555C8.05582 7.13219 8.05475 7.12732 8.05475 7.12202C8.05475 7.11671 8.05582 7.1114 8.05772 7.10726C8.05962 7.10312 8.0622 7.10048 8.06489 7.09993C8.06215 7.10075 8.05953 7.09944 8.05759 7.09627C8.05565 7.09311 8.05457 7.08835 8.05457 7.08305C8.05457 7.07774 8.05565 7.07233 8.05759 7.06799C8.05953 7.06366 8.06215 7.06075 8.06489 7.05993C8.06353 7.05809 8.06255 7.05544 8.06205 7.05227C8.06156 7.04909 8.06157 7.04551 8.06208 7.04191C8.0626 7.03831 8.0636 7.03483 8.06497 7.03184C8.06635 7.02884 8.06805 7.02645 8.06989 7.02493C8.0673 7.02398 8.06534 7.02096 8.06445 7.01654C8.06355 7.01212 8.0638 7.00666 8.06512 7.00135C8.06645 6.99605 8.06875 6.99134 8.07152 6.98826C8.07429 6.98518 8.0773 6.98398 8.07989 6.98493C8.07831 6.98369 8.07714 6.9815 8.07651 6.97861C8.07588 6.97571 8.07583 6.97223 8.07635 6.96857C8.07688 6.96491 8.07796 6.96122 8.07947 6.95792C8.08098 6.95462 8.08286 6.95185 8.08489 6.94993C8.08201 6.94994 8.07977 6.94784 8.07867 6.94409C8.07757 6.94035 8.0777 6.93526 8.07902 6.92996C8.08035 6.92465 8.08277 6.91956 8.08574 6.91581C8.08872 6.91205 8.09201 6.90994 8.09489 6.90993C8.09356 6.90792 8.09295 6.90488 8.09316 6.90123C8.09337 6.89758 8.09438 6.89352 8.09604 6.88963C8.09771 6.88574 8.09995 6.88222 8.10244 6.87957C8.10493 6.87693 8.10754 6.87531 8.10989 6.87493C8.10831 6.87336 8.10748 6.87066 8.10754 6.86723C8.1076 6.8638 8.10855 6.85982 8.11023 6.85589C8.11192 6.85196 8.11425 6.84828 8.1169 6.84541C8.11954 6.84253 8.12234 6.84061 8.12489 6.83993C8.1228 6.83897 8.12154 6.83668 8.12132 6.83343C8.1211 6.83019 8.12194 6.82618 8.1237 6.82208C8.12546 6.81799 8.12802 6.81405 8.13097 6.81092C8.13392 6.8078 8.13707 6.80569 8.13989 6.80493C8.13762 6.8032 8.13675 6.79971 8.13749 6.79521C8.13823 6.79071 8.1405 6.78557 8.14382 6.78093C8.14713 6.77629 8.15121 6.77252 8.15517 6.77046C8.15912 6.7684 8.16262 6.7682 8.16489 6.76993C8.16214 6.76878 8.16083 6.76584 8.16123 6.76174C8.16163 6.75765 8.16371 6.75274 8.16703 6.7481C8.17034 6.74346 8.17462 6.73946 8.1789 6.73699C8.18319 6.73452 8.18714 6.73378 8.18989 6.73493C8.18812 6.73333 8.18759 6.73056 8.18841 6.72712C8.18923 6.72368 8.19134 6.7198 8.19436 6.71618C8.19738 6.71256 8.20111 6.70943 8.20487 6.70737C8.20864 6.7053 8.21219 6.70444 8.21489 6.70493C8.21156 6.70382 8.20995 6.70091 8.2104 6.69684C8.21086 6.69277 8.21335 6.68788 8.21733 6.68324C8.22131 6.6786 8.22645 6.67459 8.23162 6.67209C8.23679 6.6696 8.24156 6.66882 8.24489 6.66993" stroke="black" stroke-width="0.005" stroke-linecap="round" stroke-linejoin="round"/>
<path d="M8.17982 7.52004L8.13482 7.53504M8.16982 7.48504L8.12482 7.50004M8.16482 7.45004L8.11482 7.46504M8.15982 7.41504L8.10982 7.43004M8.15482 7.38504L8.09982 7.39504M8.14982 7.34504L8.08982 7.36004M8.13982 7.31004L8.08482 7.32504M8.13982 7.27504L8.07982 7.28504M8.13982 7.24504H8.06982M8.13982 7.21004H8.06982M8.13982 7.17504H8.06482M8.13982 7.14004H8.06482M8.14482 7.10504L8.06482 7.10004M8.14982 7.07004L8.06982 7.06004M8.15482 7.04004L8.06982 7.02504M8.16482 7.00504L8.07982 6.98504M8.17482 6.97504L8.08482 6.95004M8.18482 6.94004L8.09482 6.91004M8.19482 6.91004L8.10982 6.87504M8.20982 6.88504L8.12482 6.83504M8.22982 6.85504L8.13982 6.80504M8.24982 6.83004L8.16482 6.77004M8.26982 6.80504L8.18982 6.73504M8.29482 6.78504L8.21482 6.70504M8.31982 6.75504L8.24482 6.67004" stroke="black" stroke-width="0.005" stroke-linecap="round" stroke-linejoin="round"/>
<path d="M8.64982 7.03499L8.52482 7.04999C8.51482 7.07499 8.51482 7.14499 8.51482 7.16999C8.62982 7.28499 8.74482 7.42999 8.75482 7.56499C8.7919 7.59491 8.81966 7.63481 8.83482 7.67999C8.91982 7.63499 9.00482 7.56499 9.07482 7.54499C9.12482 7.53499 9.20482 7.52999 9.24982 7.55499L9.52982 7.72499C9.58982 7.76499 9.63315 7.80832 9.65982 7.85499C9.68482 7.89499 9.68982 7.96999 9.67982 7.98999L9.50982 7.93999C9.50315 7.91332 9.50815 7.88499 9.52482 7.85499C9.53482 7.82499 9.53482 7.82499 9.50982 7.80499C9.48982 7.79499 9.47315 7.79499 9.45982 7.80499C9.43649 7.80499 9.41649 7.79499 9.39982 7.77499C9.32948 7.72947 9.25394 7.69254 9.17482 7.66499C9.14149 7.65832 9.10482 7.66832 9.06482 7.69499C9.04482 7.72499 8.98482 7.81499 8.93982 7.85999C8.92982 7.86999 8.92815 7.88332 8.93482 7.89999L9.11482 7.90499C9.18482 7.91499 9.26482 7.98499 9.30482 8.02999C9.47982 8.18999 9.54482 8.27999 9.59982 8.32999C9.62982 8.35332 9.64649 8.38332 9.64982 8.41999H9.47982C9.47982 8.35999 9.47315 8.31332 9.45982 8.27999C9.43982 8.25499 9.40482 8.26499 9.38982 8.26499C9.37315 8.26165 9.35649 8.24499 9.33982 8.21499C9.31482 8.16499 9.22482 8.09999 9.18482 8.07499C9.14482 8.04999 9.12982 8.05999 9.08482 8.05499C9.05149 8.04499 9.00982 8.04499 8.95982 8.05499C8.91482 8.06999 8.78982 8.10999 8.67482 8.12499C8.63482 8.14499 8.50982 8.16499 8.37482 8.19499C8.27482 8.21499 8.04982 8.25499 8.00482 8.25499C7.98982 8.35999 7.87482 8.51499 7.84482 8.52999C7.81149 8.57999 7.80815 8.61332 7.83482 8.62999C7.85982 8.65499 8.02982 8.65499 8.06982 8.65499L8.21482 8.65999C8.23982 8.66499 8.27982 8.69999 8.32482 8.72499C8.35482 8.73999 8.35982 8.75999 8.37982 8.78999C8.39649 8.80999 8.40982 8.82999 8.41982 8.84999H8.21982C8.21649 8.79665 8.19982 8.76832 8.16982 8.76499C8.13982 8.78499 8.10482 8.80999 8.06482 8.79499C7.90982 8.78499 7.80982 8.79499 7.66482 8.77999C7.61982 8.77999 7.58482 8.71999 7.59982 8.66499C7.61315 8.61832 7.61315 8.57499 7.59982 8.53499C7.58482 8.54999 7.52482 8.60499 7.49482 8.64498C7.44482 8.69999 7.47482 8.75998 7.49482 8.79499C7.51982 8.81999 7.68982 8.97999 7.70982 9.02499C7.72482 9.05499 7.79482 9.10499 7.85982 9.15999C7.88315 9.20332 7.91315 9.23832 7.94982 9.26499H7.69982L7.70982 9.19999C7.70982 9.18499 7.69482 9.15499 7.65982 9.15999C7.62482 9.16499 7.59982 9.12498 7.58982 9.09499C7.57982 9.06499 7.46482 8.91499 7.42982 8.88499L7.27982 8.73999C7.25982 8.73499 7.25482 8.69999 7.27982 8.67499C7.32346 8.61763 7.35725 8.55342 7.37982 8.48499C7.39482 8.43999 7.37982 8.43499 7.36982 8.42499C7.26037 8.34438 7.1685 8.2423 7.09982 8.12499C7.03312 8.1396 6.9636 8.13439 6.89982 8.10999C6.84315 8.07665 6.79482 8.08332 6.75482 8.12999C6.73482 8.16499 6.73482 8.21999 6.76982 8.24499C6.81982 8.28832 6.87482 8.34499 6.93482 8.41499C6.98482 8.47999 6.93982 8.52999 6.86982 8.58999C6.87982 8.61499 6.86982 8.60999 6.87982 8.65499C6.90482 8.68999 6.90482 8.77499 6.87482 8.78999C6.84149 8.80665 6.80815 8.83332 6.77482 8.86999C6.73482 8.91498 6.72482 8.86999 6.73482 8.79999C6.74482 8.75499 6.70982 8.71999 6.67982 8.68499C6.64982 8.64999 6.66482 8.55499 6.67982 8.52499C6.70482 8.49499 6.71982 8.43999 6.67982 8.39499C6.63482 8.35499 6.55482 8.26499 6.56482 8.14499C6.56664 8.11498 6.57555 8.08584 6.59082 8.05995C6.60609 8.03406 6.62729 8.01216 6.65267 7.99606C6.67804 7.97995 6.70688 7.9701 6.73681 7.9673C6.76674 7.96451 6.7969 7.96886 6.82482 7.97999C6.97482 8.04499 7.05982 8.02999 7.10482 8.01999C7.14482 7.94665 7.20815 7.88332 7.29482 7.82999C7.37982 7.77999 7.54482 7.71499 7.70982 7.68999L8.11482 7.53999C8.16982 7.52999 8.16482 7.47999 8.16482 7.44999C8.11482 7.17499 8.12482 6.88499 8.34982 6.73999C8.37482 6.71499 8.36482 6.65499 8.39982 6.60999L8.46482 6.71999C8.56482 6.75499 8.73482 6.81499 8.80482 6.84999C8.83815 6.85999 8.86649 6.86832 8.88982 6.87499C8.91315 6.88165 8.92982 6.89832 8.93982 6.92499C8.94982 6.95832 8.94315 6.98332 8.91982 6.99999C8.90482 7.00499 8.82482 6.97999 8.80482 6.99999C8.80482 7.01665 8.82815 7.03332 8.87482 7.04999C8.88982 7.05999 8.85982 7.09999 8.83982 7.09999C8.82315 7.09999 8.80815 7.09499 8.79482 7.08499C8.74482 7.07499 8.69482 7.05832 8.64482 7.03499" fill="white"/>
<path d="M8.64982 7.03499L8.52482 7.04999C8.51482 7.07499 8.51482 7.14499 8.51482 7.16999C8.62982 7.28499 8.74482 7.42999 8.75482 7.56499C8.7919 7.59491 8.81966 7.63481 8.83482 7.67999C8.91982 7.63499 9.00482 7.56499 9.07482 7.54499C9.12482 7.53499 9.20482 7.52999 9.24982 7.55499L9.52982 7.72499C9.58982 7.76499 9.63315 7.80832 9.65982 7.85499C9.68482 7.89499 9.68982 7.96999 9.67982 7.98999L9.50982 7.93999C9.50315 7.91332 9.50815 7.88499 9.52482 7.85499C9.53482 7.82499 9.53482 7.82499 9.50982 7.80499C9.48982 7.79499 9.47315 7.79499 9.45982 7.80499C9.43649 7.80499 9.41649 7.79499 9.39982 7.77499C9.32948 7.72947 9.25394 7.69254 9.17482 7.66499C9.14149 7.65832 9.10482 7.66832 9.06482 7.69499C9.04482 7.72499 8.98482 7.81499 8.93982 7.85999C8.92982 7.86999 8.92815 7.88332 8.93482 7.89999L9.11482 7.90499C9.18482 7.91499 9.26482 7.98499 9.30482 8.02999C9.47982 8.18999 9.54482 8.27999 9.59982 8.32999C9.62982 8.35332 9.64649 8.38332 9.64982 8.41999H9.47982C9.47982 8.35999 9.47315 8.31332 9.45982 8.27999C9.43982 8.25499 9.40482 8.26499 9.38982 8.26499C9.37315 8.26165 9.35649 8.24499 9.33982 8.21499C9.31482 8.16499 9.22482 8.09999 9.18482 8.07499C9.14482 8.04999 9.12982 8.05999 9.08482 8.05499C9.05149 8.04499 9.00982 8.04499 8.95982 8.05499C8.91482 8.06999 8.78982 8.10999 8.67482 8.12499C8.63482 8.14499 8.50982 8.16499 8.37482 8.19499C8.27482 8.21499 8.04982 8.25499 8.00482 8.25499C7.98982 8.35999 7.87482 8.51499 7.84482 8.52999C7.81149 8.57999 7.80815 8.61332 7.83482 8.62999C7.85982 8.65499 8.02982 8.65499 8.06982 8.65499L8.21482 8.65999C8.23982 8.66499 8.27982 8.69999 8.32482 8.72499C8.35482 8.73999 8.35982 8.75999 8.37982 8.78999C8.39649 8.80999 8.40982 8.82999 8.41982 8.84999H8.21982C8.21649 8.79665 8.19982 8.76832 8.16982 8.76499C8.13982 8.78499 8.10482 8.80999 8.06482 8.79499C7.90982 8.78499 7.80982 8.79499 7.66482 8.77999C7.61982 8.77999 7.58482 8.71999 7.59982 8.66499C7.61315 8.61832 7.61315 8.57499 7.59982 8.53499C7.58482 8.54999 7.52482 8.60499 7.49482 8.64499C7.44482 8.69999 7.47482 8.75999 7.49482 8.79499C7.51982 8.81999 7.68982 8.97999 7.70982 9.02499C7.72482 9.05499 7.79482 9.10499 7.85982 9.15999C7.88315 9.20332 7.91315 9.23832 7.94982 9.26499H7.69982L7.70982 9.19999C7.70982 9.18499 7.69482 9.15499 7.65982 9.15999C7.62482 9.16499 7.59982 9.12499 7.58982 9.09499C7.57982 9.06499 7.46482 8.91499 7.42982 8.88499L7.27982 8.73999C7.25982 8.73499 7.25482 8.69999 7.27982 8.67499C7.32346 8.61763 7.35725 8.55342 7.37982 8.48499C7.39482 8.43999 7.37982 8.43499 7.36982 8.42499C7.26037 8.34438 7.1685 8.2423 7.09982 8.12499C7.03312 8.1396 6.9636 8.13439 6.89982 8.10999C6.84315 8.07665 6.79482 8.08332 6.75482 8.12999C6.73482 8.16499 6.73482 8.21999 6.76982 8.24499C6.81982 8.28832 6.87482 8.34499 6.93482 8.41499C6.98482 8.47999 6.93982 8.52999 6.86982 8.58999C6.87982 8.61499 6.86982 8.60999 6.87982 8.65499C6.90482 8.68999 6.90482 8.77499 6.87482 8.78999C6.84149 8.80665 6.80815 8.83332 6.77482 8.86999C6.73482 8.91499 6.72482 8.86999 6.73482 8.79999C6.74482 8.75499 6.70982 8.71999 6.67982 8.68499C6.64982 8.64999 6.66482 8.55499 6.67982 8.52499C6.70482 8.49499 6.71982 8.43999 6.67982 8.39499C6.63482 8.35499 6.55482 8.26499 6.56482 8.14499C6.56664 8.11498 6.57555 8.08584 6.59082 8.05995C6.60609 8.03406 6.62729 8.01216 6.65267 7.99606C6.67804 7.97995 6.70688 7.9701 6.73681 7.9673C6.76674 7.96451 6.7969 7.96886 6.82482 7.97999C6.97482 8.04499 7.05982 8.02999 7.10482 8.01999C7.14482 7.94665 7.20815 7.88332 7.29482 7.82999C7.37982 7.77999 7.54482 7.71499 7.70982 7.68999L8.11482 7.53999C8.16982 7.52999 8.16482 7.47999 8.16482 7.44999C8.11482 7.17499 8.12482 6.88499 8.34982 6.73999C8.37482 6.71499 8.36482 6.65499 8.39982 6.60999L8.46482 6.71999C8.56482 6.75499 8.73482 6.81499 8.80482 6.84999C8.83815 6.85999 8.86649 6.86832 8.88982 6.87499C8.91315 6.88165 8.92982 6.89832 8.93982 6.92499C8.94982 6.95832 8.94315 6.98332 8.91982 6.99999C8.90482 7.00499 8.82482 6.97999 8.80482 6.99999C8.80482 7.01665 8.82815 7.03332 8.87482 7.04999C8.88982 7.05999 8.85982 7.09999 8.83982 7.09999C8.82315 7.09999 8.80815 7.09499 8.79482 7.08499C8.74482 7.07499 8.69482 7.05832 8.64482 7.03499" stroke="black" stroke-width="0.025" stroke-linecap="round" stroke-linejoin="round"/>
<path d="M8.36485 6.85498C8.36485 7.02498 8.41985 7.10998 8.51485 7.16998M8.83485 7.67998C8.84832 7.74597 8.84832 7.81399 8.83485 7.87998M7.59985 8.52998C7.72485 8.47498 7.83985 8.32998 7.83485 8.23998C7.83485 8.18998 7.78985 8.11498 7.67985 8.10998M7.82985 8.23998C7.86985 8.25498 7.94485 8.24498 8.00485 8.25498M8.63485 7.83998C8.73485 7.84498 8.86485 7.90498 8.93485 7.89998M8.58485 8.03998C8.67485 8.05998 8.67485 8.09998 8.84985 8.08998M8.54985 7.47998C8.64485 7.47998 8.69985 7.52998 8.74985 7.56498" stroke="black" stroke-width="0.025" stroke-linecap="round" stroke-linejoin="round"/>
<path d="M7.81482 8.31998C7.88482 8.32665 7.93482 8.30331 7.96482 8.24998M8.36482 6.85498C8.36482 6.99498 8.41482 7.02998 8.52482 7.04998" stroke="black" stroke-width="0.015" stroke-linecap="round" stroke-linejoin="round"/>
<path d="M8.89983 6.88003C8.89483 6.91503 8.88983 6.94503 8.94983 6.94003M8.64483 6.78503C8.59983 6.89503 8.82483 6.91003 8.82983 6.98503M7.57983 7.72003C7.68983 7.77003 7.67983 7.98503 7.67983 8.11003" stroke="black" stroke-width="0.01" stroke-linecap="round" stroke-linejoin="round"/>
<path d="M8.77994 6.98505C8.74494 7.05505 8.66494 7.16005 8.58994 7.21505C8.47327 7.30171 8.33827 7.36338 8.18494 7.40005C8.1616 7.41005 8.13494 7.41171 8.10494 7.40505C8.0716 7.40505 8.04327 7.38171 8.01994 7.33505C8.00994 7.31505 8.01494 7.20505 8.05494 7.19005C8.09315 7.17526 8.13399 7.16845 8.17494 7.17005C8.20494 7.17005 8.2216 7.18338 8.22494 7.21005C8.2216 7.23671 8.20494 7.24838 8.17494 7.24505C8.14494 7.23505 8.09994 7.21505 8.07494 7.23505C8.05494 7.24505 8.03994 7.29505 8.05494 7.32005C8.0716 7.35338 8.08994 7.37005 8.10994 7.37005L8.17494 7.36505C8.3216 7.32505 8.4516 7.26505 8.56494 7.18505C8.63994 7.13505 8.71494 7.01505 8.74494 6.96505L8.77994 6.98505ZM8.17994 7.20005C8.13494 7.19005 8.05994 7.20005 8.05494 7.22005C8.08827 7.20338 8.12994 7.20338 8.17994 7.22005C8.1966 7.21671 8.1966 7.21005 8.17994 7.20005ZM8.47994 6.82505L8.49494 6.79005C8.49994 6.78505 8.48494 6.70505 8.56494 6.74505C8.64994 6.79505 8.58494 6.83005 8.57994 6.83505L8.55994 6.87005" fill="white"/>
<path d="M8.47994 6.82505L8.49494 6.79005C8.49994 6.78505 8.48494 6.70505 8.56494 6.74505C8.64994 6.79505 8.58494 6.83005 8.57994 6.83505L8.55994 6.87005M8.77994 6.98505C8.74494 7.05505 8.66494 7.16005 8.58994 7.21505C8.47327 7.30171 8.33827 7.36338 8.18494 7.40005C8.1616 7.41005 8.13494 7.41171 8.10494 7.40505C8.0716 7.40505 8.04327 7.38171 8.01994 7.33505C8.00994 7.31505 8.01494 7.20505 8.05494 7.19005C8.09315 7.17526 8.13399 7.16845 8.17494 7.17005C8.20494 7.17005 8.2216 7.18338 8.22494 7.21005C8.2216 7.23671 8.20494 7.24838 8.17494 7.24505C8.14494 7.23505 8.09994 7.21505 8.07494 7.23505C8.05494 7.24505 8.03994 7.29505 8.05494 7.32005C8.0716 7.35338 8.08994 7.37005 8.10994 7.37005L8.17494 7.36505C8.3216 7.32505 8.4516 7.26505 8.56494 7.18505C8.63994 7.13505 8.71494 7.01505 8.74494 6.96505L8.77994 6.98505ZM8.17994 7.20005C8.13494 7.19005 8.05994 7.20005 8.05494 7.22005C8.08827 7.20338 8.12994 7.20338 8.17994 7.22005C8.1966 7.21671 8.1966 7.21005 8.17994 7.20005Z" stroke="black" stroke-width="0.01" stroke-linecap="round" stroke-linejoin="round"/>
<path d="M8.33484 6.75L8.80984 7" stroke="black" stroke-width="0.02" stroke-linecap="round" stroke-linejoin="round"/>
<path d="M7.73471 6.76998C7.62744 6.77395 7.52007 6.76556 7.41471 6.74498C7.37471 6.73998 7.25971 6.90498 7.19971 6.91498C7.13971 6.92998 7.07971 6.79498 6.99471 6.82498C6.94971 6.85998 6.99471 7.02498 6.96971 7.03998C6.94471 7.06498 6.86971 6.95998 6.81971 6.98998C6.76971 7.02998 6.85971 7.24498 6.83471 7.26998C6.80971 7.29498 6.70471 7.17498 6.66971 7.19998C6.63471 7.22498 6.70471 7.55998 6.66971 7.57498C6.63971 7.59498 6.48471 7.48498 6.46971 7.52999C6.44471 7.57999 6.68471 7.68498 6.74971 7.68998L6.81471 7.66498C6.83471 7.67498 7.02471 7.68998 7.04471 7.68998L7.14971 7.57999C7.31471 7.36499 7.49971 7.16499 7.73471 7.17999V6.76998Z" fill="white" stroke="black" stroke-width="0.015" stroke-linecap="round" stroke-linejoin="round"/>
<path d="M7.00972 6.82494L7.32472 6.80994M6.81972 6.98994L6.96972 6.93994M6.66972 7.18994L6.81472 7.12994M6.46472 7.52994L6.66472 7.34994M6.81472 7.65994C6.89972 7.50994 7.06472 7.34994 7.20972 7.26494M6.67472 7.57494C6.79472 7.42994 7.12972 7.19494 7.23972 7.17494M6.96972 7.03994C7.10972 6.97994 7.30972 6.96994 7.46972 6.95494M7.19472 6.91494C7.21472 6.91494 7.45472 6.88494 7.55972 6.88994M6.83472 7.27494C7.01472 7.16494 7.20639 7.0766 7.40972 7.00994" stroke="black" stroke-width="0.015" stroke-linecap="round" stroke-linejoin="round"/>
<path d="M8.40993 9.56007C8.42493 9.56507 8.43993 9.60007 8.43993 9.60007C8.43993 9.60007 8.40993 9.61507 8.39993 9.61007L6.92493 9.17007C6.88493 9.16007 6.89993 9.09007 6.94493 9.10507L8.40993 9.56007ZM7.00993 7.51007C6.9966 7.4734 6.9766 7.45174 6.94993 7.44507C6.93993 7.44507 6.90493 7.48007 6.90993 7.49007C6.90993 7.51007 6.95493 7.54007 6.96993 7.54007L7.00993 7.51007ZM7.14493 7.56007L7.01993 7.68507C7.00493 7.70007 7.03493 7.72507 7.04993 7.71007L7.17493 7.59007C7.18993 7.57507 7.15993 7.54507 7.14493 7.56007ZM7.08493 7.68007L7.46993 8.07507L7.54493 8.08507L7.53493 8.00507L7.13493 7.62507L7.08493 7.68007Z" fill="white" stroke="black" stroke-width="0.02" stroke-linecap="round" stroke-linejoin="round"/>
<path d="M7.48986 8.03002L7.10986 7.65002" stroke="black" stroke-width="0.005" stroke-linecap="round" stroke-linejoin="round"/>
<path d="M7.99994 6.92995C7.99994 6.90662 8.00827 6.88995 8.02494 6.87995C8.04994 6.86495 8.03994 6.87495 8.05494 6.87995L8.09494 6.90495C8.10494 6.91162 8.1116 6.91162 8.11494 6.90495C8.11494 6.89162 8.11994 6.87828 8.12994 6.86495L8.13994 6.85495C8.14994 6.85495 8.15327 6.84995 8.14994 6.83995C8.1466 6.82995 8.1516 6.82328 8.16494 6.81995C8.17494 6.81995 8.19494 6.83495 8.19494 6.81995L8.20994 6.73995C8.23994 6.74495 8.22994 6.70995 8.23994 6.70995C8.26994 6.71995 8.28494 6.66995 8.26494 6.64995C8.26827 6.61328 8.2966 6.59662 8.34994 6.59995C8.34494 6.57495 8.30494 6.56495 8.27994 6.52995C8.25494 6.49495 8.17994 6.44995 8.08994 6.44995C7.99994 6.44995 7.93494 6.52995 7.89994 6.56495C7.86494 6.59995 7.79994 6.61495 7.78494 6.61495C7.76827 6.60495 7.7516 6.59828 7.73494 6.59495H7.64994C7.61994 6.59495 7.60994 6.61495 7.57494 6.60995C7.55494 6.60995 7.47494 6.60995 7.44994 6.61995C7.42494 6.62995 7.44994 6.67995 7.47494 6.68495C7.48494 6.68495 7.54994 6.68495 7.57494 6.69995C7.59994 6.71495 7.67494 6.71995 7.70494 6.70495C7.76994 6.68495 7.80994 6.72495 7.87994 6.74495L7.90494 6.74995C7.90827 6.78995 7.9016 6.80828 7.88494 6.80495H7.82494L7.75994 6.77495C7.72994 6.77495 7.70994 6.77828 7.69994 6.78495C7.61494 6.81995 7.31494 7.05495 7.28494 7.10995C7.24994 7.16995 7.19994 7.20495 7.15494 7.29495C7.12994 7.34495 7.07994 7.40495 7.04994 7.48495C6.99994 7.50995 6.94494 7.55495 6.93494 7.56995C6.93494 7.58328 6.9416 7.59328 6.95494 7.59995C6.95494 7.60995 6.96494 7.61828 6.98494 7.62495C6.9816 7.63828 6.98827 7.64495 7.00494 7.64495C7.00494 7.66162 7.01327 7.67328 7.02994 7.67995L7.14994 7.55495C7.1566 7.49828 7.17327 7.45162 7.19994 7.41495C7.26248 7.33752 7.31929 7.25564 7.36994 7.16995C7.38494 7.14995 7.52994 7.09495 7.56994 7.05995C7.55725 7.13609 7.55725 7.21381 7.56994 7.28995C7.59494 7.38995 7.62494 7.45495 7.64494 7.53995C7.66494 7.62495 7.64494 7.67495 7.64494 7.71495C7.64494 7.73828 7.6616 7.75495 7.69494 7.76495C7.71994 7.78495 7.83994 7.76495 7.87494 7.77995C7.94827 7.79662 7.99994 7.80662 8.02994 7.80995C8.08998 7.7982 8.15224 7.80888 8.20494 7.83995C8.23494 7.86495 8.28994 7.98995 8.30994 8.03995C8.32994 8.08995 8.43994 8.14495 8.45994 8.17495C8.48494 8.19995 8.50494 8.27495 8.49994 8.30995C8.49327 8.34328 8.50494 8.35662 8.53494 8.34995C8.55994 8.34995 8.65994 8.36495 8.67494 8.37495C8.69494 8.38495 8.73494 8.41995 8.74994 8.41995C8.76494 8.41995 8.83494 8.42995 8.86994 8.42495C8.90494 8.41995 8.89994 8.36995 8.88494 8.36495L8.78494 8.34495C8.73289 8.32009 8.68684 8.28427 8.64994 8.23995C8.62327 8.19995 8.6016 8.15828 8.58494 8.11495L8.42994 7.88995L8.34994 7.69995C8.33494 7.66495 8.30994 7.66495 8.28494 7.65495C8.19494 7.62995 8.15994 7.61995 8.06494 7.60495C7.99994 7.58995 7.98494 7.58495 7.97494 7.53495C7.97494 7.49495 7.94494 7.42495 7.95994 7.37495L7.97994 7.28495C7.97994 7.25995 7.99994 7.21995 7.99994 7.19995L8.00994 7.04995L7.99994 6.92995ZM8.06994 7.33995C8.05994 7.33995 8.01994 7.34995 7.99494 7.33995C7.98994 7.33995 7.99494 7.31995 7.99494 7.31995C7.99494 7.31995 7.98494 7.30495 7.99494 7.29995C7.9916 7.29328 7.9916 7.28662 7.99494 7.27995C7.98494 7.26995 7.98494 7.26162 7.99494 7.25495L8.06494 7.24995C8.07827 7.27995 8.07994 7.30995 8.06994 7.33995Z" fill="white" stroke="black" stroke-width="0.025" stroke-linecap="round" stroke-linejoin="round"/>
<path d="M7.90482 6.75501C7.92482 6.77001 7.92482 6.75501 7.95982 6.74501C7.99482 6.73501 8.02482 6.76501 8.00982 6.79501C7.99649 6.82834 8.00649 6.84834 8.03982 6.85501C8.08982 6.86501 8.08982 6.82001 8.09982 6.80501L8.13482 6.77001C8.14482 6.73001 8.18482 6.74001 8.20982 6.74501M8.25982 6.65001C8.24482 6.66001 8.19982 6.62501 8.18982 6.59501C8.17982 6.55168 8.14982 6.52834 8.09982 6.52501C8.02482 6.52001 7.94982 6.55501 7.93482 6.61001L7.91982 6.69501C7.89982 6.69501 7.88815 6.69834 7.88482 6.70501L7.87982 6.74501M7.56482 7.06001L7.66482 7.01001" stroke="black" stroke-width="0.025" stroke-linecap="round" stroke-linejoin="round"/>
<path d="M7.6699 7.01501C7.6949 7.08001 7.7199 7.14501 7.7549 7.16501M7.8099 7.19001C7.8499 7.21001 7.89156 7.21335 7.9349 7.20001M7.6799 7.67501C7.7849 7.67501 7.8299 7.72501 7.9149 7.75501C8.0049 7.78001 8.1249 7.76501 8.2399 7.82001M7.6449 7.33501C7.67823 7.35501 7.71156 7.36501 7.7449 7.36501M7.7899 7.36501C7.8499 7.37835 7.88823 7.40168 7.9049 7.43501M7.7649 7.49001C7.8149 7.54001 7.9149 7.58001 7.9749 7.58001" stroke="black" stroke-width="0.015" stroke-linecap="round" stroke-linejoin="round"/>
<path d="M7.84989 6.80002C7.89489 6.96002 7.89989 7.02002 8.00989 7.05002M7.80489 6.79502C7.85489 6.95002 7.90489 7.03502 8.00989 7.04502C7.87989 7.04002 7.80989 6.93002 7.75989 6.77502M8.58489 8.11502L8.46489 8.18002M8.35489 8.09002L8.51489 8.01002M8.32989 8.06002L8.49489 7.98002M8.58989 8.28502C8.56989 8.27169 8.55322 8.25002 8.53989 8.22002L8.50489 8.14002L8.47989 8.15502C8.45989 8.15502 8.45655 8.14836 8.46989 8.13502L8.48989 8.12502L8.45989 8.06502C8.44989 8.06502 8.45322 8.06002 8.46989 8.05002C8.48655 8.04002 8.49322 8.04002 8.48989 8.05002L8.51989 8.11002L8.53989 8.10002C8.55489 8.09002 8.56489 8.11502 8.54989 8.12002L8.52489 8.13002L8.56489 8.21002C8.58489 8.24502 8.58989 8.25502 8.58989 8.28502Z" stroke="black" stroke-width="0.01" stroke-linecap="round" stroke-linejoin="round"/>
<path d="M7.00483 7.64997L7.05983 7.59997M6.98483 7.62497L7.03483 7.57497M6.95483 7.59997L7.00983 7.54997M7.99983 7.31997H8.04983M7.99483 7.27997H8.04483M7.99483 7.29997H8.04483M8.10983 6.83997L8.13983 6.85497" stroke="black" stroke-width="0.005" stroke-linecap="round" stroke-linejoin="round"/>
</g>
<defs>
<clipPath id="clip0_8001_4815">
<rect width="32" height="24" fill="white"/>
</clipPath>
</defs>
</svg>
