<svg width="32" height="24" viewBox="0 0 32 24" fill="none" xmlns="http://www.w3.org/2000/svg">
<g clip-path="url(#clip0_8001_4820)">
<path d="M12.8 0H32V24H12.8V0Z" fill="#FF0000"/>
<path d="M0 0H12.8V24H0V0Z" fill="#006600"/>
<path fill-rule="evenodd" clip-rule="evenodd" d="M16.975 15.31C15.36 15.26 7.97505 10.65 7.92505 9.90999L8.33005 9.23499C9.06505 10.3 16.615 14.785 17.36 14.625L16.975 15.31Z" fill="#FFFF00" stroke="black" stroke-width="0.03" stroke-linecap="round" stroke-linejoin="round"/>
<path fill-rule="evenodd" clip-rule="evenodd" d="M8.24495 9.14001C8.09995 9.53001 10.175 10.81 12.665 12.33C15.155 13.85 17.31 14.78 17.465 14.65L17.54 14.51C17.51 14.5633 17.4383 14.5733 17.325 14.54C16.65 14.345 14.895 13.54 12.72 12.22C10.54 10.9 8.64995 9.68501 8.35495 9.17001C8.33129 9.12195 8.32093 9.06843 8.32495 9.01501H8.31495L8.25495 9.12501L8.24495 9.14001ZM17.01 15.33C16.9866 15.3733 16.9283 15.3867 16.835 15.37C16.235 15.305 14.405 14.415 12.24 13.12C9.71995 11.61 7.63995 10.24 7.86995 9.88001L7.92995 9.77001L7.93995 9.77501C7.73995 10.385 12.045 12.845 12.3 13.005C14.79 14.545 16.89 15.45 17.075 15.215L17.01 15.33Z" fill="#FFFF00" stroke="black" stroke-width="0.03" stroke-linecap="round" stroke-linejoin="round"/>
<path fill-rule="evenodd" clip-rule="evenodd" d="M12.8101 10.36C14.4201 10.345 16.4101 10.14 17.5601 9.67995L17.3101 9.27995C16.6351 9.65495 14.6351 9.90495 12.7951 9.93995C10.6251 9.91995 9.09009 9.71495 8.32009 9.19995L8.09009 9.62995C9.50009 10.23 10.9501 10.355 12.8101 10.36Z" fill="#FFFF00" stroke="black" stroke-width="0.03" stroke-linecap="round" stroke-linejoin="round"/>
<path fill-rule="evenodd" clip-rule="evenodd" d="M17.625 9.69003C17.585 9.75503 16.835 10.01 15.735 10.2C14.7653 10.347 13.7858 10.4189 12.805 10.415C11.8654 10.4186 10.9265 10.3584 9.99501 10.235C8.84001 10.055 8.24501 9.80503 8.02001 9.71503L8.07501 9.60503C8.71001 9.85503 9.31001 10.005 10.01 10.115C10.9347 10.2398 11.8669 10.3016 12.8 10.3C13.7757 10.301 14.75 10.2291 15.715 10.085C16.84 9.90003 17.455 9.66503 17.545 9.56003L17.625 9.69003ZM17.405 9.28503C17.285 9.38503 16.675 9.60003 15.605 9.77003C14.681 9.90374 13.7486 9.97058 12.815 9.97003C11.715 9.97003 10.81 9.89003 10.125 9.79003C9.03501 9.65003 8.45501 9.39003 8.24501 9.32003L8.31001 9.21003C8.47501 9.29503 9.03001 9.52003 10.135 9.67503C11.0233 9.79401 11.9188 9.85082 12.815 9.84503C13.742 9.84532 14.6677 9.77847 15.585 9.64503C16.66 9.49503 17.24 9.22503 17.33 9.15503L17.405 9.28503ZM7.51501 12.3C8.50501 12.835 10.71 13.1 12.795 13.12C14.695 13.125 17.165 12.83 18.09 12.34L18.065 11.805C17.775 12.255 15.125 12.69 12.775 12.675C10.425 12.66 8.24001 12.295 7.51001 11.825V12.3" fill="#FFFF00"/>
<path d="M7.51501 12.3C8.50501 12.835 10.71 13.1 12.795 13.12C14.695 13.125 17.165 12.83 18.09 12.34L18.065 11.805C17.775 12.255 15.125 12.69 12.775 12.675C10.425 12.66 8.24001 12.295 7.51001 11.825V12.3M17.625 9.69003C17.585 9.75503 16.835 10.01 15.735 10.2C14.7653 10.347 13.7858 10.4189 12.805 10.415C11.8654 10.4186 10.9265 10.3584 9.99501 10.235C8.84001 10.055 8.24501 9.80503 8.02001 9.71503L8.07501 9.60503C8.71001 9.85503 9.31001 10.005 10.01 10.115C10.9347 10.2398 11.8669 10.3016 12.8 10.3C13.7757 10.301 14.75 10.2291 15.715 10.085C16.84 9.90003 17.455 9.66503 17.545 9.56003L17.625 9.69003ZM17.405 9.28503C17.285 9.38503 16.675 9.60003 15.605 9.77003C14.681 9.90374 13.7486 9.97058 12.815 9.97003C11.715 9.97003 10.81 9.89003 10.125 9.79003C9.03501 9.65003 8.45501 9.39003 8.24501 9.32003L8.31001 9.21003C8.47501 9.29503 9.03001 9.52003 10.135 9.67503C11.0233 9.79401 11.9188 9.85082 12.815 9.84503C13.742 9.84532 14.6677 9.77847 15.585 9.64503C16.66 9.49503 17.24 9.22503 17.33 9.15503L17.405 9.28503Z" stroke="black" stroke-width="0.03" stroke-linecap="round" stroke-linejoin="round"/>
<path fill-rule="evenodd" clip-rule="evenodd" d="M18.14 12.225V12.35C18 12.52 17.13 12.77 16.04 12.95C14.9571 13.1057 13.8639 13.1792 12.77 13.17C11.7326 13.1788 10.6961 13.107 9.66995 12.955C8.90423 12.8665 8.156 12.6643 7.44995 12.355V12.21C7.93495 12.53 9.24495 12.77 9.68495 12.84C10.475 12.96 11.49 13.05 12.77 13.05C14.115 13.05 15.19 12.955 16.02 12.83C16.805 12.715 17.92 12.42 18.14 12.225ZM18.14 11.775V11.9C18 12.065 17.13 12.315 16.04 12.495C14.9572 12.6523 13.8641 12.7276 12.77 12.72C11.7327 12.7261 10.6964 12.6542 9.66995 12.505C8.90423 12.4165 8.156 12.2143 7.44995 11.905V11.755C7.93495 12.08 9.24995 12.315 9.68495 12.385C10.7064 12.5346 11.7377 12.6065 12.77 12.6C14.115 12.6 15.195 12.5 16.02 12.375C16.805 12.265 17.92 11.97 18.14 11.775ZM12.79 15.215C10.51 15.205 8.55495 14.595 8.13995 14.495L8.43995 14.965C9.84246 15.4615 11.3223 15.7036 12.81 15.68C14.545 15.63 16.06 15.495 17.125 14.975L17.435 14.485C16.71 14.83 14.235 15.215 12.785 15.215" fill="#FFFF00"/>
<path d="M12.79 15.215C10.51 15.205 8.55495 14.595 8.13995 14.495L8.43995 14.965C9.84246 15.4615 11.3223 15.7036 12.81 15.68C14.545 15.63 16.06 15.495 17.125 14.975L17.435 14.485C16.71 14.83 14.235 15.215 12.785 15.215M18.14 12.225V12.35C18 12.52 17.13 12.77 16.04 12.95C14.9571 13.1057 13.8639 13.1792 12.77 13.17C11.7326 13.1788 10.6961 13.107 9.66995 12.955C8.90423 12.8665 8.156 12.6643 7.44995 12.355V12.21C7.93495 12.53 9.24495 12.77 9.68495 12.84C10.475 12.96 11.49 13.05 12.77 13.05C14.115 13.05 15.19 12.955 16.02 12.83C16.805 12.715 17.92 12.42 18.14 12.225ZM18.14 11.775V11.9C18 12.065 17.13 12.315 16.04 12.495C14.9572 12.6523 13.8641 12.7276 12.77 12.72C11.7327 12.7261 10.6964 12.6542 9.66995 12.505C8.90423 12.4165 8.156 12.2143 7.44995 11.905V11.755C7.93495 12.08 9.24995 12.315 9.68495 12.385C10.7064 12.5346 11.7377 12.6065 12.77 12.6C14.115 12.6 15.195 12.5 16.02 12.375C16.805 12.265 17.92 11.97 18.14 11.775Z" stroke="black" stroke-width="0.03" stroke-linecap="round" stroke-linejoin="round"/>
<path fill-rule="evenodd" clip-rule="evenodd" d="M17.245 14.8649L17.105 15.0649C16.605 15.2449 15.805 15.4349 15.475 15.4849C14.5895 15.6498 13.6908 15.7335 12.79 15.7349C10.77 15.7049 9.11505 15.3099 8.34005 14.9699L8.27505 14.8649L8.28505 14.8449L8.39005 14.8899C9.81316 15.3604 11.3012 15.6051 12.8 15.6149C13.74 15.6149 14.675 15.5099 15.43 15.3749C16.59 15.1399 17.06 14.9649 17.205 14.8849L17.24 14.8649H17.245ZM17.51 14.4249L17.41 14.5999C17.14 14.6999 16.41 14.9099 15.345 15.0599C14.645 15.1549 14.21 15.2499 12.815 15.2749C11.2203 15.2592 9.63542 15.0236 8.10505 14.5749L8.05005 14.4499C9.60497 14.8797 11.2072 15.1148 12.82 15.1499C14.095 15.1249 14.64 15.0299 15.335 14.9349C16.575 14.7449 17.2 14.5349 17.385 14.4799V14.4699L17.515 14.4199L17.51 14.4249Z" fill="#FFFF00" stroke="black" stroke-width="0.03" stroke-linecap="round" stroke-linejoin="round"/>
<path fill-rule="evenodd" clip-rule="evenodd" d="M17.54 11.88C17.545 13.38 16.775 14.73 16.16 15.32C15.2525 16.2072 14.039 16.7119 12.77 16.73C11.255 16.755 9.83002 15.77 9.44502 15.335C8.58373 14.4216 8.09353 13.2202 8.07002 11.965C8.16002 10.325 8.80502 9.185 9.73502 8.4C10.6393 7.65779 11.7752 7.25616 12.945 7.265C13.6282 7.29751 14.297 7.47268 14.9084 7.77924C15.5198 8.08581 16.0603 8.51697 16.495 9.045C17.12 9.805 17.395 10.63 17.54 11.88ZM12.78 6.75C14.1788 6.74996 15.5208 7.30286 16.5136 8.28817C17.5064 9.27347 18.0695 10.6113 18.08 12.01C18.08 12.704 17.9433 13.3913 17.6777 14.0325C17.4121 14.6737 17.0228 15.2563 16.5321 15.7471C16.0413 16.2378 15.4587 16.6271 14.8175 16.8927C14.1763 17.1583 13.4891 17.295 12.795 17.295C12.101 17.295 11.4137 17.1583 10.7725 16.8927C10.1313 16.6271 9.54872 16.2378 9.05796 15.7471C8.5672 15.2563 8.17791 14.6737 7.91231 14.0325C7.64672 13.3913 7.51002 12.704 7.51002 12.01C7.50502 9.11 9.87502 6.75 12.78 6.75Z" fill="#FFFF00" stroke="black" stroke-width="0.03" stroke-linecap="round" stroke-linejoin="round"/>
<path fill-rule="evenodd" clip-rule="evenodd" d="M12.795 6.72498C15.705 6.72498 18.075 9.09498 18.075 12.005C18.075 14.915 15.705 17.285 12.8 17.285C9.89502 17.285 7.52002 14.915 7.52002 12.005C7.52002 9.09498 9.89002 6.72498 12.8 6.72498H12.795ZM7.63002 12C7.63002 14.84 9.96502 17.165 12.795 17.165C15.625 17.165 17.96 14.84 17.96 12C17.96 9.15998 15.625 6.83498 12.795 6.83498C9.96502 6.83498 7.63002 9.15998 7.63002 12Z" fill="#FFFF00" stroke="black" stroke-width="0.03" stroke-linecap="round" stroke-linejoin="round"/>
<path fill-rule="evenodd" clip-rule="evenodd" d="M12.8001 7.16504C14.0812 7.169 15.3087 7.67967 16.2146 8.58555C17.1205 9.49143 17.6311 10.7189 17.6351 12C17.6325 13.282 17.1224 14.5108 16.2163 15.4178C15.3103 16.3247 14.0821 16.8361 12.8001 16.84C10.1501 16.84 7.96509 14.66 7.96509 12C7.96904 10.7189 8.47971 9.49143 9.3856 8.58555C10.2915 7.67967 11.519 7.169 12.8001 7.16504ZM8.08009 12C8.08009 14.6 10.2101 16.72 12.8001 16.72C15.3901 16.72 17.5201 14.595 17.5201 12C17.5201 9.40504 15.3901 7.28004 12.8001 7.28004C11.5507 7.28791 10.3547 7.78772 9.47124 8.67119C8.58776 9.55466 8.08795 10.7506 8.08009 12Z" fill="#FFFF00" stroke="black" stroke-width="0.03" stroke-linecap="round" stroke-linejoin="round"/>
<path fill-rule="evenodd" clip-rule="evenodd" d="M13.0149 6.69995H12.5599V17.315H13.0099L13.0149 6.69995Z" fill="#FFFF00" stroke="black" stroke-width="0.03" stroke-linecap="round" stroke-linejoin="round"/>
<path fill-rule="evenodd" clip-rule="evenodd" d="M12.965 6.64001H13.08V17.375H12.97V6.64001H12.965ZM12.515 6.64001H12.635V17.375H12.52L12.515 6.64001Z" fill="#FFFF00" stroke="black" stroke-width="0.03" stroke-linecap="round" stroke-linejoin="round"/>
<path fill-rule="evenodd" clip-rule="evenodd" d="M18.08 12.21V11.82L17.76 11.52L15.945 11.04L13.335 10.775L10.185 10.935L7.945 11.465L7.495 11.8V12.195L8.64 11.68L11.36 11.255H13.975L15.895 11.465L17.225 11.785L18.08 12.21Z" fill="#FFFF00" stroke="black" stroke-width="0.03" stroke-linecap="round" stroke-linejoin="round"/>
<path fill-rule="evenodd" clip-rule="evenodd" d="M12.8 11.1901C14.045 11.1901 15.25 11.3051 16.215 11.4901C17.205 11.6901 17.9 11.9401 18.14 12.2151V12.3551C17.85 12.0051 16.915 11.7551 16.19 11.6051C15.24 11.4251 14.04 11.3051 12.795 11.3051C11.49 11.3051 10.27 11.4351 9.32995 11.6151C8.57995 11.7651 7.57495 12.0651 7.44995 12.3551V12.2101C7.51495 12.0101 8.26495 11.7101 9.31495 11.4951C10.26 11.3101 11.48 11.1901 12.795 11.1901H12.8ZM12.8 10.7351C13.945 10.7328 15.0879 10.8332 16.215 11.0351C17.205 11.2351 17.9 11.4851 18.14 11.7651V11.9001C17.85 11.5551 16.915 11.3001 16.19 11.1551C15.24 10.9701 14.04 10.8551 12.795 10.8551C11.6345 10.8514 10.4762 10.9552 9.33495 11.1651C8.60995 11.3001 7.56495 11.6101 7.44995 11.9001V11.7601C7.51995 11.5601 8.27995 11.2451 9.31495 11.0451C10.265 10.8601 11.48 10.7351 12.8 10.7351ZM12.77 8.42506C14.735 8.41506 16.45 8.70006 17.235 9.10006L17.52 9.60006C16.84 9.23006 14.99 8.85006 12.775 8.90006C10.97 8.91506 9.03995 9.10006 8.07495 9.62006L8.41495 9.05006C9.20995 8.63506 11.08 8.42506 12.77 8.42506Z" fill="#FFFF00" stroke="black" stroke-width="0.03" stroke-linecap="round" stroke-linejoin="round"/>
<path fill-rule="evenodd" clip-rule="evenodd" d="M12.8 8.83497C13.826 8.81765 14.8515 8.88959 15.865 9.04997C16.665 9.19997 17.43 9.41997 17.54 9.53997L17.625 9.68997C17.36 9.51997 16.695 9.32497 15.845 9.16497C14.995 9.00497 13.91 8.94997 12.795 8.95497C11.53 8.94997 10.545 9.01497 9.70504 9.16497C9.12601 9.24621 8.56382 9.4201 8.04004 9.67997L8.12504 9.52497C8.42504 9.37497 8.89004 9.18997 9.68004 9.04497C10.555 8.88497 11.55 8.83997 12.8 8.83497ZM12.8 8.38497C13.87 8.37497 14.93 8.43497 15.755 8.58497C16.2895 8.66432 16.8068 8.83337 17.285 9.08497L17.41 9.28497C17.2 9.04997 16.41 8.82497 15.705 8.70497C14.885 8.55997 13.87 8.50497 12.8 8.49497C11.804 8.48609 10.8089 8.55967 9.82504 8.71497C9.31052 8.7864 8.81082 8.94002 8.34504 9.16997L8.45504 9.00497C8.74504 8.85497 9.21504 8.71497 9.80504 8.59997C10.7954 8.44263 11.7973 8.36904 12.8 8.37997V8.38497ZM15.42 14.2C14.5534 14.0498 13.6744 13.9828 12.795 14C9.52004 14.04 8.46504 14.675 8.33504 14.865L8.08504 14.465C8.92504 13.865 10.705 13.525 12.815 13.555C13.9117 13.5716 14.855 13.655 15.645 13.805L15.42 14.205" fill="#FFFF00"/>
<path d="M15.42 14.2C14.5534 14.0498 13.6744 13.9828 12.795 14C9.52004 14.04 8.46504 14.675 8.33504 14.865L8.08504 14.465C8.92504 13.865 10.705 13.525 12.815 13.555C13.9117 13.5716 14.855 13.655 15.645 13.805L15.42 14.205M12.8 8.83497C13.826 8.81765 14.8515 8.88959 15.865 9.04997C16.665 9.19997 17.43 9.41997 17.54 9.53997L17.625 9.68997C17.36 9.51997 16.695 9.32497 15.845 9.16497C14.995 9.00497 13.91 8.94997 12.795 8.95497C11.53 8.94997 10.545 9.01497 9.70504 9.16497C9.12601 9.24621 8.56382 9.4201 8.04004 9.67997L8.12504 9.52497C8.42504 9.37497 8.89004 9.18997 9.68004 9.04497C10.555 8.88497 11.55 8.83997 12.8 8.83497ZM12.8 8.38497C13.87 8.37497 14.93 8.43497 15.755 8.58497C16.2895 8.66432 16.8068 8.83337 17.285 9.08497L17.41 9.28497C17.2 9.04997 16.41 8.82497 15.705 8.70497C14.885 8.55997 13.87 8.50497 12.8 8.49497C11.804 8.48609 10.8089 8.55967 9.82504 8.71497C9.31052 8.7864 8.81082 8.94002 8.34504 9.16997L8.45504 9.00497C8.74504 8.85497 9.21504 8.71497 9.80504 8.59997C10.7954 8.44263 11.7973 8.36904 12.8 8.37997V8.38497Z" stroke="black" stroke-width="0.03" stroke-linecap="round" stroke-linejoin="round"/>
<path fill-rule="evenodd" clip-rule="evenodd" d="M12.78 13.945C13.69 13.96 14.58 13.995 15.445 14.155L15.385 14.265C14.585 14.115 13.725 14.065 12.785 14.065C11.57 14.055 10.35 14.17 9.28504 14.475C8.95004 14.57 8.39504 14.785 8.33504 14.965L8.27504 14.865C8.29504 14.755 8.62504 14.535 9.25504 14.365C10.475 14.015 11.615 13.95 12.78 13.945ZM12.82 13.485C13.7805 13.484 14.7392 13.5677 15.685 13.735L15.62 13.85C14.6965 13.6806 13.759 13.5985 12.82 13.605C11.61 13.605 10.325 13.695 9.15504 14.035C8.78004 14.145 8.12504 14.385 8.10504 14.57L8.04504 14.46C8.05504 14.29 8.62004 14.065 9.13004 13.92C10.305 13.575 11.595 13.49 12.82 13.485Z" fill="#FFFF00" stroke="black" stroke-width="0.03" stroke-linecap="round" stroke-linejoin="round"/>
<path fill-rule="evenodd" clip-rule="evenodd" d="M17.47 14.525L17.08 15.14L15.945 14.135L13.015 12.16L9.70499 10.345L7.98999 9.76001L8.35499 9.08001L8.47999 9.01501L9.54499 9.28001L13.065 11.095L15.095 12.375L16.8 13.6L17.495 14.4L17.47 14.525Z" fill="#FFFF00" stroke="black" stroke-width="0.03" stroke-linecap="round" stroke-linejoin="round"/>
<path fill-rule="evenodd" clip-rule="evenodd" d="M7.92999 9.77493C8.22999 9.57493 10.44 10.5549 12.76 11.9549C15.065 13.3549 17.275 14.9349 17.075 15.2299L17.01 15.3349L16.98 15.3599C16.985 15.3549 17.02 15.3099 16.98 15.2049C16.88 14.8799 15.31 13.6299 12.715 12.0599C10.18 10.5549 8.06999 9.64493 7.86499 9.90493L7.92999 9.77493ZM17.55 14.5199C17.74 14.1399 15.69 12.5949 13.145 11.0899C10.545 9.61493 8.66499 8.74493 8.31999 9.00493L8.24999 9.14993C8.24666 9.14993 8.25332 9.1416 8.26999 9.12493C8.32999 9.07493 8.43499 9.07493 8.47999 9.07493C9.06999 9.08493 10.755 9.85993 13.12 11.2149C14.16 11.8149 17.5 13.9649 17.485 14.5649C17.485 14.6149 17.49 14.6249 17.47 14.6549L17.555 14.5249L17.55 14.5199Z" fill="#FFFF00" stroke="black" stroke-width="0.03" stroke-linecap="round" stroke-linejoin="round"/>
<path d="M9.63208 12.5884C9.63375 13.0022 9.71705 13.4117 9.8772 13.7933C10.0374 14.175 10.2712 14.5213 10.5654 14.8124C10.8567 15.1081 11.2037 15.3434 11.5863 15.5045C11.9689 15.6656 12.3796 15.7494 12.7948 15.751C13.2109 15.7522 13.6232 15.6707 14.0077 15.5114C14.3922 15.3521 14.7413 15.1182 15.0348 14.823C15.3286 14.5308 15.5619 14.1835 15.7211 13.8009C15.8804 13.4183 15.9625 13.0081 15.9628 12.5937V8.36968L9.63208 8.35901V12.5884Z" fill="white" stroke="black" stroke-width="0.0373334"/>
<path d="M9.76001 12.5937C9.75995 12.991 9.83917 13.3843 9.99302 13.7507C10.1469 14.117 10.3723 14.4489 10.656 14.727C11.2238 15.2978 11.9949 15.6201 12.8 15.623C13.6036 15.6229 14.3745 15.3046 14.944 14.7377C15.2268 14.4591 15.4512 14.127 15.6041 13.7607C15.7571 13.3944 15.8354 13.0013 15.8347 12.6044V8.49768H9.76001V12.5937ZM14.6134 9.72968V12.3377L14.608 12.6097C14.6104 12.848 14.5644 13.0844 14.4727 13.3044C14.3811 13.5245 14.2456 13.7236 14.0747 13.8897C13.7355 14.23 13.2752 14.4219 12.7947 14.423C12.2934 14.423 11.8507 14.2097 11.52 13.879C11.1797 13.5399 10.9879 13.0795 10.9867 12.599V9.71902L14.6134 9.72968Z" fill="#FF0000" stroke="black" stroke-width="0.0266667"/>
<path d="M10.1439 9.5697C10.1493 9.27636 10.3573 9.20703 10.3573 9.20703C10.3626 9.20703 10.5866 9.2817 10.5866 9.57503L10.1439 9.5697Z" fill="#FFFF00"/>
<path d="M9.96253 9.21236L9.9252 9.54837H10.1492C10.1492 9.27103 10.3625 9.22836 10.3625 9.22836C10.3679 9.22836 10.5759 9.28703 10.5812 9.54837H10.8052L10.7625 9.20703L9.96253 9.21236ZM9.9092 9.5537H10.8159C10.8336 9.5537 10.8443 9.56614 10.8479 9.59103C10.8479 9.61948 10.8372 9.6337 10.8159 9.6337H9.9092C9.89142 9.6337 9.88075 9.61948 9.8772 9.59103C9.8772 9.56614 9.88964 9.5537 9.91453 9.5537H9.9092Z" fill="#FFFF00" stroke="black" stroke-width="0.0266667"/>
<path d="M10.2399 9.54831C10.2399 9.37231 10.3626 9.32431 10.3626 9.32431C10.3626 9.32431 10.4852 9.37764 10.4852 9.54831H10.2399ZM9.93056 9.0683H10.7999C10.8177 9.07186 10.8283 9.08608 10.8319 9.11097C10.8319 9.12875 10.8212 9.13942 10.7999 9.14297H9.93056C9.91278 9.14297 9.90212 9.13053 9.89856 9.10564C9.89856 9.08786 9.90923 9.07719 9.93056 9.07364V9.0683ZM9.95189 9.14831H10.7732C10.791 9.14831 10.8017 9.16075 10.8052 9.18564C10.8088 9.21053 10.7981 9.22297 10.7732 9.22297H9.94656C9.92523 9.22297 9.91456 9.21053 9.91456 9.18564C9.91456 9.16075 9.92523 9.14831 9.94656 9.14831H9.95189ZM10.2186 8.58297H10.2826V8.62564H10.3306V8.58297H10.3999V8.63097H10.4479V8.57764H10.5119V8.6843C10.5119 8.70564 10.503 8.7163 10.4852 8.7163H10.2506C10.2328 8.7163 10.2221 8.70741 10.2186 8.68964V8.58297ZM10.4639 8.72697L10.4799 9.0683H10.2506L10.2666 8.72164H10.4639" fill="#FFFF00"/>
<path d="M10.4639 8.72697L10.4799 9.0683H10.2506L10.2666 8.72164H10.4639M10.2399 9.54831C10.2399 9.37231 10.3626 9.32431 10.3626 9.32431C10.3626 9.32431 10.4852 9.37764 10.4852 9.54831H10.2399ZM9.93056 9.0683H10.7999C10.8177 9.07186 10.8283 9.08608 10.8319 9.11097C10.8319 9.12875 10.8212 9.13942 10.7999 9.14297H9.93056C9.91278 9.14297 9.90212 9.13053 9.89856 9.10564C9.89856 9.08786 9.90923 9.07719 9.93056 9.07364V9.0683ZM9.95189 9.14831H10.7732C10.791 9.14831 10.8017 9.16075 10.8052 9.18564C10.8088 9.21053 10.7981 9.22297 10.7732 9.22297H9.94656C9.92523 9.22297 9.91456 9.21053 9.91456 9.18564C9.91456 9.16075 9.92523 9.14831 9.94656 9.14831H9.95189ZM10.2186 8.58297H10.2826V8.62564H10.3306V8.58297H10.3999V8.63097H10.4479V8.57764H10.5119V8.6843C10.5119 8.70564 10.503 8.7163 10.4852 8.7163H10.2506C10.2328 8.7163 10.2221 8.70741 10.2186 8.68964V8.58297Z" stroke="black" stroke-width="0.0266667"/>
<path d="M10.1866 8.88696V9.0683H9.97327V8.88696H10.1866Z" fill="#FFFF00" stroke="black" stroke-width="0.0266667"/>
<path d="M10.7519 8.88696V9.0683H10.5386V8.88696H10.7519Z" fill="#FFFF00" stroke="black" stroke-width="0.0266667"/>
<path d="M9.93591 8.74829H9.99991V8.80162H10.0479V8.74829H10.1119V8.80162H10.1599V8.74829H10.2239V8.85496C10.2239 8.87629 10.215 8.88696 10.1972 8.88696H9.96791C9.96056 8.8843 9.95388 8.88005 9.94835 8.87452C9.94282 8.86899 9.93857 8.86231 9.93591 8.85496V8.74829Z" fill="#FFFF00" stroke="black" stroke-width="0.0266667"/>
<path d="M10.5012 8.74829H10.5652V8.80162H10.6132V8.74829H10.6772V8.80162H10.7252V8.74829H10.7892V8.85496C10.7892 8.87629 10.7803 8.88696 10.7626 8.88696H10.5332C10.5259 8.8843 10.5192 8.88005 10.5137 8.87452C10.5081 8.86899 10.5039 8.86231 10.5012 8.85496V8.74829Z" fill="#FFFF00" stroke="black" stroke-width="0.0266667"/>
<path d="M10.3412 8.83369C10.3412 8.80169 10.3892 8.80169 10.3892 8.83369V8.91903H10.3412V8.83369Z" fill="#000001"/>
<path d="M10.0586 8.951C10.0586 8.919 10.1013 8.919 10.1013 8.951V9.015H10.0586V8.951Z" fill="#000001"/>
<path d="M10.6239 8.951C10.6239 8.919 10.6666 8.919 10.6666 8.951V9.015H10.6239V8.951Z" fill="#000001"/>
<path d="M10.1438 12.0391C10.1491 11.7457 10.3571 11.6764 10.3571 11.6764C10.3625 11.6764 10.5865 11.7511 10.5865 12.0444L10.1438 12.0391Z" fill="#FFFF00"/>
<path d="M9.96241 11.6817L9.92508 12.0177H10.1491C10.1491 11.7404 10.3624 11.6977 10.3624 11.6977C10.3677 11.6977 10.5757 11.7564 10.5811 12.0177H10.8051L10.7624 11.6764L9.96241 11.6817ZM9.90908 12.0231H10.8157C10.8335 12.0231 10.8442 12.0355 10.8477 12.0604C10.8477 12.0888 10.8371 12.1031 10.8157 12.1031H9.90908C9.8913 12.1031 9.88063 12.0888 9.87708 12.0604C9.87708 12.0355 9.88952 12.0231 9.91441 12.0231H9.90908Z" fill="#FFFF00" stroke="black" stroke-width="0.0266667"/>
<path d="M10.2398 12.0177C10.2398 11.8417 10.3624 11.7937 10.3624 11.7937C10.3624 11.7937 10.4851 11.847 10.4851 12.0177H10.2398ZM9.93044 11.5377H10.7998C10.8176 11.5412 10.8282 11.5554 10.8318 11.5803C10.8318 11.5981 10.8211 11.6088 10.7998 11.6123H9.93044C9.91266 11.6123 9.90199 11.5999 9.89844 11.575C9.89844 11.5572 9.9091 11.5466 9.93044 11.543V11.5377ZM9.95177 11.6177H10.7731C10.7909 11.6177 10.8016 11.6301 10.8051 11.655C10.8087 11.6799 10.798 11.6923 10.7731 11.6923H9.94644C9.9251 11.6923 9.91444 11.6799 9.91444 11.655C9.91444 11.6301 9.9251 11.6177 9.94644 11.6177H9.95177ZM10.2184 11.0523H10.2824V11.095H10.3304V11.0523H10.3998V11.1003H10.4478V11.047H10.5118V11.1537C10.5118 11.175 10.5029 11.1857 10.4851 11.1857H10.2504C10.2327 11.1857 10.222 11.1768 10.2184 11.159V11.0523ZM10.4638 11.1963L10.4798 11.5377H10.2504L10.2664 11.191H10.4638" fill="#FFFF00"/>
<path d="M10.4638 11.1963L10.4798 11.5377H10.2504L10.2664 11.191H10.4638M10.2398 12.0177C10.2398 11.8417 10.3624 11.7937 10.3624 11.7937C10.3624 11.7937 10.4851 11.847 10.4851 12.0177H10.2398ZM9.93044 11.5377H10.7998C10.8176 11.5412 10.8282 11.5554 10.8318 11.5803C10.8318 11.5981 10.8211 11.6088 10.7998 11.6123H9.93044C9.91266 11.6123 9.90199 11.5999 9.89844 11.575C9.89844 11.5572 9.9091 11.5466 9.93044 11.543V11.5377ZM9.95177 11.6177H10.7731C10.7909 11.6177 10.8016 11.6301 10.8051 11.655C10.8087 11.6799 10.798 11.6923 10.7731 11.6923H9.94644C9.9251 11.6923 9.91444 11.6799 9.91444 11.655C9.91444 11.6301 9.9251 11.6177 9.94644 11.6177H9.95177ZM10.2184 11.0523H10.2824V11.095H10.3304V11.0523H10.3998V11.1003H10.4478V11.047H10.5118V11.1537C10.5118 11.175 10.5029 11.1857 10.4851 11.1857H10.2504C10.2327 11.1857 10.222 11.1768 10.2184 11.159V11.0523Z" stroke="black" stroke-width="0.0266667"/>
<path d="M10.1865 11.3563V11.5377H9.97314V11.3563H10.1865Z" fill="#FFFF00" stroke="black" stroke-width="0.0266667"/>
<path d="M10.7518 11.3563V11.5377H10.5385V11.3563H10.7518Z" fill="#FFFF00" stroke="black" stroke-width="0.0266667"/>
<path d="M9.93579 11.2177H9.99979V11.271H10.0478V11.2177H10.1118V11.271H10.1598V11.2177H10.2238V11.3243C10.2238 11.3457 10.2149 11.3563 10.1971 11.3563H9.96779C9.96044 11.3537 9.95376 11.3494 9.94823 11.3439C9.9427 11.3384 9.93845 11.3317 9.93579 11.3243V11.2177Z" fill="#FFFF00" stroke="black" stroke-width="0.0266667"/>
<path d="M10.5011 11.2177H10.5651V11.271H10.6131V11.2177H10.6771V11.271H10.7251V11.2177H10.7891V11.3243C10.7891 11.3457 10.7802 11.3563 10.7624 11.3563H10.5331C10.5257 11.3537 10.5191 11.3494 10.5135 11.3439C10.508 11.3384 10.5038 11.3317 10.5011 11.3243V11.2177Z" fill="#FFFF00" stroke="black" stroke-width="0.0266667"/>
<path d="M10.3411 11.3031C10.3411 11.2711 10.3891 11.2711 10.3891 11.3031V11.3884H10.3411V11.3031Z" fill="#000001"/>
<path d="M10.0585 11.4204C10.0585 11.3884 10.1011 11.3884 10.1011 11.4204V11.4844H10.0585V11.4204Z" fill="#000001"/>
<path d="M10.6238 11.4204C10.6238 11.3884 10.6664 11.3884 10.6664 11.4204V11.4844H10.6238V11.4204Z" fill="#000001"/>
<path d="M11.1061 14.6125C10.9017 14.402 10.9991 14.2056 10.9991 14.2056C11.0028 14.2018 11.2137 14.0954 11.4218 14.3021L11.1061 14.6125Z" fill="#FFFF00"/>
<path d="M10.7248 14.4893L10.9369 14.7526L11.0948 14.5937C10.898 14.3982 11.018 14.2168 11.018 14.2168C11.0218 14.213 11.21 14.1068 11.3992 14.2871L11.557 14.1282L11.2847 13.9179L10.7248 14.4893ZM10.9294 14.7677L11.5683 14.1244C11.5808 14.1117 11.5972 14.1129 11.6173 14.128C11.6375 14.148 11.6401 14.1656 11.6251 14.1807L10.9862 14.8241C10.9737 14.8367 10.9561 14.8342 10.9334 14.8167C10.9157 14.7992 10.9156 14.7816 10.9332 14.7639L10.9294 14.7677Z" fill="#FFFF00" stroke="black" stroke-width="0.0266667"/>
<path d="M11.1585 14.5294C11.0336 14.4054 11.086 14.2845 11.086 14.2845C11.086 14.2845 11.2103 14.2351 11.3314 14.3553L11.1585 14.5294ZM10.6 14.4107L11.2125 13.7938C11.2276 13.7837 11.2452 13.7862 11.2653 13.8012C11.278 13.8137 11.278 13.8288 11.2655 13.8464L10.6529 14.4633C10.6404 14.4759 10.6241 14.4747 10.6039 14.4597C10.5913 14.4472 10.5912 14.4321 10.6037 14.4144L10.6 14.4107ZM10.6718 14.4519L11.2505 13.8691C11.263 13.8565 11.2794 13.8577 11.2995 13.8727C11.3197 13.8877 11.321 13.9041 11.3035 13.9217L10.721 14.5083C10.7059 14.5234 10.6896 14.5223 10.6719 14.5047C10.6543 14.4872 10.653 14.4708 10.668 14.4557L10.6718 14.4519ZM10.4585 13.8643L10.5036 13.8189L10.5339 13.849L10.5677 13.8149L10.5374 13.7849L10.5863 13.7357L10.6203 13.7695L10.6542 13.7354L10.6163 13.6979L10.6614 13.6524L10.7371 13.7276C10.7523 13.7426 10.7536 13.7565 10.741 13.7691L10.5757 13.9356C10.5631 13.9482 10.5493 13.9495 10.5342 13.9395L10.4585 13.8643ZM10.7336 13.7917L10.987 14.0209L10.8254 14.1836L10.5907 13.928L10.7298 13.788" fill="#FFFF00"/>
<path d="M10.7336 13.7917L10.987 14.0209L10.8254 14.1836L10.5907 13.928L10.7298 13.788M11.1585 14.5294C11.0336 14.4054 11.086 14.2845 11.086 14.2845C11.086 14.2845 11.2103 14.2351 11.3314 14.3553L11.1585 14.5294ZM10.6 14.4107L11.2125 13.7938C11.2276 13.7837 11.2452 13.7862 11.2653 13.8012C11.278 13.8137 11.278 13.8288 11.2655 13.8464L10.6529 14.4633C10.6404 14.4759 10.6241 14.4747 10.6039 14.4597C10.5913 14.4472 10.5912 14.4321 10.6037 14.4144L10.6 14.4107ZM10.6718 14.4519L11.2505 13.8691C11.263 13.8565 11.2794 13.8577 11.2995 13.8727C11.3197 13.8877 11.321 13.9041 11.3035 13.9217L10.721 14.5083C10.7059 14.5234 10.6896 14.5223 10.6719 14.5047C10.6543 14.4872 10.653 14.4708 10.668 14.4557L10.6718 14.4519ZM10.4585 13.8643L10.5036 13.8189L10.5339 13.849L10.5677 13.8149L10.5374 13.7849L10.5863 13.7357L10.6203 13.7695L10.6542 13.7354L10.6163 13.6979L10.6614 13.6524L10.7371 13.7276C10.7523 13.7426 10.7536 13.7565 10.741 13.7691L10.5757 13.9356C10.5631 13.9482 10.5493 13.9495 10.5342 13.9395L10.4585 13.8643Z" stroke="black" stroke-width="0.0266667"/>
<path d="M10.6517 14.1012L10.7803 14.229L10.63 14.3803L10.5013 14.2526L10.6517 14.1012Z" fill="#FFFF00" stroke="black" stroke-width="0.0266667"/>
<path d="M11.05 13.7001L11.1786 13.8278L11.0283 13.9792L10.8997 13.8514L11.05 13.7001Z" fill="#FFFF00" stroke="black" stroke-width="0.0266667"/>
<path d="M10.3767 14.1814L10.4218 14.136L10.4596 14.1736L10.4935 14.1395L10.4556 14.1019L10.5007 14.0565L10.5386 14.0941L10.5724 14.06L10.5345 14.0225L10.5796 13.977L10.6553 14.0522C10.6705 14.0672 10.6718 14.0811 10.6592 14.0937L10.4977 14.2564C10.4906 14.2597 10.4829 14.2615 10.475 14.2615C10.4672 14.2615 10.4595 14.2599 10.4524 14.2566L10.3767 14.1814Z" fill="#FFFF00" stroke="black" stroke-width="0.0266667"/>
<path d="M10.7751 13.7803L10.8202 13.7349L10.8581 13.7724L10.8919 13.7384L10.8541 13.7008L10.8992 13.6554L10.937 13.693L10.9708 13.6589L10.933 13.6213L10.9781 13.5759L11.0538 13.6511C11.0689 13.6661 11.0702 13.6799 11.0577 13.6925L10.8961 13.8553C10.889 13.8586 10.8813 13.8604 10.8735 13.8604C10.8657 13.8604 10.8579 13.8587 10.8508 13.8554L10.7751 13.7803Z" fill="#FFFF00" stroke="black" stroke-width="0.0266667"/>
<path d="M10.7228 13.9539C10.7001 13.9314 10.734 13.8973 10.7567 13.9199L10.8172 13.98L10.7834 14.0141L10.7228 13.9539Z" fill="#000001"/>
<path d="M10.607 14.2371C10.5843 14.2146 10.6144 14.1843 10.6371 14.2069L10.6825 14.2519L10.6524 14.2822L10.607 14.2371Z" fill="#000001"/>
<path d="M11.0053 13.836C10.9826 13.8135 11.0127 13.7832 11.0354 13.8057L11.0808 13.8508L11.0507 13.8811L11.0053 13.836Z" fill="#000001"/>
<path d="M12.5814 9.5697C12.5868 9.27636 12.7948 9.20703 12.7948 9.20703C12.8001 9.20703 13.0241 9.2817 13.0241 9.57503L12.5814 9.5697Z" fill="#FFFF00"/>
<path d="M12.4 9.21236L12.3627 9.54837H12.5867C12.5867 9.27103 12.8 9.22836 12.8 9.22836C12.8054 9.22836 13.0134 9.28703 13.0187 9.54837H13.2427L13.2 9.20703L12.4 9.21236ZM12.3467 9.5537H13.2534C13.2711 9.5537 13.2818 9.56614 13.2854 9.59103C13.2854 9.61948 13.2747 9.6337 13.2534 9.6337H12.3467C12.3289 9.6337 12.3183 9.61948 12.3147 9.59103C12.3147 9.56614 12.3271 9.5537 12.352 9.5537H12.3467Z" fill="#FFFF00" stroke="black" stroke-width="0.0266667"/>
<path d="M12.6774 9.54831C12.6774 9.37231 12.8001 9.32431 12.8001 9.32431C12.8001 9.32431 12.9227 9.37764 12.9227 9.54831H12.6774ZM12.3681 9.0683H13.2374C13.2552 9.07186 13.2658 9.08608 13.2694 9.11097C13.2694 9.12875 13.2587 9.13942 13.2374 9.14297H12.3681C12.3503 9.14297 12.3396 9.13053 12.3361 9.10564C12.3361 9.08786 12.3467 9.07719 12.3681 9.07364V9.0683ZM12.3894 9.14831H13.2107C13.2285 9.14831 13.2392 9.16075 13.2427 9.18564C13.2463 9.21053 13.2356 9.22297 13.2107 9.22297H12.3841C12.3627 9.22297 12.3521 9.21053 12.3521 9.18564C12.3521 9.16075 12.3627 9.14831 12.3841 9.14831H12.3894ZM12.6561 8.58297H12.7201V8.62564H12.7681V8.58297H12.8374V8.63097H12.8854V8.57764H12.9494V8.6843C12.9494 8.70564 12.9405 8.7163 12.9227 8.7163H12.6881C12.6703 8.7163 12.6596 8.70741 12.6561 8.68964V8.58297ZM12.9014 8.72697L12.9174 9.0683H12.6881L12.7041 8.72164H12.9014" fill="#FFFF00"/>
<path d="M12.9014 8.72697L12.9174 9.0683H12.6881L12.7041 8.72164H12.9014M12.6774 9.54831C12.6774 9.37231 12.8001 9.32431 12.8001 9.32431C12.8001 9.32431 12.9227 9.37764 12.9227 9.54831H12.6774ZM12.3681 9.0683H13.2374C13.2552 9.07186 13.2658 9.08608 13.2694 9.11097C13.2694 9.12875 13.2587 9.13942 13.2374 9.14297H12.3681C12.3503 9.14297 12.3396 9.13053 12.3361 9.10564C12.3361 9.08786 12.3467 9.07719 12.3681 9.07364V9.0683ZM12.3894 9.14831H13.2107C13.2285 9.14831 13.2392 9.16075 13.2427 9.18564C13.2463 9.21053 13.2356 9.22297 13.2107 9.22297H12.3841C12.3627 9.22297 12.3521 9.21053 12.3521 9.18564C12.3521 9.16075 12.3627 9.14831 12.3841 9.14831H12.3894ZM12.6561 8.58297H12.7201V8.62564H12.7681V8.58297H12.8374V8.63097H12.8854V8.57764H12.9494V8.6843C12.9494 8.70564 12.9405 8.7163 12.9227 8.7163H12.6881C12.6703 8.7163 12.6596 8.70741 12.6561 8.68964V8.58297Z" stroke="black" stroke-width="0.0266667"/>
<path d="M12.6241 8.88696V9.0683H12.4108V8.88696H12.6241Z" fill="#FFFF00" stroke="black" stroke-width="0.0266667"/>
<path d="M13.1894 8.88696V9.0683H12.9761V8.88696H13.1894Z" fill="#FFFF00" stroke="black" stroke-width="0.0266667"/>
<path d="M12.3734 8.74829H12.4374V8.80162H12.4854V8.74829H12.5494V8.80162H12.5974V8.74829H12.6614V8.85496C12.6614 8.87629 12.6525 8.88696 12.6347 8.88696H12.4054C12.3981 8.8843 12.3914 8.88005 12.3859 8.87452C12.3803 8.86899 12.3761 8.86231 12.3734 8.85496V8.74829Z" fill="#FFFF00" stroke="black" stroke-width="0.0266667"/>
<path d="M12.9387 8.74829H13.0027V8.80162H13.0507V8.74829H13.1147V8.80162H13.1627V8.74829H13.2267V8.85496C13.2267 8.87629 13.2178 8.88696 13.2001 8.88696H12.9707C12.9634 8.8843 12.9567 8.88005 12.9512 8.87452C12.9456 8.86899 12.9414 8.86231 12.9387 8.85496V8.74829Z" fill="#FFFF00" stroke="black" stroke-width="0.0266667"/>
<path d="M12.7787 8.83369C12.7787 8.80169 12.8267 8.80169 12.8267 8.83369V8.91903H12.7787V8.83369Z" fill="#000001"/>
<path d="M12.4961 8.951C12.4961 8.919 12.5388 8.919 12.5388 8.951V9.015H12.4961V8.951Z" fill="#000001"/>
<path d="M13.0614 8.951C13.0614 8.919 13.1041 8.919 13.1041 8.951V9.015H13.0614V8.951Z" fill="#000001"/>
<path d="M15.4454 9.5697C15.4401 9.27636 15.2321 9.20703 15.2321 9.20703C15.2268 9.20703 15.0028 9.2817 15.0028 9.57503L15.4454 9.5697Z" fill="#FFFF00"/>
<path d="M15.6268 9.21236L15.6642 9.54837H15.4402C15.4402 9.27103 15.2268 9.22836 15.2268 9.22836C15.2215 9.22836 15.0135 9.28703 15.0082 9.54837H14.7842L14.8268 9.20703L15.6268 9.21236ZM15.6802 9.5537H14.7735C14.7557 9.5537 14.745 9.56614 14.7415 9.59103C14.7415 9.61948 14.7522 9.6337 14.7735 9.6337H15.6802C15.6979 9.6337 15.7086 9.61948 15.7122 9.59103C15.7122 9.56614 15.6997 9.5537 15.6748 9.5537H15.6802Z" fill="#FFFF00" stroke="black" stroke-width="0.0266667"/>
<path d="M15.3495 9.54831C15.3495 9.37231 15.2268 9.32431 15.2268 9.32431C15.2268 9.32431 15.1041 9.37764 15.1041 9.54831H15.3495ZM15.6588 9.0683H14.7895C14.7717 9.07186 14.761 9.08608 14.7575 9.11097C14.7575 9.12875 14.7681 9.13942 14.7895 9.14297H15.6588C15.6766 9.14297 15.6872 9.13053 15.6908 9.10564C15.6908 9.08786 15.6801 9.07719 15.6588 9.07364V9.0683ZM15.6375 9.14831H14.8161C14.7983 9.14831 14.7877 9.16075 14.7841 9.18564C14.7806 9.21053 14.7912 9.22297 14.8161 9.22297H15.6428C15.6641 9.22297 15.6748 9.21053 15.6748 9.18564C15.6748 9.16075 15.6641 9.14831 15.6428 9.14831H15.6375ZM15.3708 8.58297H15.3068V8.62564H15.2588V8.58297H15.1895V8.63097H15.1415V8.57764H15.0775V8.6843C15.0775 8.70564 15.0863 8.7163 15.1041 8.7163H15.3388C15.3566 8.7163 15.3672 8.70741 15.3708 8.68964V8.58297ZM15.1255 8.72697L15.1095 9.0683H15.3388L15.3228 8.72164H15.1255" fill="#FFFF00"/>
<path d="M15.1255 8.72697L15.1095 9.0683H15.3388L15.3228 8.72164H15.1255M15.3495 9.54831C15.3495 9.37231 15.2268 9.32431 15.2268 9.32431C15.2268 9.32431 15.1041 9.37764 15.1041 9.54831H15.3495ZM15.6588 9.0683H14.7895C14.7717 9.07186 14.761 9.08608 14.7575 9.11097C14.7575 9.12875 14.7681 9.13942 14.7895 9.14297H15.6588C15.6766 9.14297 15.6872 9.13053 15.6908 9.10564C15.6908 9.08786 15.6801 9.07719 15.6588 9.07364V9.0683ZM15.6375 9.14831H14.8161C14.7983 9.14831 14.7877 9.16075 14.7841 9.18564C14.7806 9.21053 14.7912 9.22297 14.8161 9.22297H15.6428C15.6641 9.22297 15.6748 9.21053 15.6748 9.18564C15.6748 9.16075 15.6641 9.14831 15.6428 9.14831H15.6375ZM15.3708 8.58297H15.3068V8.62564H15.2588V8.58297H15.1895V8.63097H15.1415V8.57764H15.0775V8.6843C15.0775 8.70564 15.0863 8.7163 15.1041 8.7163H15.3388C15.3566 8.7163 15.3672 8.70741 15.3708 8.68964V8.58297Z" stroke="black" stroke-width="0.0266667"/>
<path d="M15.4028 8.88696V9.0683H15.6161V8.88696H15.4028Z" fill="#FFFF00" stroke="black" stroke-width="0.0266667"/>
<path d="M14.8374 8.88696V9.0683H15.0508V8.88696H14.8374Z" fill="#FFFF00" stroke="black" stroke-width="0.0266667"/>
<path d="M15.6534 8.74829H15.5894V8.80162H15.5414V8.74829H15.4774V8.80162H15.4294V8.74829H15.3654V8.85496C15.3654 8.87629 15.3743 8.88696 15.3921 8.88696H15.6214C15.6288 8.8843 15.6355 8.88005 15.641 8.87452C15.6465 8.86899 15.6508 8.86231 15.6534 8.85496V8.74829Z" fill="#FFFF00" stroke="black" stroke-width="0.0266667"/>
<path d="M15.0881 8.74829H15.0241V8.80162H14.9761V8.74829H14.9121V8.80162H14.8641V8.74829H14.8001V8.85496C14.8001 8.87629 14.809 8.88696 14.8268 8.88696H15.0561C15.0635 8.8843 15.0702 8.88005 15.0757 8.87452C15.0812 8.86899 15.0855 8.86231 15.0881 8.85496V8.74829Z" fill="#FFFF00" stroke="black" stroke-width="0.0266667"/>
<path d="M15.2482 8.83369C15.2482 8.80169 15.2002 8.80169 15.2002 8.83369V8.91903H15.2482V8.83369Z" fill="#000001"/>
<path d="M15.5308 8.951C15.5308 8.919 15.4881 8.919 15.4881 8.951V9.015H15.5308V8.951Z" fill="#000001"/>
<path d="M14.9655 8.951C14.9655 8.919 14.9228 8.919 14.9228 8.951V9.015H14.9655V8.951Z" fill="#000001"/>
<path d="M15.4456 12.0391C15.4402 11.7457 15.2322 11.6764 15.2322 11.6764C15.2269 11.6764 15.0029 11.7511 15.0029 12.0444L15.4456 12.0391Z" fill="#FFFF00"/>
<path d="M15.6269 11.6817L15.6643 12.0177H15.4403C15.4403 11.7404 15.2269 11.6977 15.2269 11.6977C15.2216 11.6977 15.0136 11.7564 15.0083 12.0177H14.7843L14.8269 11.6764L15.6269 11.6817ZM15.6803 12.0231H14.7736C14.7558 12.0231 14.7452 12.0355 14.7416 12.0604C14.7416 12.0888 14.7523 12.1031 14.7736 12.1031H15.6803C15.6981 12.1031 15.7087 12.0888 15.7123 12.0604C15.7123 12.0355 15.6998 12.0231 15.6749 12.0231H15.6803Z" fill="#FFFF00" stroke="black" stroke-width="0.0266667"/>
<path d="M15.3496 12.0177C15.3496 11.8417 15.2269 11.7937 15.2269 11.7937C15.2269 11.7937 15.1042 11.847 15.1042 12.0177H15.3496ZM15.6589 11.5377H14.7896C14.7718 11.5412 14.7611 11.5554 14.7576 11.5803C14.7576 11.5981 14.7682 11.6088 14.7896 11.6123H15.6589C15.6767 11.6123 15.6874 11.5999 15.6909 11.575C15.6909 11.5572 15.6803 11.5466 15.6589 11.543V11.5377ZM15.6376 11.6177H14.8162C14.7985 11.6177 14.7878 11.6301 14.7842 11.655C14.7807 11.6799 14.7914 11.6923 14.8162 11.6923H15.6429C15.6643 11.6923 15.6749 11.6799 15.6749 11.655C15.6749 11.6301 15.6643 11.6177 15.6429 11.6177H15.6376ZM15.3709 11.0523H15.3069V11.095H15.2589V11.0523H15.1896V11.1003H15.1416V11.047H15.0776V11.1537C15.0776 11.175 15.0865 11.1857 15.1042 11.1857H15.3389C15.3567 11.1857 15.3674 11.1768 15.3709 11.159V11.0523ZM15.1256 11.1963L15.1096 11.5377H15.3389L15.3229 11.191H15.1256" fill="#FFFF00"/>
<path d="M15.1256 11.1963L15.1096 11.5377H15.3389L15.3229 11.191H15.1256M15.3496 12.0177C15.3496 11.8417 15.2269 11.7937 15.2269 11.7937C15.2269 11.7937 15.1042 11.847 15.1042 12.0177H15.3496ZM15.6589 11.5377H14.7896C14.7718 11.5412 14.7611 11.5554 14.7576 11.5803C14.7576 11.5981 14.7682 11.6088 14.7896 11.6123H15.6589C15.6767 11.6123 15.6874 11.5999 15.6909 11.575C15.6909 11.5572 15.6803 11.5466 15.6589 11.543V11.5377ZM15.6376 11.6177H14.8162C14.7985 11.6177 14.7878 11.6301 14.7842 11.655C14.7807 11.6799 14.7914 11.6923 14.8162 11.6923H15.6429C15.6643 11.6923 15.6749 11.6799 15.6749 11.655C15.6749 11.6301 15.6643 11.6177 15.6429 11.6177H15.6376ZM15.3709 11.0523H15.3069V11.095H15.2589V11.0523H15.1896V11.1003H15.1416V11.047H15.0776V11.1537C15.0776 11.175 15.0865 11.1857 15.1042 11.1857H15.3389C15.3567 11.1857 15.3674 11.1768 15.3709 11.159V11.0523Z" stroke="black" stroke-width="0.0266667"/>
<path d="M15.4029 11.3563V11.5377H15.6162V11.3563H15.4029Z" fill="#FFFF00" stroke="black" stroke-width="0.0266667"/>
<path d="M14.8376 11.3563V11.5377H15.0509V11.3563H14.8376Z" fill="#FFFF00" stroke="black" stroke-width="0.0266667"/>
<path d="M15.6536 11.2177H15.5896V11.271H15.5416V11.2177H15.4776V11.271H15.4296V11.2177H15.3656V11.3243C15.3656 11.3457 15.3745 11.3563 15.3922 11.3563H15.6216C15.6289 11.3537 15.6356 11.3494 15.6411 11.3439C15.6467 11.3384 15.6509 11.3317 15.6536 11.3243V11.2177Z" fill="#FFFF00" stroke="black" stroke-width="0.0266667"/>
<path d="M15.0883 11.2177H15.0243V11.271H14.9763V11.2177H14.9123V11.271H14.8643V11.2177H14.8003V11.3243C14.8003 11.3457 14.8091 11.3563 14.8269 11.3563H15.0563C15.0636 11.3537 15.0703 11.3494 15.0758 11.3439C15.0813 11.3384 15.0856 11.3317 15.0883 11.3243V11.2177Z" fill="#FFFF00" stroke="black" stroke-width="0.0266667"/>
<path d="M15.2483 11.3031C15.2483 11.2711 15.2003 11.2711 15.2003 11.3031V11.3884H15.2483V11.3031Z" fill="#000001"/>
<path d="M15.5309 11.4204C15.5309 11.3884 15.4882 11.3884 15.4882 11.4204V11.4844H15.5309V11.4204Z" fill="#000001"/>
<path d="M14.9656 11.4204C14.9656 11.3884 14.9229 11.3884 14.9229 11.4204V11.4844H14.9656V11.4204Z" fill="#000001"/>
<path d="M14.4833 14.6125C14.6876 14.402 14.5903 14.2056 14.5903 14.2056C14.5865 14.2018 14.3757 14.0954 14.1676 14.3021L14.4833 14.6125Z" fill="#FFFF00"/>
<path d="M14.8646 14.4893L14.6524 14.7526L14.4946 14.5937C14.6914 14.3982 14.5713 14.2168 14.5713 14.2168C14.5676 14.213 14.3794 14.1068 14.1902 14.2871L14.0324 14.1282L14.3046 13.9179L14.8646 14.4893ZM14.6599 14.7677L14.0211 14.1244C14.0085 14.1117 13.9922 14.1129 13.972 14.128C13.9518 14.148 13.9493 14.1656 13.9643 14.1807L14.6032 14.8241C14.6157 14.8367 14.6333 14.8342 14.656 14.8167C14.6737 14.7992 14.6737 14.7816 14.6562 14.7639L14.6599 14.7677Z" fill="#FFFF00" stroke="black" stroke-width="0.0266667"/>
<path d="M14.4308 14.5294C14.5557 14.4054 14.5033 14.2845 14.5033 14.2845C14.5033 14.2845 14.3791 14.2351 14.258 14.3553L14.4308 14.5294ZM14.9894 14.4107L14.3768 13.7938C14.3618 13.7837 14.3442 13.7862 14.324 13.8012C14.3114 13.8137 14.3113 13.8288 14.3239 13.8464L14.9364 14.4633C14.9489 14.4759 14.9653 14.4747 14.9855 14.4597C14.9981 14.4472 14.9981 14.4321 14.9856 14.4144L14.9894 14.4107ZM14.9176 14.4519L14.3389 13.8691C14.3263 13.8565 14.31 13.8577 14.2898 13.8727C14.2697 13.8877 14.2683 13.9041 14.2859 13.9217L14.8684 14.5083C14.8834 14.5234 14.8998 14.5223 14.9174 14.5047C14.9351 14.4872 14.9364 14.4708 14.9214 14.4557L14.9176 14.4519ZM15.1308 13.8643L15.0857 13.8189L15.0555 13.849L15.0216 13.8149L15.0519 13.7849L15.0031 13.7357L14.969 13.7695L14.9352 13.7354L14.973 13.6979L14.9279 13.6524L14.8522 13.7276C14.8371 13.7426 14.8358 13.7565 14.8483 13.7691L15.0137 13.9356C15.0262 13.9482 15.04 13.9495 15.0552 13.9395L15.1308 13.8643ZM14.8558 13.7917L14.6023 14.0209L14.7639 14.1836L14.9986 13.928L14.8596 13.788" fill="#FFFF00"/>
<path d="M14.8558 13.7917L14.6023 14.0209L14.7639 14.1836L14.9986 13.928L14.8596 13.788M14.4308 14.5294C14.5557 14.4054 14.5033 14.2845 14.5033 14.2845C14.5033 14.2845 14.3791 14.2351 14.258 14.3553L14.4308 14.5294ZM14.9894 14.4107L14.3768 13.7938C14.3618 13.7837 14.3442 13.7862 14.324 13.8012C14.3114 13.8137 14.3113 13.8288 14.3239 13.8464L14.9364 14.4633C14.9489 14.4759 14.9653 14.4747 14.9855 14.4597C14.9981 14.4472 14.9981 14.4321 14.9856 14.4144L14.9894 14.4107ZM14.9176 14.4519L14.3389 13.8691C14.3263 13.8565 14.31 13.8577 14.2898 13.8727C14.2697 13.8877 14.2683 13.9041 14.2859 13.9217L14.8684 14.5083C14.8834 14.5234 14.8998 14.5223 14.9174 14.5047C14.9351 14.4872 14.9364 14.4708 14.9214 14.4557L14.9176 14.4519ZM15.1308 13.8643L15.0857 13.8189L15.0555 13.849L15.0216 13.8149L15.0519 13.7849L15.0031 13.7357L14.969 13.7695L14.9352 13.7354L14.973 13.6979L14.9279 13.6524L14.8522 13.7276C14.8371 13.7426 14.8358 13.7565 14.8483 13.7691L15.0137 13.9356C15.0262 13.9482 15.04 13.9495 15.0552 13.9395L15.1308 13.8643Z" stroke="black" stroke-width="0.0266667"/>
<path d="M14.9377 14.1012L14.809 14.229L14.9593 14.3803L15.088 14.2526L14.9377 14.1012Z" fill="#FFFF00" stroke="black" stroke-width="0.0266667"/>
<path d="M14.5394 13.7001L14.4107 13.8278L14.561 13.9792L14.6897 13.8514L14.5394 13.7001Z" fill="#FFFF00" stroke="black" stroke-width="0.0266667"/>
<path d="M15.2126 14.1814L15.1675 14.136L15.1297 14.1736L15.0959 14.1395L15.1337 14.1019L15.0886 14.0565L15.0508 14.0941L15.017 14.06L15.0548 14.0225L15.0097 13.977L14.934 14.0522C14.9189 14.0672 14.9176 14.0811 14.9301 14.0937L15.0917 14.2564C15.0988 14.2597 15.1065 14.2615 15.1143 14.2615C15.1221 14.2615 15.1299 14.2599 15.137 14.2566L15.2126 14.1814Z" fill="#FFFF00" stroke="black" stroke-width="0.0266667"/>
<path d="M14.8142 13.7803L14.7691 13.7349L14.7313 13.7724L14.6974 13.7384L14.7353 13.7008L14.6902 13.6554L14.6523 13.693L14.6185 13.6589L14.6564 13.6213L14.6113 13.5759L14.5356 13.6511C14.5204 13.6661 14.5191 13.6799 14.5317 13.6925L14.6933 13.8553C14.7003 13.8586 14.7081 13.8604 14.7159 13.8604C14.7237 13.8604 14.7314 13.8587 14.7385 13.8554L14.8142 13.7803Z" fill="#FFFF00" stroke="black" stroke-width="0.0266667"/>
<path d="M14.8665 13.9539C14.8892 13.9314 14.8554 13.8973 14.8327 13.9199L14.7721 13.98L14.806 14.0141L14.8665 13.9539Z" fill="#000001"/>
<path d="M14.9824 14.2371C15.0051 14.2146 14.975 14.1843 14.9523 14.2069L14.9069 14.2519L14.9369 14.2822L14.9824 14.2371Z" fill="#000001"/>
<path d="M14.584 13.836C14.6068 13.8135 14.5767 13.7832 14.554 13.8057L14.5086 13.8508L14.5386 13.8811L14.584 13.836Z" fill="#000001"/>
<path d="M12.4054 12.1297C12.4027 12.2426 12.4449 12.3519 12.5227 12.4337C12.5579 12.4741 12.6014 12.5064 12.6501 12.5285C12.6989 12.5506 12.7519 12.5619 12.8054 12.5617C12.9192 12.5546 13.0134 12.5119 13.0881 12.4337C13.1658 12.3519 13.208 12.2426 13.2054 12.1297V11.5537H12.4054V12.1297Z" fill="#003399"/>
<path d="M12.592 11.8524C12.6361 11.8524 12.672 11.8166 12.672 11.7724C12.672 11.7282 12.6361 11.6924 12.592 11.6924C12.5478 11.6924 12.512 11.7282 12.512 11.7724C12.512 11.8166 12.5478 11.8524 12.592 11.8524Z" fill="white"/>
<path d="M13.0347 11.8524C13.0789 11.8524 13.1147 11.8166 13.1147 11.7724C13.1147 11.7282 13.0789 11.6924 13.0347 11.6924C12.9905 11.6924 12.9547 11.7282 12.9547 11.7724C12.9547 11.8166 12.9905 11.8524 13.0347 11.8524Z" fill="white"/>
<path d="M12.8107 12.0658C12.8549 12.0658 12.8907 12.0299 12.8907 11.9858C12.8907 11.9416 12.8549 11.9058 12.8107 11.9058C12.7665 11.9058 12.7307 11.9416 12.7307 11.9858C12.7307 12.0299 12.7665 12.0658 12.8107 12.0658Z" fill="white"/>
<path d="M12.592 12.2896C12.6361 12.2896 12.672 12.2538 12.672 12.2096C12.672 12.1655 12.6361 12.1296 12.592 12.1296C12.5478 12.1296 12.512 12.1655 12.512 12.2096C12.512 12.2538 12.5478 12.2896 12.592 12.2896Z" fill="white"/>
<path d="M13.0347 12.2896C13.0789 12.2896 13.1147 12.2538 13.1147 12.2096C13.1147 12.1655 13.0789 12.1296 13.0347 12.1296C12.9905 12.1296 12.9547 12.1655 12.9547 12.2096C12.9547 12.2538 12.9905 12.2896 13.0347 12.2896Z" fill="white"/>
<path d="M12.4054 10.743C12.4027 10.8559 12.4449 10.9652 12.5227 11.047C12.5579 11.0874 12.6014 11.1197 12.6501 11.1418C12.6989 11.1638 12.7519 11.1752 12.8054 11.175C12.9192 11.1679 13.0134 11.1252 13.0881 11.047C13.1658 10.9652 13.208 10.8559 13.2054 10.743V10.167H12.4054V10.743Z" fill="#003399"/>
<path d="M12.592 10.4657C12.6361 10.4657 12.672 10.4298 12.672 10.3857C12.672 10.3415 12.6361 10.3057 12.592 10.3057C12.5478 10.3057 12.512 10.3415 12.512 10.3857C12.512 10.4298 12.5478 10.4657 12.592 10.4657Z" fill="white"/>
<path d="M13.0347 10.4657C13.0789 10.4657 13.1147 10.4298 13.1147 10.3857C13.1147 10.3415 13.0789 10.3057 13.0347 10.3057C12.9905 10.3057 12.9547 10.3415 12.9547 10.3857C12.9547 10.4298 12.9905 10.4657 13.0347 10.4657Z" fill="white"/>
<path d="M12.8107 10.679C12.8549 10.679 12.8907 10.6432 12.8907 10.599C12.8907 10.5549 12.8549 10.519 12.8107 10.519C12.7665 10.519 12.7307 10.5549 12.7307 10.599C12.7307 10.6432 12.7665 10.679 12.8107 10.679Z" fill="white"/>
<path d="M12.592 10.903C12.6361 10.903 12.672 10.8672 12.672 10.823C12.672 10.7789 12.6361 10.743 12.592 10.743C12.5478 10.743 12.512 10.7789 12.512 10.823C12.512 10.8672 12.5478 10.903 12.592 10.903Z" fill="white"/>
<path d="M13.0347 10.903C13.0789 10.903 13.1147 10.8672 13.1147 10.823C13.1147 10.7789 13.0789 10.743 13.0347 10.743C12.9905 10.743 12.9547 10.7789 12.9547 10.823C12.9547 10.8672 12.9905 10.903 13.0347 10.903Z" fill="white"/>
<path d="M11.296 12.1297C11.2934 12.2426 11.3356 12.3519 11.4133 12.4337C11.4485 12.4741 11.492 12.5064 11.5408 12.5285C11.5895 12.5506 11.6425 12.5619 11.696 12.5617C11.8098 12.5546 11.904 12.5119 11.9787 12.4337C12.0565 12.3519 12.0987 12.2426 12.096 12.1297V11.5537H11.296V12.1297Z" fill="#003399"/>
<path d="M11.4826 11.8524C11.5268 11.8524 11.5626 11.8166 11.5626 11.7724C11.5626 11.7282 11.5268 11.6924 11.4826 11.6924C11.4384 11.6924 11.4026 11.7282 11.4026 11.7724C11.4026 11.8166 11.4384 11.8524 11.4826 11.8524Z" fill="white"/>
<path d="M11.9253 11.8524C11.9695 11.8524 12.0053 11.8166 12.0053 11.7724C12.0053 11.7282 11.9695 11.6924 11.9253 11.6924C11.8812 11.6924 11.8453 11.7282 11.8453 11.7724C11.8453 11.8166 11.8812 11.8524 11.9253 11.8524Z" fill="white"/>
<path d="M11.7013 12.0658C11.7455 12.0658 11.7813 12.0299 11.7813 11.9858C11.7813 11.9416 11.7455 11.9058 11.7013 11.9058C11.6572 11.9058 11.6213 11.9416 11.6213 11.9858C11.6213 12.0299 11.6572 12.0658 11.7013 12.0658Z" fill="white"/>
<path d="M11.4826 12.2896C11.5268 12.2896 11.5626 12.2538 11.5626 12.2096C11.5626 12.1655 11.5268 12.1296 11.4826 12.1296C11.4384 12.1296 11.4026 12.1655 11.4026 12.2096C11.4026 12.2538 11.4384 12.2896 11.4826 12.2896Z" fill="white"/>
<path d="M11.9253 12.2896C11.9695 12.2896 12.0053 12.2538 12.0053 12.2096C12.0053 12.1655 11.9695 12.1296 11.9253 12.1296C11.8812 12.1296 11.8453 12.1655 11.8453 12.2096C11.8453 12.2538 11.8812 12.2896 11.9253 12.2896Z" fill="white"/>
<path d="M13.5146 12.1297C13.512 12.2426 13.5542 12.3519 13.632 12.4337C13.6672 12.4741 13.7106 12.5064 13.7594 12.5285C13.8082 12.5506 13.8611 12.5619 13.9146 12.5617C14.0284 12.5546 14.1226 12.5119 14.1973 12.4337C14.2751 12.3519 14.3173 12.2426 14.3146 12.1297V11.5537H13.5146V12.1297Z" fill="#003399"/>
<path d="M13.7012 11.8524C13.7454 11.8524 13.7812 11.8166 13.7812 11.7724C13.7812 11.7282 13.7454 11.6924 13.7012 11.6924C13.657 11.6924 13.6212 11.7282 13.6212 11.7724C13.6212 11.8166 13.657 11.8524 13.7012 11.8524Z" fill="white"/>
<path d="M14.1438 11.8524C14.188 11.8524 14.2238 11.8166 14.2238 11.7724C14.2238 11.7282 14.188 11.6924 14.1438 11.6924C14.0997 11.6924 14.0638 11.7282 14.0638 11.7724C14.0638 11.8166 14.0997 11.8524 14.1438 11.8524Z" fill="white"/>
<path d="M13.92 12.0658C13.9641 12.0658 14 12.0299 14 11.9858C14 11.9416 13.9641 11.9058 13.92 11.9058C13.8758 11.9058 13.84 11.9416 13.84 11.9858C13.84 12.0299 13.8758 12.0658 13.92 12.0658Z" fill="white"/>
<path d="M13.7012 12.2896C13.7454 12.2896 13.7812 12.2538 13.7812 12.2096C13.7812 12.1655 13.7454 12.1296 13.7012 12.1296C13.657 12.1296 13.6212 12.1655 13.6212 12.2096C13.6212 12.2538 13.657 12.2896 13.7012 12.2896Z" fill="white"/>
<path d="M14.1438 12.2896C14.188 12.2896 14.2238 12.2538 14.2238 12.2096C14.2238 12.1655 14.188 12.1296 14.1438 12.1296C14.0997 12.1296 14.0638 12.1655 14.0638 12.2096C14.0638 12.2538 14.0997 12.2896 14.1438 12.2896Z" fill="white"/>
<path d="M12.4054 13.5057C12.4027 13.6186 12.4449 13.7279 12.5227 13.8097C12.5579 13.85 12.6014 13.8824 12.6501 13.9044C12.6989 13.9265 12.7519 13.9379 12.8054 13.9377C12.9192 13.9306 13.0134 13.8879 13.0881 13.8097C13.1658 13.7279 13.208 13.6186 13.2054 13.5057V12.9297H12.4054V13.5057Z" fill="#003399"/>
<path d="M12.592 13.2284C12.6361 13.2284 12.672 13.1925 12.672 13.1484C12.672 13.1042 12.6361 13.0684 12.592 13.0684C12.5478 13.0684 12.512 13.1042 12.512 13.1484C12.512 13.1925 12.5478 13.2284 12.592 13.2284Z" fill="white"/>
<path d="M13.0347 13.2284C13.0789 13.2284 13.1147 13.1925 13.1147 13.1484C13.1147 13.1042 13.0789 13.0684 13.0347 13.0684C12.9905 13.0684 12.9547 13.1042 12.9547 13.1484C12.9547 13.1925 12.9905 13.2284 13.0347 13.2284Z" fill="white"/>
<path d="M12.8107 13.4417C12.8549 13.4417 12.8907 13.4059 12.8907 13.3617C12.8907 13.3176 12.8549 13.2817 12.8107 13.2817C12.7665 13.2817 12.7307 13.3176 12.7307 13.3617C12.7307 13.4059 12.7665 13.4417 12.8107 13.4417Z" fill="white"/>
<path d="M12.592 13.6657C12.6361 13.6657 12.672 13.6299 12.672 13.5857C12.672 13.5416 12.6361 13.5057 12.592 13.5057C12.5478 13.5057 12.512 13.5416 12.512 13.5857C12.512 13.6299 12.5478 13.6657 12.592 13.6657Z" fill="white"/>
<path d="M13.0347 13.6657C13.0789 13.6657 13.1147 13.6299 13.1147 13.5857C13.1147 13.5416 13.0789 13.5057 13.0347 13.5057C12.9905 13.5057 12.9547 13.5416 12.9547 13.5857C12.9547 13.6299 12.9905 13.6657 13.0347 13.6657Z" fill="white"/>
</g>
<defs>
<clipPath id="clip0_8001_4820">
<rect width="32" height="24" fill="white"/>
</clipPath>
</defs>
</svg>
