<svg width="32" height="24" viewBox="0 0 32 24" fill="none" xmlns="http://www.w3.org/2000/svg">
<g clip-path="url(#clip0_8001_4825)">
<mask id="mask0_8001_4825" style="mask-type:luminance" maskUnits="userSpaceOnUse" x="-1" y="0" width="33" height="24">
<path d="M0.00175783 0H31.9986V24H-0.00292969L0.00175783 0Z" fill="white"/>
</mask>
<g mask="url(#mask0_8001_4825)">
<path fill-rule="evenodd" clip-rule="evenodd" d="M-2.20129 0H45.7987V24H-2.20129V0Z" fill="white"/>
<path fill-rule="evenodd" clip-rule="evenodd" d="M-2.20117 15.9984H45.7988V24H-2.20117V15.9984Z" fill="#D50000"/>
<path fill-rule="evenodd" clip-rule="evenodd" d="M-2.20117 8.00159H45.7988V15.9985H-2.20117V8.00159Z" fill="#0000BF"/>
<path fill-rule="evenodd" clip-rule="evenodd" d="M11.4114 4.35938C11.2239 7.24687 11.1114 8.83125 10.6754 9.5625C10.1973 10.35 9.73792 10.9266 7.87698 11.625C6.02073 10.9266 5.56135 10.35 5.08323 9.5625C4.6426 8.83125 4.53479 7.24687 4.34729 4.35938L4.61917 4.26562C5.17229 4.09688 5.58479 3.96094 5.88948 3.9C6.32542 3.80625 6.70041 3.70312 7.87229 3.67969C9.04416 3.69844 9.41917 3.81094 9.8551 3.90469C10.1582 3.97031 10.5848 4.09062 11.1348 4.26562L11.4114 4.35938Z" fill="#D50000"/>
<path fill-rule="evenodd" clip-rule="evenodd" d="M11.1395 4.26562C10.9613 7.14844 10.8113 8.47031 10.577 9.10312C10.127 10.1906 9.41445 10.7859 7.87695 11.3531C6.33945 10.7859 5.62695 10.1906 5.17227 9.10312C4.93789 8.46562 4.79727 7.14844 4.61914 4.26094C5.16289 4.08594 5.58633 3.96562 5.88945 3.9C6.32539 3.80625 6.70039 3.69844 7.87227 3.67969C9.04414 3.69844 9.41914 3.80625 9.85508 3.9C10.289 3.99877 10.7176 4.11923 11.1395 4.26094V4.26562Z" fill="#0000BF"/>
<path fill-rule="evenodd" clip-rule="evenodd" d="M7.87693 5.14685L7.94724 5.32029L8.27537 5.36716L8.06443 5.49373L8.26599 5.62966L7.97068 5.67654L7.87693 5.83591L7.78318 5.67185L7.50193 5.63435L7.68943 5.49373L7.49255 5.36716L7.80662 5.32029L7.87693 5.14685Z" fill="#FFDF00"/>
<path fill-rule="evenodd" clip-rule="evenodd" d="M10.4692 8.41873L10.2864 8.2781L10.1598 8.06248L9.90667 7.84216L9.77073 7.62185L9.5176 7.39216L9.39573 7.17185L9.2551 7.06404L9.17073 6.97498L8.93635 7.17654L8.81448 7.39685L8.65979 7.53748L8.48635 7.40154L8.35979 7.17654L7.87698 6.31873L7.39417 7.17654L7.2676 7.40154L7.09417 7.53748L6.93948 7.39685L6.81292 7.17654L6.58323 6.97498L6.49417 7.05935L6.35823 7.17185L6.23635 7.39216L5.98323 7.62185L5.84729 7.84216L5.59417 8.06248L5.4676 8.2781L5.28479 8.41873C5.38847 9.06374 5.69367 9.65938 6.15667 10.1203C6.65953 10.5507 7.24261 10.8773 7.87229 11.0812C8.50682 10.8819 9.09386 10.5549 9.59729 10.1203C9.86916 9.83904 10.3754 9.2156 10.4692 8.41873Z" fill="white"/>
<path fill-rule="evenodd" clip-rule="evenodd" d="M8.64568 3.93286L8.72068 4.1063L9.0488 4.15317L8.83318 4.27974L9.03943 4.41567L8.74412 4.46255L8.65037 4.62192L8.55662 4.45786L8.27537 4.42036L8.46287 4.27974L8.26599 4.15317L8.57537 4.1063L8.64568 3.93286ZM7.0988 3.93286L7.1738 4.1063L7.50193 4.14849L7.29099 4.27505L7.49255 4.41099L7.19724 4.45786L7.10349 4.61724L7.00974 4.45786L6.72849 4.41567L6.91599 4.27505L6.71912 4.14849L7.03318 4.10161L7.0988 3.93286Z" fill="#FFDF00"/>
<path fill-rule="evenodd" clip-rule="evenodd" d="M10.066 9.51567H9.71914L9.39102 9.49224L9.00195 9.30474H8.56133L8.18164 9.49224L7.87695 9.52036L7.57695 9.49224L7.19727 9.30474H6.75195L6.3582 9.49224L6.03477 9.52036L5.67852 9.51567L5.50977 9.22505L5.51445 9.21567L6.03945 9.30474L6.36289 9.2813L6.75195 9.08911H7.19258L7.57695 9.27661L7.87695 9.30474L8.18164 9.27661L8.56133 9.08911H9.00195L9.3957 9.27661L9.71914 9.30474L10.2254 9.21099L10.2348 9.22974L10.066 9.51567ZM6.01602 9.96099L6.36289 9.93755L6.75195 9.75005H7.19258L7.57695 9.93755L7.87695 9.96099L8.17695 9.93755L8.56133 9.75005H9.00195L9.39102 9.93755L9.74258 9.96099L9.96758 9.67974H9.96289L9.71914 9.74536L9.3957 9.72192L9.00664 9.53442H8.56602L8.18164 9.72192L7.88164 9.75005L7.57695 9.72192L7.19727 9.53442H6.75195L6.3582 9.72192L6.03477 9.75005L5.80039 9.68911V9.69849L6.01133 9.96099H6.01602Z" fill="#0000BF"/>
</g>
</g>
<defs>
<clipPath id="clip0_8001_4825">
<rect width="32" height="24" fill="white"/>
</clipPath>
</defs>
</svg>
