<svg width="32" height="24" viewBox="0 0 32 24" fill="none" xmlns="http://www.w3.org/2000/svg">
<g clip-path="url(#clip0_8001_4824)">
<path d="M0 0H32V24H0V0Z" fill="#EE1C25"/>
<path d="M0 0H32V16H0V0Z" fill="#0B4EA2"/>
<path d="M0 0H32V8H0V0Z" fill="white"/>
<path d="M11.6502 18.54C9.50017 17.505 6.42017 15.445 6.42017 11.38C6.42017 7.30996 6.62017 5.45996 6.62017 5.45996H16.6852C16.6852 5.45996 16.8802 7.30996 16.8802 11.38C16.8802 15.45 13.8002 17.5 11.6502 18.54Z" fill="white"/>
<path d="M11.6501 18C9.6751 17.05 6.8501 15.16 6.8501 11.43C6.8501 7.7 7.0301 6 7.0301 6H16.2701C16.2701 6 16.4451 7.7 16.4451 11.43C16.4501 15.165 13.6251 17.05 11.6501 18Z" fill="#EE1C25"/>
<path d="M12.0701 10.4501C12.6051 10.4601 13.6501 10.4801 14.5751 10.1701C14.5751 10.1701 14.5551 10.5051 14.5551 10.8901C14.5551 11.2751 14.5801 11.6101 14.5801 11.6101C13.7301 11.3251 12.6751 11.3201 12.0701 11.3251V13.3851H11.2301V11.3251C10.6301 11.3201 9.5751 11.3251 8.7251 11.6101C8.7251 11.6101 8.7501 11.2751 8.7501 10.8901C8.7501 10.5051 8.7251 10.1701 8.7251 10.1701C9.6501 10.4801 10.6951 10.4601 11.2251 10.4501V9.15506C10.7401 9.15506 10.0401 9.17506 9.2451 9.44006C9.2451 9.44006 9.2701 9.11006 9.2701 8.72006C9.2701 8.33506 9.2451 8.00006 9.2451 8.00006C10.0401 8.26506 10.7401 8.29006 11.2251 8.28506C11.2001 7.46506 10.9601 6.43506 10.9601 6.43506C10.9601 6.43506 11.4551 6.47006 11.6501 6.47006C11.8451 6.47006 12.3401 6.43506 12.3401 6.43506C12.3401 6.43506 12.1001 7.46506 12.0751 8.28506C12.5601 8.29006 13.2601 8.26506 14.0551 8.00006C14.0551 8.00006 14.0301 8.33506 14.0301 8.72006C14.0301 9.10506 14.0551 9.44006 14.0551 9.44006C13.4143 9.23344 12.7431 9.13707 12.0701 9.15506V10.4551V10.4501Z" fill="white"/>
<path d="M11.6501 13.165C10.6551 13.165 10.1251 14.54 10.1251 14.54C10.1251 14.54 9.82505 13.89 9.01505 13.89C8.46505 13.89 8.06505 14.375 7.80505 14.83C8.80505 16.415 10.4001 17.395 11.6501 18C12.9001 17.4 14.5001 16.415 15.4951 14.83C15.2351 14.38 14.8351 13.89 14.2851 13.89C13.4751 13.89 13.1751 14.54 13.1751 14.54C13.1751 14.54 12.6501 13.165 11.6501 13.165Z" fill="#0B4EA2"/>
</g>
<defs>
<clipPath id="clip0_8001_4824">
<rect width="32" height="24" fill="white"/>
</clipPath>
</defs>
</svg>
