<svg width="179" height="40" viewBox="0 0 179 40" fill="none" xmlns="http://www.w3.org/2000/svg">
<path fill-rule="evenodd" clip-rule="evenodd" d="M20.051 0C31.1248 0 40.1019 8.9543 40.1019 20C40.1019 31.0457 31.1248 40 20.051 40C8.97713 40 0 31.0457 0 20C0 8.9543 8.97713 0 20.051 0ZM17.1312 7.60773C8.7559 7.60773 1.96637 14.38 1.96637 22.734C1.96637 24.5017 2.27036 26.1986 2.82903 27.7754C2.771 27.3215 2.74099 26.8589 2.74099 26.3893C2.74099 20.4151 7.59638 15.5721 13.5858 15.5721C19.5752 15.5721 24.4306 20.4151 24.4306 26.3893C24.4306 32.3635 19.5752 37.2065 13.5858 37.2065C13.2362 37.2065 12.8905 37.19 12.5493 37.1578C13.9949 37.6141 15.5342 37.8603 17.1312 37.8603C25.5065 37.8603 32.2961 31.0881 32.2961 22.734C32.2961 14.38 25.5065 7.60773 17.1312 7.60773ZM10.964 22.1694C7.31109 22.1694 4.34984 25.1231 4.34984 28.7667C4.34984 30.0521 4.71839 31.2517 5.35584 32.266C5.95509 33.0019 6.62248 33.6805 7.34829 34.2924C8.3876 34.9699 9.62965 35.364 10.964 35.364C14.6169 35.364 17.5781 32.4103 17.5781 28.7667C17.5781 25.1231 14.6169 22.1694 10.964 22.1694Z" fill="white"/>
<path fill-rule="evenodd" clip-rule="evenodd" d="M53.3527 4.01183V5.12921H50.2346C49.9875 5.16042 49.8061 5.233 49.6904 5.34695C49.5748 5.4609 49.5073 5.63341 49.488 5.86448V7.33503L52.8694 7.37858V8.47971L49.488 8.52326V9.99707C49.4972 10.2297 49.5647 10.408 49.6904 10.5322C49.8162 10.6563 49.9976 10.7236 50.2346 10.734H53.3527V11.8757L50.2346 12.0044C49.5646 11.9986 49.0701 11.8987 48.7512 11.7049C48.4322 11.5111 48.23 11.1874 48.1444 10.734V5.34695C48.2025 4.83671 48.4047 4.45887 48.7512 4.21341C49.0976 3.96796 49.592 3.85214 50.2346 3.86596L53.3527 4.01183ZM54.1175 3.85669H55.5008V9.56151C55.5508 10.3836 56.129 10.7946 57.2354 10.7946C58.3418 10.7946 58.92 10.3836 58.97 9.56151V3.85669H60.3533V9.56151C60.3478 11.1873 59.3085 12.0002 57.2354 12.0002C55.1624 12.0002 54.123 11.1873 54.1175 9.56151V3.85669ZM61.8912 3.85669H63.2416L65.2067 10.3018L67.1719 3.85669H68.5222L69.4883 11.9567H68.1333L67.4808 6.20829L65.8184 11.9567H64.5951L62.9326 6.20829L62.2801 11.9567H60.9251L61.8912 3.85669ZM75.2292 4.01183V5.12921H72.1111C71.8641 5.16042 71.6827 5.233 71.567 5.34695C71.4513 5.4609 71.3838 5.63341 71.3646 5.86448V7.33503L74.746 7.37858V8.47971L71.3646 8.52326V9.99707C71.3738 10.2297 71.4412 10.408 71.567 10.5322C71.6928 10.6563 71.8741 10.7236 72.1111 10.734H75.2292V11.8757L72.1111 12.0044C71.4411 11.9986 70.9467 11.8987 70.6277 11.7049C70.3088 11.5111 70.1065 11.1874 70.021 10.734V5.34695C70.0791 4.83671 70.2813 4.45887 70.6277 4.21341C70.9741 3.96796 71.4686 3.85214 72.1111 3.86596L75.2292 4.01183ZM76.0162 3.85669H82.0325V5.10726L79.7197 5.12955V11.9567H78.329V5.12955H76.0162V3.85669ZM82.7781 3.85669H83.8887L87.5961 9.64861V3.85669H88.97V11.9567H87.8574L84.1726 6.20829V11.9567H82.7781V3.85669ZM95.0228 4.01183V5.12921H91.9047C91.6576 5.16042 91.4763 5.233 91.3606 5.34695C91.2449 5.4609 91.1774 5.63341 91.1581 5.86448V7.33503L94.5395 7.37858V8.47971L91.1581 8.52326V9.99707C91.1673 10.2297 91.2348 10.408 91.3606 10.5322C91.4863 10.6563 91.6677 10.7236 91.9047 10.734H95.0228V11.8757L91.9047 12.0044C91.2347 11.9986 90.7402 11.8987 90.4213 11.7049C90.1023 11.5111 89.9001 11.1874 89.8145 10.734V5.34695C89.8726 4.83671 90.0749 4.45887 90.4213 4.21341C90.7677 3.96796 91.2622 3.85214 91.9047 3.86596L95.0228 4.01183ZM95.764 3.85669H101.78V5.10726L99.4674 5.12955V11.9567H98.0768V5.12955H95.764V3.85669ZM49.9871 15.9019H53.2544L58.1286 31.9553L62.9742 15.9019H66.2453L68.6251 35.9487H65.3447L63.6584 21.6149L59.6776 35.9487H56.5202L52.5157 21.6948L50.9139 35.9487H47.6646L49.9871 15.9019ZM81.3764 22.3034C82.476 23.278 82.5836 25.0949 82.5836 26.032C82.5836 27.4948 82.3776 29.8929 78.0299 29.8929H73.7901C73.8247 31.3521 74.1311 32.3362 74.709 32.8455C75.1686 33.2738 76.0486 33.5123 77.3488 33.561H82.1488V35.5424C81.0979 35.7255 79.3966 36.1025 76.7981 36.0856C75.5315 36.0734 73.0434 35.9655 71.8229 34.4653C70.58 33.0178 70.4487 30.3907 70.4444 28.6288L70.4443 28.5336C70.4443 26.8219 70.5899 24.1317 71.8182 22.7663C73.0372 21.2943 75.5471 21.2083 76.7683 21.2042L76.888 21.204C78.0571 21.204 80.2824 21.3338 81.3764 22.3034ZM76.8858 23.6463C75.6842 23.6125 74.8613 23.8954 74.4172 24.495C73.9824 25.076 73.7602 26.1968 73.7508 27.8574H78.0224C78.569 27.8101 78.9681 27.6637 79.2198 27.4184C79.5974 27.0503 79.5974 26.3039 79.5974 26.099C79.5974 25.6203 79.5459 24.6078 78.8753 24.1161C78.4327 23.7838 77.7695 23.6272 76.8858 23.6463ZM86.254 21.3902L86.7465 17.3147H89.3882V21.3902H93.089V24.1062H89.3882L89.3889 31.0677C89.4052 31.7919 89.5521 32.3311 89.8296 32.6853C90.1071 33.0394 90.5404 33.2409 91.1296 33.2895L92.9266 33.4791V35.9488H90.1592C88.6706 35.8979 87.6099 35.4977 86.9772 34.7482C86.3442 34.0268 86.0314 32.7999 86.0389 31.0677L86.1464 24.1062H83.8581V21.9365L86.254 21.3902ZM105.781 22.3034C106.88 23.278 106.988 25.0949 106.988 26.032C106.988 27.4948 106.782 29.8929 102.434 29.8929H98.1945C98.2291 31.3521 98.5355 32.3362 99.1134 32.8455C99.573 33.2738 100.453 33.5123 101.753 33.561H106.553V35.5424C105.502 35.7255 103.801 36.1025 101.203 36.0856C99.9359 36.0734 97.4478 35.9655 96.2273 34.4653C94.9844 33.0178 94.8531 30.3907 94.8488 28.6288L94.8487 28.5336C94.8487 26.8219 94.9943 24.1317 96.2226 22.7663C97.4416 21.2943 99.9515 21.2083 101.173 21.2042L101.292 21.204C102.462 21.204 104.687 21.3338 105.781 22.3034ZM101.29 23.6463C100.089 23.6125 99.2657 23.8954 98.8217 24.495C98.3868 25.076 98.1646 26.1968 98.1552 27.8574H102.427C102.973 27.8101 103.373 27.6637 103.624 27.4184C104.002 27.0503 104.002 26.3039 104.002 26.099C104.002 25.6203 103.95 24.6078 103.28 24.1161C102.837 23.7838 102.174 23.6272 101.29 23.6463ZM120.889 22.8271C121.846 23.9092 122.319 25.8484 122.308 28.6448C122.35 31.3026 121.9 33.2167 120.958 34.3872C119.591 36.0292 117.241 36.0839 115.862 36.0857L115.729 36.0857C114.372 36.0857 111.892 35.9677 110.592 34.3872C109.643 33.3139 109.166 31.3998 109.162 28.6448C109.154 25.8361 109.623 23.8969 110.569 22.8271C111.92 21.2989 114.275 21.2094 115.547 21.2043L115.912 21.2042C117.182 21.2077 119.523 21.2813 120.889 22.8271ZM115.81 23.8518L115.694 23.8518C115.088 23.8527 113.895 23.8856 113.218 24.8973C112.758 25.5864 112.529 26.8356 112.533 28.6448C112.535 30.4195 112.767 31.6525 113.23 32.3439C113.863 33.362 115.072 33.438 115.733 33.438L115.818 33.438C116.493 33.436 117.621 33.3908 118.281 32.3439C118.74 31.5899 118.959 30.3569 118.938 28.6448C118.944 26.8435 118.713 25.5943 118.247 24.8973C117.577 23.8953 116.427 23.8535 115.81 23.8518ZM126.023 18.2605C127.183 16.4796 129.164 15.631 131.964 15.7147C134.12 15.7147 136.284 15.9856 138.456 16.5273V19.11C133.528 18.5381 130.634 18.6032 129.775 19.3052C127.826 20.5635 127.96 24.1148 127.944 25.8943C127.929 27.6739 127.935 31.608 129.68 32.5177C131.429 33.4535 134.307 32.8405 136.113 32.2557V27.6381H132.058V25.031C133.319 24.8857 134.55 24.7975 135.751 24.7665C136.952 24.7354 138.153 24.7607 139.356 24.8423V35.9487H136.822L136.359 34.5634C134.466 35.6215 132.543 36.1289 130.592 36.0856C128.512 36.0262 126.989 35.2429 126.023 33.7356C125.056 32.2283 124.573 29.6165 124.573 25.9002C124.551 22.3183 125.034 19.7718 126.023 18.2605ZM152.807 22.2527C153.716 22.9779 154.18 24.1576 154.197 25.7918V35.9487H151.556L150.985 34.3752C150.787 34.5492 148.401 36.1108 145.649 36.1108C144.685 36.1108 143.878 35.8785 143.121 35.264C142.366 34.6277 141.941 33.6662 141.941 32.4109V31.2741C141.941 30.737 141.984 29.5313 143.039 28.5413C143.818 27.7729 145.114 27.42 146.449 27.42H150.82C150.835 25.7154 150.835 24.9672 150.202 24.4299C149.78 24.0716 148.986 23.8733 147.822 23.8347H143.005V21.8796C145.3 21.2635 147.348 21.206 148.388 21.2041L148.758 21.204C149.833 21.2067 151.571 21.2674 152.807 22.2527ZM150.822 29.0214L147.672 29.1828C146.916 29.2457 146.333 29.4422 145.925 29.7722C145.507 30.1202 145.297 30.6234 145.294 31.2816V31.9588C145.311 32.6087 145.535 33.0814 145.965 33.3769C146.394 33.67 146.953 33.7545 147.334 33.7461C148.058 33.7638 150.317 33.1018 150.822 32.8263V29.0214ZM158.307 21.3902L158.8 17.3147H161.441V21.3902H165.142V24.1062H161.441L161.442 31.0677C161.458 31.7919 161.605 32.3311 161.883 32.6853C162.16 33.0394 162.594 33.2409 163.183 33.2895L164.98 33.4791V35.9488H162.212C160.724 35.8979 159.663 35.4977 159.03 34.7482C158.397 34.0268 158.084 32.7999 158.092 31.0677L158.199 24.1062H155.911V21.9365L158.307 21.3902ZM177.793 22.3034C178.892 23.278 179 25.0949 179 26.032C179 27.4948 178.794 29.8929 174.446 29.8929H170.206C170.241 31.3521 170.547 32.3362 171.125 32.8455C171.585 33.2738 172.465 33.5123 173.765 33.561H178.565V35.5424C177.514 35.7255 175.813 36.1025 173.214 36.0856C171.948 36.0734 169.46 35.9655 168.239 34.4653C166.996 33.0178 166.865 30.3907 166.861 28.6288L166.861 28.5336C166.861 26.8219 167.006 24.1317 168.234 22.7663C169.453 21.2943 171.963 21.2083 173.185 21.2042L173.304 21.204C174.473 21.204 176.699 21.3338 177.793 22.3034ZM173.302 23.6463C172.1 23.6125 171.278 23.8954 170.834 24.495C170.399 25.076 170.177 26.1968 170.167 27.8574H174.439C174.985 27.8101 175.384 27.6637 175.636 27.4184C176.014 27.0503 176.014 26.3039 176.014 26.099C176.014 25.6203 175.962 24.6078 175.292 24.1161C174.849 23.7838 174.186 23.6272 173.302 23.6463Z" fill="white"/>
</svg>
